<?xml version="1.0" standalone="no"?>
<!DOCTYPE svg PUBLIC "-//W3C//DTD SVG 1.1//EN" "http://www.w3.org/Graphics/SVG/1.1/DTD/svg11.dtd" >
<svg xmlns="http://www.w3.org/2000/svg" xmlns:xlink="http://www.w3.org/1999/xlink" version="1.1">
<metadata>
Created by FontForge 20200427 at Tue Mar 31 21:27:40 2015
 By www
</metadata>
<defs>
<font id="CCMeanwhileUncial" horiz-adv-x="482" >
  <font-face 
    font-family="CCMeanwhileUncial"
    font-weight="400"
    font-stretch="normal"
    units-per-em="1000"
    panose-1="0 0 0 0 0 0 0 0 0 0"
    ascent="906"
    descent="-94"
    x-height="787.5"
    cap-height="830"
    bbox="-183.895 -169.565 1530.14 1012.51"
    underline-thickness="20"
    underline-position="-133"
    unicode-range="U+000D-FB02"
  />
<missing-glyph horiz-adv-x="500" 
d="M63 0v800h375v-800h-375v0zM125 63h250v675h-250v-675v0z" />
    <glyph glyph-name=".notdef" horiz-adv-x="500" 
d="M63 0v800h375v-800h-375v0zM125 63h250v675h-250v-675v0z" />
    <glyph glyph-name=".null" horiz-adv-x="0" 
 />
    <glyph glyph-name="nonmarkingreturn" unicode="&#xd;" horiz-adv-x="0" 
 />
    <glyph glyph-name="NULL" horiz-adv-x="0" 
 />
    <glyph glyph-name="NULL" horiz-adv-x="0" 
 />
    <glyph glyph-name="space" unicode=" " horiz-adv-x="413" 
 />
    <glyph glyph-name="exclam" unicode="!" horiz-adv-x="328" 
d="M502 787q-52 -65 -97.5 -134.5t-83 -137.5t-67 -130t-49.5 -111q-9 -21 -28 -27.5t-37.5 -3t-29.5 16.5t-3 31q25 56 43.5 101t34 84t29.5 75t30.5 74t37 80.5t48.5 94.5q5 10 23.5 17.5t42 11.5t48 4t42 -5t23.5 -15t-7 -26zM212 112q-1 -21 -13.5 -40.5t-32.5 -36.5
t-45.5 -31.5t-52.5 -24.5q-24 -9 -39 -7t-23.5 10.5t-12 19.5t-4.5 19q-3 26 4.5 46.5t24 37t40.5 30.5t55 27q21 9 39 8.5t31.5 -8.5t21 -21t7.5 -29z" />
    <glyph glyph-name="quotedbl" unicode="&#x22;" 
d="M468 826q-23 -41 -43 -76.5t-38.5 -71t-35 -73.5t-30.5 -84q-5 -17 -21 -29t-33.5 -15t-31 5.5t-13.5 32.5q5 37 11.5 62.5t14.5 49t17 49t19 63.5q5 17 15.5 46.5t26.5 53.5q9 13 24.5 22.5t33 13.5t35 3.5t30.5 -6.5t19 -17.5t0 -28.5zM263 801q-22 -41 -42.5 -76.5
t-38.5 -71t-34.5 -73.5t-30.5 -84q-5 -17 -21 -29t-33.5 -15t-31 5.5t-13.5 32.5q5 37 11.5 62.5t14.5 49t17 49t19 63.5q5 17 15.5 46.5t26.5 53.5q13 21 40 31t52 9t41 -14t8 -39z" />
    <glyph glyph-name="numbersign" unicode="#" horiz-adv-x="569" 
d="M504 502q-13 -27 -41 -47t-60 -31v-78q23 2 43 2.5t37 -1.5q34 -4 46.5 -13.5t9 -21.5t-18.5 -26.5t-34 -28.5q-15 -11 -34.5 -16.5t-42.5 -7.5q1 -14 3.5 -39t1.5 -45q0 -13 -0.5 -28t-3.5 -29t-9.5 -26.5t-18.5 -21.5q-29 -21 -45 -7.5t-23 45t-7.5 73t1.5 75.5
q-14 -1 -28 -1t-30 -2q0 -14 2 -39.5t1 -44.5q0 -14 -1 -28t-5.5 -27t-14.5 -24.5t-30 -20.5q-27 -13 -39.5 1.5t-15.5 43t0 65t7 66.5q-19 0 -38 1.5t-33.5 7.5t-21 17.5t0.5 29.5q8 23 18.5 37t23 21t26.5 8t29 0v34.5t-1 29.5q-22 -2 -42.5 -3t-39.5 1q-35 4 -44.5 24.5
t-3.5 43.5t23 41.5t36 20.5l65 -5v52q0 13 -0.5 32t2 36.5t9.5 28.5t21 8q31 -7 47 -24t23 -40t6.5 -49t-3.5 -51l54 -4h1v32.5t1 36.5q0 14 0.5 35t5 38.5t15 26.5t30.5 0t30.5 -26t14.5 -38t3.5 -45t-2.5 -46q21 3 41 4t34 -1.5t20 -10t-1 -21.5zM313 337q1 26 0.5 43
t-1.5 36q-14 2 -29.5 1.5t-32.5 -2.5q-2 -29 -2 -47t1 -35q15 0 31 1t33 3z" />
    <glyph glyph-name="dollar" unicode="$" horiz-adv-x="576" 
d="M528 341q-8 -11 -15.5 -20.5t-14.5 -18.5q-30 -40 -75 -72t-99 -55q0 -24 -0.5 -48.5t-1.5 -50.5q0 -15 -0.5 -29.5t-5 -28t-15.5 -25.5t-32 -22q-22 -10 -34 2t-16.5 37.5t-3.5 60t4 70.5q-21 -5 -42 -9t-43 -4q-15 0 -21.5 9t-11.5 27q-3 14 -6.5 28t-2 26t10 20.5
t28.5 12.5q38 7 82.5 11t87 14.5t77.5 32.5t54 65q-21 3 -61 1.5t-95 -5.5q-16 -1 -35 -2.5t-38.5 -3t-38 -3.5t-33.5 -5q-24 -5 -41 -4t-28.5 8t-19.5 21t-15 36q-3 10 0.5 23.5t10.5 28.5t17 29.5t21 26.5q30 33 69 62.5t83 52.5q-1 23 -1 45.5v45.5v33t2.5 38t9.5 29.5
t22 8.5q33 -7 50 -22.5t23.5 -37t5.5 -46.5t-4 -52q8 2 16 3t16 3q39 5 52 -12t13 -53q-1 -13 -5.5 -25t-18.5 -17q-32 -11 -67 -18.5t-69 -18t-64 -27.5t-52 -47q47 4 101 8.5t101 9.5q16 1 37.5 5.5t43.5 6.5t42.5 0.5t33.5 -11.5q25 -16 35 -34t9.5 -37t-10 -38.5
t-22.5 -38.5z" />
    <glyph glyph-name="percent" unicode="%" horiz-adv-x="784" 
d="M396 668q3 -36 -6 -70.5t-26 -65t-42.5 -55t-55.5 -39.5q-20 -11 -48 -15t-56.5 -0.5t-54 14.5t-41.5 31q-25 31 -33 61.5t-4.5 61t15 60.5t25.5 61q10 22 28 41t39 33.5t43.5 23t40.5 10.5q27 2 57 -9t55.5 -31.5t43 -49.5t20.5 -62zM743 741q-59 -76 -130.5 -166
t-156.5 -181q-16 -17 -42.5 -48.5t-58.5 -70t-66.5 -80.5t-66.5 -81t-59.5 -71.5t-44.5 -51.5q-14 -15 -36.5 -21t-41.5 -2.5t-28 16t5 34.5q20 31 49.5 70t64 81t71.5 85.5t72 85.5t66.5 79.5t53.5 68.5q34 46 74 93.5t78.5 92t70.5 83.5t51 66q13 19 32 16t33.5 -18.5
t19.5 -38t-10 -41.5zM763 220q3 -36 -5.5 -70.5t-26 -65t-42.5 -55t-55 -39.5q-21 -11 -48.5 -15t-56 -0.5t-54 14.5t-41.5 31q-25 31 -33 61.5t-5 61t14.5 60.5t25.5 61q10 22 28 41t39.5 33.5t43.5 23t40 10.5q28 2 58 -9t55.5 -31.5t42.5 -49.5t20 -62zM315 600
q4 7 5 18.5t-1.5 23t-9 21t-17.5 13.5q-17 7 -36 12t-40 4.5t-43 -9t-44 -28.5t-29 -44t7 -49q12 -21 38 -26.5t55 -3.5q17 0 35 6.5t33.5 16.5t28 22t18.5 23zM682 152q4 8 5 19t-1.5 22.5t-9 21t-16.5 13.5q-17 7 -36 12t-40 4.5t-43 -9t-44 -28.5t-29 -44t7 -49
q11 -20 38.5 -25t56.5 -4q17 1 34.5 7t33 16t27 21.5t17.5 22.5z" />
    <glyph glyph-name="ampersand" unicode="&#x26;" horiz-adv-x="855" 
d="M840 468q-1 -19 -5.5 -35.5t-28.5 -21.5q-21 -4 -41.5 -6t-40.5 -4q4 -15 6.5 -30t6.5 -29q17 -64 9 -111t-38 -84t-79.5 -66.5t-113.5 -57.5q-38 -16 -90 -26t-108.5 -12.5t-112 3.5t-100.5 22q-35 12 -56 45t-31 71.5t-10 75.5t8 59q7 20 20.5 42t33 44t44 41.5
t53.5 34.5q-26 16 -42 27t-25 25t-13 35t-5 57q-1 14 8.5 37.5t29 50t50.5 52.5t73 45q77 34 139.5 46t109.5 10.5t77.5 -11.5t42.5 -19q16 -12 24 -21.5t10.5 -21.5t1.5 -29.5t-3 -44.5q-2 -20 -18 -26t-38 -3t-45 13t-37 22q-25 20 -68.5 24.5t-91.5 -15.5
q-10 -5 -29 -12.5t-40.5 -21t-41.5 -34t-32 -51.5q-6 -14 3.5 -28t29.5 -24t49.5 -14.5t63.5 -1.5q12 1 41 4t66 6.5t77.5 7t77 6.5t64 4.5t38.5 1.5q13 0 35 -0.5t42.5 -5t35.5 -15t14 -30.5zM602 219q16 18 15 35.5t-10 37t-22 42t-22 49.5q-22 -2 -46 0t-45 -2
q-41 -8 -79 -13.5t-73 -14.5t-67.5 -24.5t-62.5 -43.5q-22 -20 -37.5 -41.5t-21.5 -41.5t1 -37.5t30 -30.5q26 -14 62.5 -19.5t78 -3.5t85.5 10.5t84.5 22.5t74 33t55.5 42z" />
    <glyph glyph-name="quotesingle" unicode="'" horiz-adv-x="281" 
d="M263 801q-22 -41 -42.5 -76.5t-38.5 -71t-34.5 -73.5t-30.5 -84q-5 -17 -21 -29t-33.5 -15t-31 5.5t-13.5 32.5q5 37 11.5 62.5t14.5 49t17 49t19 63.5q5 17 15.5 46.5t26.5 53.5q13 21 40 31t52 9t41 -14t8 -39z" />
    <glyph glyph-name="parenleft" unicode="(" horiz-adv-x="436" 
d="M424 825q-6 -20 -8.5 -40.5t-8 -37.5t-17.5 -29t-36 -16q-36 -6 -79.5 -36t-84.5 -79q-48 -57 -65 -137t6 -171q20 -78 65 -134t102 -75q11 -4 27 -5t31.5 -2.5t28 -5.5t17 -12.5t-1 -23.5t-25.5 -40q-10 -12 -16.5 -20.5t-14 -14.5t-17.5 -8t-28 0q-65 6 -108.5 29.5
t-83.5 73.5q-48 60 -66.5 124t-17.5 130t17 131.5t38 128.5q16 45 42 86t59 76t70.5 62t75.5 45q13 6 32 13.5t35.5 11t26.5 -1t5 -22.5z" />
    <glyph glyph-name="parenright" unicode=")" horiz-adv-x="436" 
d="M349 235q-16 -45 -36 -86t-45 -76t-56.5 -62t-69.5 -45q-14 -6 -28.5 -8.5t-29 -0.5t-27.5 10.5t-22 24.5q-16 27 -19 44t4.5 28t24.5 17t41 10q36 6 79.5 35.5t84.5 79.5q47 57 63 124t-7 158q-10 39 -29 74.5t-43.5 64.5t-53 50.5t-56.5 30.5q-17 6 -40 9t-37 11.5
t-13 27t31 55.5q9 12 15.5 21t14 14.5t17.5 7.5t28 1q33 -3 59 -14.5t48 -28.5t42 -39t40 -47q48 -60 65.5 -120.5t14.5 -122t-20.5 -123.5t-39.5 -125z" />
    <glyph glyph-name="asterisk" unicode="*" horiz-adv-x="538" 
d="M483 714q-27 -36 -59.5 -64.5t-64.5 -59.5q23 -19 42.5 -27t46.5 -19q29 -11 41 -25.5t12.5 -28.5t-9 -27t-23.5 -22t-31 -12.5t-31 1.5q-15 5 -26 10t-21 10t-20.5 11.5t-22.5 14.5v-20t-0.5 -29.5t-1.5 -29.5t-3 -21q-6 -16 -20.5 -27t-29.5 -10.5t-26.5 16t-11.5 53.5
q0 13 1 35.5t3 35.5q-5 -6 -15 -16t-21 -20.5t-21.5 -19.5t-16.5 -14q-14 -12 -32.5 -9.5t-33 13.5t-19 26.5t9.5 29.5q27 27 53 49.5t52 49.5q-15 12 -29.5 19.5t-29.5 15t-31.5 18.5t-35.5 31q-12 13 -9 30.5t14.5 32.5t27 23.5t28.5 2.5q20 -8 34.5 -16t26.5 -15.5
t23.5 -16t25.5 -17.5q0 23 -1 51t2 51q3 24 17 31t29.5 2t29 -19.5t16.5 -35.5q2 -19 -0.5 -38t-3.5 -38q23 20 43 42t42 42q14 13 32 12t31.5 -11t19.5 -24.5t-3 -26.5z" />
    <glyph glyph-name="plus" unicode="+" 
d="M464 428q-23 -63 -65 -91.5t-87 -21.5q-8 2 -16.5 2h-18.5q1 -12 0.5 -37l-1.5 -75q0 -14 -1 -28t-5.5 -27t-14.5 -24.5t-30 -20.5t-27 3t-8 40t2 70t5 93q-34 -5 -68 -8.5t-63 0.5q-23 3 -34.5 14t-14.5 26.5t1.5 32.5t13.5 31.5t21 24.5t24 11l119 -9q-2 27 -1 50
t-5 51q-3 13 -3.5 32t3 36t11.5 28.5t22 8.5q41 -9 53 -28t11.5 -46t-6.5 -61.5t-1 -75.5q16 -2 37.5 2t44 9t43.5 10t36 5.5t22 -5.5t1 -22z" />
    <glyph glyph-name="comma" unicode="," horiz-adv-x="246" 
d="M254 221q0 -23 -8 -45.5t-19 -43.5t-23 -41.5t-21 -42.5q-20 -45 -52 -87.5t-64 -76.5q-15 -16 -38 -17t-42 8.5t-28.5 28t2.5 41.5q18 35 39.5 67.5t41 65.5t33.5 68.5t17 77.5q1 15 9 26t20 18t26 10.5t28 3.5t28 -3.5t25.5 -11t18.5 -19t7 -27.5z" />
    <glyph glyph-name="hyphen" unicode="-" horiz-adv-x="504" 
d="M493 472q-12 -32 -30.5 -58t-41 -43.5t-48 -26t-49.5 -4.5q-29 4 -59.5 1.5t-62 -7t-63 -7.5t-61.5 1q-26 3 -38.5 16.5t-15 32.5t3 40t16.5 39t25 30.5t28 13.5l224 -16q6 0 19.5 3t29.5 7.5t30.5 9t21.5 6.5q37 8 59.5 1t11.5 -39z" />
    <glyph glyph-name="period" unicode="." horiz-adv-x="258" 
d="M233 93q-12 -29 -28.5 -54.5t-37.5 -41t-46 -19t-52 10.5q-23 12 -29.5 32t-3.5 42.5t11.5 44.5t15.5 39q11 26 31 40.5t43 19t45.5 -1.5t37.5 -20.5t20 -38t-7 -53.5z" />
    <glyph glyph-name="slash" unicode="/" horiz-adv-x="526" 
d="M548 798q-45 -85 -99.5 -185.5t-122.5 -205.5q-13 -20 -33.5 -55.5t-45.5 -79t-51.5 -91t-51.5 -91.5t-46 -80.5t-35 -58.5q-11 -17 -32.5 -27t-40.5 -10t-30 11t-1 35q22 52 60.5 121.5t81 143t82.5 143t66 120.5q25 51 56 105.5t61 104.5t55 94t39 74q9 21 28.5 21
t36.5 -12.5t25.5 -33.5t-2.5 -43z" />
    <glyph glyph-name="zero" unicode="0" horiz-adv-x="779" 
d="M754 492q6 -71 -11 -140t-52 -130t-85 -110t-111 -80q-41 -21 -96 -29t-111.5 -1.5t-108 29t-83.5 62.5q-50 62 -66 122.5t-10 121t29 121t51 122.5q20 44 56.5 82t79 67t86.5 46.5t80 20.5q55 4 115 -17.5t111 -63t86 -99t40 -124.5zM612 289q12 24 18.5 62t5 78
t-11.5 76.5t-32 57.5q-34 33 -74 62t-85.5 39.5t-97 -4.5t-108.5 -70q-56 -54 -79.5 -133t-3.5 -171q9 -39 28.5 -66t46.5 -45t58.5 -28.5t63.5 -17.5q37 -8 78 3t78 34.5t67.5 56t47.5 66.5z" />
    <glyph glyph-name="one" unicode="1" horiz-adv-x="404" 
d="M390 149q-1 -38 -11 -65t-26.5 -45t-38.5 -28.5t-48 -16.5q-16 -3 -31 -3t-30.5 1.5t-30.5 2t-31 -1.5q-20 -3 -36 -11.5t-28 -17t-19.5 -15.5t-11.5 -7q-7 0 -14.5 5.5t-7.5 27.5q0 14 3.5 28.5t8 26.5t9 20t6.5 11q10 15 22.5 24t25.5 14t25.5 7t24.5 3q2 44 7 86t7 67
q2 46 2.5 84.5t0 73t-1.5 68.5t-2 71q0 15 -8.5 18.5t-21.5 2t-27.5 -6t-26.5 -5.5q-18 -2 -33 5t-15 21q0 19 8.5 35.5t20.5 32t25.5 29.5t24.5 29q8 11 25 24.5t25 29.5q8 15 13 27t20 9q43 -9 61 -30t22 -49.5t-1 -61t-7 -63.5q-7 -108 -4.5 -226.5t0.5 -250.5
q12 5 22.5 8t21 6.5t21 9t21.5 14.5q12 10 26 4t13 -22z" />
    <glyph glyph-name="two" unicode="2" horiz-adv-x="659" 
d="M620 232q10 -9 9.5 -30.5t-6.5 -45t-14.5 -43t-14.5 -24.5q-23 -19 -48.5 -35t-62.5 -26t-89.5 -13t-127.5 4q-33 3 -61 -5t-52.5 -17t-47 -13.5t-43.5 6.5q-9 5 -21 19.5t-20.5 32.5t-11.5 36t6 29q46 57 86 99.5t75.5 76.5t67.5 64t63 62q35 36 58.5 57.5t39 36
t25 24.5t18.5 24q7 12 0.5 27t-21.5 30t-35.5 29.5t-42 25.5t-41 16.5t-31.5 3.5q-50 -8 -78 -19.5t-45.5 -26.5t-30.5 -33t-32 -38q-25 -26 -40.5 -21t-21.5 25.5t-2 49t19 48.5q12 17 35 37.5t52 41.5t61.5 40t64.5 34q43 20 89 15t89 -28t81.5 -59t67.5 -78
q18 -27 20 -52.5t-8.5 -50.5t-29.5 -48.5t-42 -46.5t-47.5 -44t-44.5 -41q-34 -33 -61 -60.5t-52.5 -54.5t-51.5 -57.5t-57 -70.5q43 17 92.5 20t97 4.5t87.5 8t65 30.5q7 7 13 17t12.5 16t16 5t24.5 -14z" />
    <glyph glyph-name="three" unicode="3" horiz-adv-x="696" 
d="M647 648q-45 -38 -87 -80.5t-77 -86.5q27 -12 53.5 -25.5t48.5 -29.5t37.5 -35.5t21.5 -43.5q14 -65 -1 -110.5t-49.5 -82t-84.5 -68t-105 -67.5q-33 -21 -64.5 -32.5t-64.5 -14t-69 2t-78 14.5q-18 4 -41 22.5t-40.5 41t-24 45.5t9.5 38q12 11 28.5 11.5t34.5 -4
t37.5 -11.5t37.5 -11q39 -9 83 -7t87 14.5t82 35t69 53.5q23 24 25.5 45t-8 39t-30.5 32t-43 24t-45.5 15.5t-36.5 6.5q-21 1 -39.5 -5.5t-34 -13t-28 -10.5t-21.5 2q-22 15 -27.5 30.5t-1 30t15 25.5t19.5 16q61 35 97.5 57.5t63 42t49 39.5t54.5 50q-45 -10 -89.5 -7.5
t-86.5 6t-80 4.5t-71 -12q-16 -6 -32.5 -17.5t-32 -21.5t-29 -15.5t-23.5 0.5q-13 8 -12 35t14 58.5t36 59.5t55 39t61.5 11t58.5 -3t59 -5.5t64 3.5q37 7 64 9.5t49 4.5t41.5 6t40.5 13q10 4 22.5 -3t23 -21.5t19 -34t11.5 -39t-0.5 -37t-15.5 -28.5z" />
    <glyph glyph-name="four" unicode="4" horiz-adv-x="701" 
d="M701 382q5 -3 5.5 -13.5t-2.5 -25.5t-8.5 -31.5t-12.5 -31.5q-9 -19 -17 -31t-18 -19.5t-22.5 -12t-30.5 -7.5q1 -28 2.5 -48t3 -38t1.5 -37.5t-3 -45.5q-3 -28 -21.5 -45.5t-39.5 -23.5t-38.5 0.5t-19.5 26.5q-3 35 -2.5 58t0.5 43.5t-2 42t-10 53.5q-48 -26 -97 -32
t-97 -7t-94 -5t-88 -26q-56 -29 -81 -5t-30 96q-2 23 28 65t88 88q49 39 95 88.5t83 97t64 88.5t39 64q19 35 35 62.5t35 37.5q23 12 48.5 14.5t47 -1t35 -11.5t12.5 -16q-2 -20 -1.5 -38.5t-1.5 -42.5q-4 -44 -4.5 -91.5t1 -95.5t3.5 -94.5t4 -87.5q9 1 21 10.5t26.5 18.5
t30.5 13.5t33 -4.5zM470 328q-1 22 -3.5 57.5t-5.5 74.5t-6 78.5t-5 71.5q-40 -40 -78 -88t-75.5 -94.5t-75 -87t-75.5 -64.5q43 17 85.5 17.5t83.5 -0.5t80 4t75 31z" />
    <glyph glyph-name="five" unicode="5" horiz-adv-x="769" 
d="M701 817q0 -12 -9.5 -36t-23 -49t-28 -45t-23.5 -23q-34 -13 -78.5 -10t-99 6.5t-120.5 -1t-142 -32.5q-8 -12 -13 -36t-7 -50t-2.5 -48.5t0.5 -32.5q36 3 71 12t70.5 18.5t71.5 18.5t74 14q37 4 74.5 7.5t71 2.5t60.5 -6.5t44 -17.5q45 -32 53.5 -67t-4 -70t-37 -68.5
t-44.5 -61.5q-39 -56 -93 -110t-118 -92t-136.5 -52t-148.5 10q-21 7 -39.5 19t-32 26t-22.5 27.5t-11 23.5q-6 27 -2 43t15 22.5t27.5 3.5t34.5 -15q21 -14 48.5 -15t55.5 3.5t54 11.5t45 10q35 6 74.5 18.5t77 35t68 58t47.5 88.5q-8 19 -28 27.5t-50.5 10t-70.5 -2
t-88 -7.5q-24 -2 -54 -11t-61 -22t-59.5 -27t-49.5 -25q-25 -14 -44 -8.5t-33.5 23.5t-25.5 45t-20 58q-3 9 1.5 30t11.5 49t15 58.5t14 59.5q3 15 0.5 34.5t-5.5 37.5t-4.5 32t3.5 20q12 15 29 21.5t36.5 10t41 5.5t44.5 7q49 12 101.5 14.5t104 1.5t98.5 -2t85 4
q16 2 34.5 13t34 18.5t26 6.5t10.5 -23z" />
    <glyph glyph-name="six" unicode="6" horiz-adv-x="788" 
d="M757 286q-23 -74 -77 -127t-126 -86.5t-156 -47.5t-168 -9q-33 2 -63 16.5t-56.5 36.5t-47.5 49.5t-34 55.5q-14 27 -16 66t4.5 84t22 92t37 91.5t49.5 83t59 64.5q51 43 103 79t108 60t116.5 34.5t127.5 1.5q18 -2 27 -20.5t9.5 -39t-7.5 -37t-26 -14.5q-73 -3 -145 -18
t-136.5 -47t-119 -85t-91.5 -132q-5 -11 -9 -21t-7 -20q75 46 153 81.5t155 47.5q43 7 78.5 11t68 2t64.5 -11t68 -29q33 -18 46 -43t13.5 -53t-7.5 -58t-17 -58zM681 354q6 20 -15.5 32t-52.5 18t-62 7t-46 -1q-113 -17 -207 -56t-154 -105q8 -16 23 -36q27 -38 72 -53.5
t97.5 -15t106.5 13t101 30.5q30 12 53 31t39.5 41.5t27.5 46.5t17 47z" />
    <glyph glyph-name="seven" unicode="7" horiz-adv-x="660" 
d="M630 681q-66 -75 -124.5 -158.5t-111.5 -163.5q-53 -81 -102 -174t-83 -193q-6 -18 -29.5 -20t-47 8.5t-38.5 30.5t-3 47q34 79 79 158t94 157.5t99 155t94 150.5q-48 -17 -86.5 -20.5t-74 -2.5l-71 2t-76.5 -6q-17 -3 -26.5 -10t-18.5 -15.5t-20 -17t-31 -14.5
q-17 -5 -23.5 16.5t-5 52t10 61.5t21.5 44q20 20 55 32.5t98 15.5q28 1 61.5 -2t73 -4.5t85.5 1t100 15.5q26 6 50.5 -9t41 -40t20.5 -52t-11 -45z" />
    <glyph glyph-name="eight" unicode="8" horiz-adv-x="814" 
d="M794 349q15 -64 -0.5 -115t-53.5 -92.5t-93.5 -74t-119.5 -60.5q-38 -16 -92 -23.5t-112.5 -7t-116 9t-102.5 24.5q-35 12 -56 45t-31 71.5t-10 75.5t8 59q7 20 20.5 42t33 44t44 41.5t53.5 34.5q-26 16 -42 27t-25 25t-13 35t-5 57q-1 14 8.5 37.5t29 50t50.5 52.5
t73 45q77 34 135 46.5t108 11.5t96 -10t99 -17q27 -4 45 -21t27 -39.5t8.5 -48t-11.5 -46.5q-18 -33 -30 -48.5t-23 -26t-23.5 -21t-30.5 -31.5q57 -24 98.5 -63.5t53.5 -88.5zM608 627q16 20 9.5 33.5t-28 20.5t-54 8.5t-68.5 -2t-72 -12t-63 -20.5q-10 -4 -27 -8.5
t-35.5 -14t-36.5 -27t-30 -48.5q-6 -14 4 -29t30.5 -25.5t50 -14.5t63.5 3q45 9 80.5 18.5t66 24.5t57 37t53.5 56zM658 234q23 25 25 47t-10 40t-34 33t-46.5 25t-48 16t-38.5 7q-38 -16 -80.5 -22t-84.5 -13t-80 -19t-68 -40q-22 -20 -38 -45t-22.5 -49.5t0 -45.5
t29.5 -34q26 -14 66.5 -18t89 -1t99.5 13.5t97.5 26.5t84.5 36t59 43z" />
    <glyph glyph-name="nine" unicode="9" horiz-adv-x="687" 
d="M659 613q-7 -31 -10.5 -49t-5.5 -30.5t-3 -22t-3 -23.5t-6 -35t-12 -57q-8 -35 -18 -67.5t-18.5 -66t-13.5 -68.5t-2 -74q1 -13 3.5 -25.5t2.5 -27.5t-4.5 -33t-18.5 -42q-13 -22 -31.5 -30t-36 -5.5t-30 12.5t-12.5 23q0 34 7 77t16 88t16 89t7 81q-35 -18 -73.5 -48.5
t-83.5 -54.5t-97 -32.5t-113 15.5q-41 16 -67 51t-36 80t-2.5 95.5t34.5 98.5q25 45 65.5 91.5t88.5 85.5t100 66t102 33t94 -12.5t76 -70.5q48 -2 72.5 -30t12.5 -82zM526 607q-24 35 -48.5 51.5t-51 19.5t-55.5 -5t-63 -23q-26 -12 -50.5 -29.5t-45 -38.5t-36 -44
t-22.5 -46q-6 -20 -9.5 -46.5t1 -50.5t20.5 -42t49 -22q54 -7 98 12t80.5 49.5t66.5 65.5t56 62q6 16 10.5 26.5t6 20t0 18.5t-6.5 22z" />
    <glyph glyph-name="colon" unicode=":" horiz-adv-x="288" 
d="M225 534q21 -8 26.5 -21t2 -29t-13 -32.5t-18.5 -30.5q-17 -26 -52.5 -36t-68.5 -5t-51 24t0 51q29 49 75 73t100 6zM245 98q-14 -24 -33 -43t-41.5 -30t-48 -12.5t-52.5 7.5q-21 7 -26.5 20.5t-2 29t13 32t18.5 30.5q11 17 31.5 27.5t44 13.5t46 -0.5t38 -13t20 -25
t-7.5 -36.5z" />
    <glyph glyph-name="semicolon" unicode=";" horiz-adv-x="268" 
d="M225 534q21 -8 26.5 -21t2 -29t-13 -32.5t-18.5 -30.5q-17 -26 -52.5 -36t-68.5 -5t-51 24t0 51q29 49 75 73t100 6zM236 222q-18 -37 -34.5 -80.5t-35 -87t-41.5 -84.5t-54 -74q-11 -11 -30 -12t-36 6t-26.5 19.5t-1.5 28.5q17 33 41.5 65.5t46.5 66.5t35.5 71t9.5 81
q7 20 25 30t38 10t38 -10t25 -30z" />
    <glyph glyph-name="less" unicode="&#x3c;" horiz-adv-x="432" 
d="M444 80q16 -21 14 -54.5t-13.5 -62t-27.5 -44t-28 -1.5q-72 85 -144 163.5t-148 170.5q-12 15 -26 24.5t-26.5 18.5t-22 20.5t-12.5 29.5q-4 24 3.5 41t22 32t32.5 30t35 33q33 46 64 97t57.5 99.5t47.5 91.5t35 73q9 21 27 21.5t34.5 -11.5t25.5 -33.5t1 -44.5
q-15 -43 -30 -73t-31 -54.5t-33.5 -47.5t-38 -51.5t-44.5 -66t-53 -90.5q37 -56 73.5 -96.5t72 -75t69.5 -67t64 -72.5z" />
    <glyph glyph-name="equal" unicode="=" horiz-adv-x="522" 
d="M468 502q-21 -45 -61 -69.5t-85 -17.5q-27 4 -58.5 1.5t-64 -6.5t-64 -7t-59.5 0q-35 4 -44.5 24.5t-3.5 43.5t23 41.5t36 20.5l224 -16q8 -1 25.5 2.5l37.5 7.5t40 6.5t34.5 1t21 -9t-1.5 -23.5zM450 257q-20 -15 -41.5 -20t-50 -6t-66.5 -1.5t-90 -6.5q-14 -2 -41 -3.5
t-52 2t-40.5 15.5t-6.5 38q11 31 26 45.5t32.5 19t38 1.5t42.5 -6q27 -4 58.5 -1.5t64 6.5t64 7t59.5 0q34 -4 46.5 -13.5t9 -21.5t-18.5 -26.5t-34 -28.5z" />
    <glyph glyph-name="greater" unicode="&#x3e;" horiz-adv-x="440" 
d="M429 362q-9 -22 -17 -34.5t-16 -23t-17 -22t-20 -32.5q-17 -32 -40.5 -69.5t-49.5 -76.5t-51.5 -76.5t-46.5 -70.5q-11 -17 -32.5 -27t-40.5 -10t-30 11t-1 35q22 52 51 98.5l58 93t55.5 95t43.5 102.5q-54 78 -115.5 171t-133.5 202q-7 10 -4 27.5t12 36.5t22.5 36.5
t28 27.5t28 9.5t23.5 -17.5q22 -39 49 -85.5t57 -95t63 -96.5t69 -90q12 -15 25 -29t22 -28.5t12 -30t-4 -31.5z" />
    <glyph glyph-name="question" unicode="?" horiz-adv-x="708" 
d="M743 771q19 -14 13 -46t-25 -67t-43 -66t-41 -44q-36 -28 -58.5 -45t-37.5 -28t-26 -18t-24 -15t-30.5 -20t-45.5 -33q40 -5 62 -8.5t35 -7t22.5 -8t26.5 -11.5q3 -1 -2 -17t-17 -35.5t-31 -35.5t-45 -17q-43 -2 -80 -0.5t-72.5 1.5t-70.5 -4t-73 -16q-11 -3 -23.5 10
t-19.5 33t-3.5 41t25.5 34q34 19 65.5 42.5t64 47.5t66.5 47.5t73 43.5t75.5 46t62 50t35 43.5t-3.5 26.5q-52 25 -106 26t-105 -12.5t-96.5 -36t-80.5 -44.5q-31 -20 -49 -30t-28.5 -12t-16 2.5t-9.5 13.5q-13 29 -13.5 54.5t7 46t20 35t24.5 20.5q30 15 76 27.5t93 22.5
t88.5 15.5t62.5 5.5q37 0 72.5 0.5t70 -4t68.5 -17t68 -37.5zM348 93q-3 -26 -16 -46.5t-32.5 -36t-43.5 -26.5t-50 -18q-19 -5 -37.5 -4.5t-32 8t-20.5 22t-3 37.5q8 50 42.5 80.5t78.5 39.5q24 6 46 5.5t38 -7.5t24.5 -20t5.5 -34z" />
    <glyph glyph-name="at" unicode="@" horiz-adv-x="922" 
d="M896 599q17 -56 15.5 -107t-16.5 -98t-41 -91.5t-57 -86.5q-20 -28 -50.5 -50t-63.5 -22q-32 0 -51 3t-30.5 12.5t-17 27t-10.5 47.5q-33 -16 -75.5 -28t-86 -13t-84 12t-67.5 47q-17 20 -27 49.5t-12 58.5q-2 25 17 62t51 71t74 58t85 24q8 0 23.5 1t32 2.5t32.5 3
t25 1.5q2 8 9 18t18.5 17.5t26 10.5t31.5 -4q20 -8 27.5 -22t5.5 -41t-3 -60.5t-1 -67t1 -65t3.5 -55t7.5 -35t13 -6.5q38 26 57.5 55.5t26 61t3 64.5t-10.5 67q-10 47 -30.5 77.5t-48 47.5t-60 23t-66.5 6t-69 -5t-66 -11q-66 -12 -126 -49.5t-100 -85.5
q-23 -26 -36.5 -63.5t-17.5 -78.5t2 -81.5t22 -72.5q19 -37 50.5 -65.5t72 -43.5t87.5 -14.5t96 21.5q4 2 16.5 4.5t26 3t24 -3.5t11.5 -16q1 -18 -3.5 -38.5t-13.5 -38.5t-23.5 -31t-32.5 -17q-61 -12 -130.5 -14.5t-133 12.5t-113 52.5t-70.5 104.5q-15 47 -18 100
t5 106.5t27.5 103.5t49.5 92q44 61 97 106t111.5 76t122 50.5t129.5 29.5q52 8 103.5 -5.5t96 -43t78.5 -71t49 -89.5zM580 387q-2 14 -4 35t-5 35q-12 0 -32 -1.5t-42 -3.5t-42 -4.5t-31 -5.5q-6 -2 -22 -4.5t-33.5 -10.5t-30.5 -23t-13 -41q0 -12 10 -20t22.5 -12
t23.5 -5.5t13 -1.5q28 0 56 9t53 20t45 21.5t32 12.5z" />
    <glyph glyph-name="A" unicode="A" horiz-adv-x="767" 
d="M727 558q-11 -48 -24.5 -89t-28.5 -93q-14 -52 -11 -111t17 -112q7 -25 -2.5 -51.5t-28 -50.5t-43.5 -43t-50 -28q-21 -8 -39.5 -6.5t-31 15t-16.5 40t5 69.5q-47 -21 -99.5 -45t-105.5 -42.5t-103 -28t-92 -1.5q-58 10 -89 32t-41.5 51t-4 64t23.5 72q19 42 43.5 74
t51.5 58.5t55.5 47.5t56.5 40q42 29 94 56t106 48.5t107 36t98 20.5q4 30 -5.5 48t-30.5 26.5t-50.5 7t-63.5 -10.5q-20 -5 -39 -17.5t-37 -24t-37 -18t-39 -0.5q-17 5 -19 25.5t7 46t26 52t39 44.5q25 21 72 34.5t101 17t107 -3.5t91 -26q24 -12 36 -27.5t14.5 -40.5
t-3 -62.5t-17.5 -93.5zM545 409q-84 -6 -145 -28t-114 -47q-18 -9 -47.5 -24.5t-58 -35t-50.5 -42t-25 -44.5q-1 -5 1 -9.5t11.5 -8.5t28.5 -5.5t54 -0.5q22 1 58 10.5t75.5 23t76.5 30t60 30.5q11 6 21.5 13t21.5 15q6 26 16.5 60t15.5 63z" />
    <glyph glyph-name="B" unicode="B" horiz-adv-x="732" 
d="M730 626q-28 -33 -45 -50t-31 -28q-11 -8 -21 -15.5t-25 -19.5q35 -28 53 -68.5t10 -89.5q-10 -63 -43.5 -118t-82.5 -100t-110 -79.5t-126 -56.5t-130.5 -30.5t-123.5 -2.5q-15 1 -32 10t-30.5 24.5t-19.5 37.5t2 50q15 55 30 99t30 82t30 74t30.5 76t30.5 88t31 110
q-12 10 -18 29t-1 42q6 26 27 52t59 37q81 22 151 33.5t131 14.5t113 -0.5t96 -12.5q26 -5 40 -25.5t15.5 -47.5t-9 -58t-31.5 -57zM570 652q11 11 5.5 16.5t-18 7.5t-26.5 2h-20q-25 1 -52.5 -1.5t-55 -7.5t-53 -12t-45.5 -16q-8 -17 -16 -36.5t-15.5 -40.5t-14 -41
t-10.5 -38q40 10 83 26.5t85.5 37.5t81.5 47t71 56zM454 250q34 33 43 59.5t2.5 46t-22 30.5t-29.5 14q-37 -15 -69 -27.5t-62 -24t-60 -22.5t-63 -24q-20 -42 -40 -84.5t-32 -87.5q37 0 82 7.5t90 23t87 38t73 51.5z" />
    <glyph glyph-name="C" unicode="C" horiz-adv-x="851" 
d="M831 771q12 -17 13.5 -42.5t-4.5 -52.5t-17 -51.5t-24.5 -40t-27.5 -18t-25 15.5q-32 53 -74.5 74t-95.5 3q-61 -21 -117.5 -60.5t-106 -89.5t-91.5 -107t-75 -112q-15 -26 -20.5 -47t-4 -37t9.5 -26.5t19 -16.5q48 -24 112 -16t130 32t127.5 54.5t103.5 51.5
q28 14 50 -1.5t33 -43t7.5 -58t-27.5 -47.5q-58 -41 -123.5 -73t-132.5 -53t-132.5 -31.5t-124 -8t-106.5 17.5t-80 45q-30 28 -37 73.5t1.5 95.5t29 100t45.5 88q45 69 103 133t121 118.5t127.5 96.5t124.5 66q36 15 80.5 19t86.5 -1t75.5 -18t46.5 -32z" />
    <glyph glyph-name="D" unicode="D" horiz-adv-x="837" 
d="M881 641q-45 -109 -124.5 -207.5t-178 -181.5t-208 -149t-214.5 -110q-20 -9 -55 -10t-66.5 11t-49.5 41t-5 81q25 56 43.5 99.5t33 81t26 72t23 72.5t24 82t28.5 101q-17 15 -18.5 39.5t3.5 43.5q7 27 28 52.5t57 31.5q31 5 73 10.5t88.5 10.5t95 9t93.5 7t84 3t67 -2
q29 -3 62.5 -17.5t59 -39.5t36 -58t-5.5 -73zM695 614q-1 19 -20 31t-49.5 17.5t-69.5 6t-81 -4.5t-83 -14.5t-76 -22.5q-20 -51 -41.5 -104t-40.5 -107.5t-35 -109.5t-25 -109q41 6 82 25t80 44t76 52t70 50q38 25 76 59.5t69 69.5t50 66t18 51z" />
    <glyph glyph-name="E" unicode="E" horiz-adv-x="784" 
d="M770 773q7 -12 6 -31t-8 -39t-19 -39t-26.5 -29.5t-31 -10.5t-33.5 18q-18 19 -36 35.5t-42 22.5t-58 -3t-85 -40q-15 -9 -41.5 -26t-55 -37.5t-53.5 -42t-37 -39.5q37 3 87.5 8t104.5 10.5t107 10t95 5.5q18 1 36 0t33.5 -7t29 -19t22.5 -37q14 -37 4.5 -59.5
t-35.5 -33.5q-19 -8 -38.5 -8.5t-39.5 -2.5q-52 -4 -123 -10t-142.5 -14t-134 -19t-98.5 -25q-15 -13 -19.5 -35t-1 -44.5t15 -42t28.5 -27.5q36 -17 87.5 -13.5t105.5 18.5t105 35.5t86 38.5q19 9 40.5 18t41 9t35 -12t23.5 -44q3 -11 3 -24.5t-3 -26.5t-11 -24t-21 -18
q-59 -29 -112 -53t-106.5 -43t-110.5 -32t-124 -21q-31 -3 -72.5 11t-78.5 41.5t-62.5 65.5t-23.5 83q2 56 17 106t38 101q5 12 23 42.5t45.5 71.5t64.5 88.5t79.5 92t90.5 82.5t98 61q58 26 110 35.5t94.5 3.5t75 -27t51.5 -55z" />
    <glyph glyph-name="F" unicode="F" horiz-adv-x="769" 
d="M776 668q-42 -6 -101.5 -5.5t-122.5 -3.5q-30 -2 -54 -5.5t-45.5 -10t-41.5 -17t-42 -28.5q-29 -23 -47.5 -44t-26.5 -53q54 8 99.5 16.5t90.5 14.5t93 9.5t107 2.5q21 -1 35.5 -13.5t23 -31t10.5 -40.5t-2 -41t-14 -31.5t-26 -13.5q-29 -2 -54.5 -2.5t-55 -2t-66.5 -4.5
t-88 -9q-56 -7 -114 -19t-109 -38q-18 -31 -30.5 -61.5t-23 -61.5t-20 -63t-20.5 -65q-19 -57 -49 -77q-19 -12 -37.5 -7.5t-29.5 23.5q-16 25 -18 45.5t4 40t16.5 38.5t19.5 40q10 23 17 41.5t13.5 37t13 38.5t14.5 46q-6 19 -4 40.5t9.5 42.5t19.5 40.5t26 33.5
q6 15 23 47.5t38.5 68t44.5 68.5t41 50q68 63 125 89t108.5 33t101 3t103.5 -2q20 1 35.5 -10t25 -28t13.5 -37.5t2.5 -38.5t-9.5 -30.5t-22 -14.5z" />
    <glyph glyph-name="G" unicode="G" horiz-adv-x="878" 
d="M875 771q12 -34 4.5 -66.5t-25 -55t-39.5 -30t-38 8.5q-26 26 -54 36t-59.5 7.5t-68 -16.5t-79.5 -36q-38 -19 -86.5 -55.5t-96 -80t-88 -89t-62.5 -81.5q-42 -69 -36 -110t60 -51q57 -11 112.5 -2.5t106.5 28t97.5 45t86.5 49.5q23 14 36.5 35.5t17.5 53.5
q-21 1 -50.5 -7.5t-60.5 -20.5t-60.5 -24.5t-50.5 -18.5q-29 -8 -49.5 6.5t-30 37t-6 46t22.5 34.5q88 52 194.5 87t221.5 45q19 1 32 -13t20 -33.5t7.5 -40t-4.5 -32.5q-18 -43 -36.5 -84t-41.5 -91q-9 -19 -20 -42.5t-21.5 -46t-18.5 -40t-11 -24.5q-10 -24 -26.5 -56
t-39 -61.5t-50 -50t-60.5 -20.5q-27 0 -31 15.5t2.5 35.5t18 39.5t16.5 27.5q3 4 7 12l8.5 17l8.5 17t7 12q-60 -30 -131 -59t-141.5 -45t-134.5 -11.5t-110 41.5q-43 35 -55 81.5t-2.5 98.5t37 105.5t63.5 102.5q52 71 117 137t138.5 120.5t153 94.5t159.5 60q29 7 63.5 10
t66 -0.5t56 -15.5t33.5 -36z" />
    <glyph glyph-name="H" unicode="H" horiz-adv-x="789" 
d="M791 834q-2 -5 -13 -17t-27 -27.5t-34.5 -32.5t-35 -31.5t-29 -24.5t-16.5 -12q-27 -12 -49.5 -17t-43.5 -7.5t-42.5 -4.5t-45.5 -8q-15 -4 -39 -15t-52 -33t-56.5 -55t-50.5 -80q55 34 108.5 54t103.5 30.5t96 14.5t85 7q21 1 46 -1.5t45 -11.5t31 -26t5 -43
q-18 -79 -43 -143t-53.5 -118t-59.5 -101t-62 -92q-28 -41 -63 -69t-68 -42.5t-60.5 -15.5t-39.5 11t-5 37t42 63l22.5 22.5t27 27.5t25.5 27t18 23q13 23 24.5 42t22 38t20.5 38.5t19 43.5q20 51 15.5 70t-30.5 17q-39 -3 -80.5 -11t-84.5 -23t-86.5 -38t-84.5 -55
q-26 -20 -35.5 -38t-11.5 -35.5t-1.5 -35t-5.5 -37.5q-5 -16 -15 -38t-25.5 -43t-38 -37.5t-51.5 -22.5q-47 -8 -66 7.5t-10 52.5q25 65 42.5 112t31.5 83.5t25 65.5t23 57t25.5 59t32.5 71q16 35 39.5 75t51.5 79.5t60 76.5t67 67q21 19 46 35t54 25q6 2 28.5 6.5t53 10
t65 12t65 11.5t52.5 8.5t28 3.5q12 0 26 -0.5t25.5 -4.5t17 -12.5t-0.5 -24.5z" />
    <glyph glyph-name="I" unicode="I" horiz-adv-x="308" 
d="M364 716q-5 -30 -17.5 -59.5t-24.5 -58.5q-49 -116 -94 -247.5t-101 -275.5q-6 -15 -17 -39.5t-25 -44.5q-20 -31 -43 -38t-39 19q-23 38 -21 76.5t16 76.5t33.5 74.5t33.5 70.5q26 64 47 123t39 114t35 106t35 99q5 14 13 35.5t17 40.5q19 37 41 42t39.5 -10.5t27 -44.5
t5.5 -59z" />
    <glyph glyph-name="J" unicode="J" horiz-adv-x="611" 
d="M674 725q-32 -98 -60 -185t-56 -164q-28 -78 -55.5 -145t-59.5 -123q-35 -62 -74 -98.5t-79 -53t-80 -16.5t-76 10q-33 9 -61 27t-49.5 40.5t-36 49t-20.5 53.5q-3 15 3.5 34.5t18.5 38.5t28 34.5t31.5 23.5t29 5.5t20.5 -20.5q18 -45 44.5 -73t55.5 -40t56.5 -7t45.5 28
q49 61 82 134.5t57.5 152.5t44 158.5t43.5 152.5q6 18 16.5 40t23.5 40.5t28.5 28.5t30.5 4q28 -12 40.5 -25.5t15 -29.5t-1 -34.5t-6.5 -40.5z" />
    <glyph glyph-name="K" unicode="K" horiz-adv-x="787" 
d="M840 735q-27 -22 -63.5 -47.5t-75 -50t-76 -46.5t-66.5 -37q-30 -16 -50 -30t-36.5 -26.5t-32 -23.5t-36.5 -21q48 -9 94 -21t86 -25.5t69.5 -27.5t44.5 -28q13 -12 23 -29t13.5 -38t-1 -46t-19.5 -53q-8 -16 -28 -49t-44 -69t-48 -68t-40 -46q-22 -20 -43 -22.5
t-35.5 6.5t-19.5 26.5t7 38.5q8 14 22.5 38.5t26.5 51t17 49.5t-7 34q-28 25 -73.5 40.5t-94.5 23.5t-95 8.5t-75 -5.5q-17 -21 -31.5 -61t-29.5 -85t-32.5 -89t-40.5 -72q-16 -19 -35 -15.5t-34.5 20t-24 41t-3.5 47.5q7 31 18 59.5t24 57t26 56.5t24 58q26 68 60 144
t66 148q32 73 56 134.5t32 101.5q4 21 18.5 28.5t32.5 3.5t35.5 -18.5t28 -36.5t9 -50.5t-20.5 -60.5q-11 -18 -24 -34t-23 -35q55 31 110 63.5t110 63.5t111 60t114 53q21 9 44 2t38 -21.5t17 -34t-19 -35.5z" />
    <glyph glyph-name="L" unicode="L" horiz-adv-x="658" 
d="M536 354q19 17 31.5 11.5t18.5 -25t4.5 -49t-9.5 -61t-23.5 -61t-37.5 -48.5q-34 -30 -66.5 -46t-65 -25t-65.5 -14.5t-68.5 -13.5t-73.5 -21.5t-81 -38.5q-29 -17 -60.5 -9.5t-55.5 28.5t-33.5 51.5t5.5 60.5q38 72 67 134.5t53.5 120.5t45.5 113.5t42.5 112.5
t45.5 117.5t54 129.5q7 16 21 20.5t30 -0.5t31 -17t25.5 -28.5t13 -35.5t-7.5 -37q-49 -91 -81 -163.5t-56 -138.5q-23 -62 -43 -122t-45 -129q30 13 58.5 18t54 7.5t49 5t43.5 10.5q22 8 45.5 25.5t47 38t45.5 41.5t41 38z" />
    <glyph glyph-name="M" unicode="M" horiz-adv-x="1118" 
d="M1151 777q4 -18 3 -48t-6.5 -68t-14.5 -82.5t-20 -91.5q-9 -39 -25 -84.5t-36.5 -91t-44 -88t-46.5 -74.5q-7 -10 -21 -28t-32.5 -39.5t-40 -44t-43.5 -41t-43.5 -30t-38.5 -11.5q-20 0 -21 14t6 26q44 72 87.5 144t73.5 147q29 74 39.5 150.5t-15.5 157.5
q-26 -20 -56 -54.5t-67 -82.5q-43 -57 -92.5 -125.5t-110.5 -143.5q-14 -23 -29.5 -48.5t-31 -48.5t-30.5 -42.5t-28 -30.5q-24 -21 -56 -30t-55 -4.5t-31 23.5t16 52q35 50 59.5 93.5t41 81.5t25.5 72.5t14 66.5q8 59 5.5 112.5t-3.5 112.5q-52 -42 -103.5 -93.5
t-96 -105.5t-78 -106.5t-49.5 -97.5q-11 -30 -16 -51.5t-12.5 -41.5t-19.5 -42.5t-36 -54.5q-25 -32 -53.5 -37t-49 9t-27 42t13.5 61q17 28 32.5 60t32.5 67q29 60 48 104.5t33.5 82t26.5 71.5t27 73q8 22 12.5 40.5t7.5 36t5.5 35t5.5 37.5q3 22 12 47q7 18 14 37t19 36
q19 27 39.5 30.5t38.5 -5.5t32 -25t20 -28q8 -13 8.5 -29.5t-7.5 -37.5q-12 -32 -22 -55t-20 -47q42 41 82 79t72 67.5t54.5 48t29.5 21.5q12 5 30.5 8.5t36 3t31 -5.5t16.5 -18q11 -47 15.5 -87t3 -79.5t-8.5 -81.5t-17 -93q49 63 81.5 105.5t57.5 71.5q16 19 30.5 34.5
t29 29.5t30 27t34.5 27q33 25 67.5 47.5t65 30t54 -6.5t35.5 -62z" />
    <glyph glyph-name="N" unicode="N" horiz-adv-x="759" 
d="M785 481q-15 -39 -24 -72t-20 -65q-17 -50 -37.5 -85.5t-45.5 -67t-55 -64t-66 -74.5q-19 -22 -49.5 -51t-61.5 -50q-21 -15 -39.5 -23.5t-32 -8.5t-22 9t-8.5 30q-1 37 10.5 59t29 37.5t38.5 30.5t40 39q27 34 45 59.5t29.5 45.5t17.5 37t11 34.5t10 38t14 47.5
q6 20 14.5 54.5t12 69t-0.5 62.5t-22 35q-11 4 -32 -4t-46 -22.5t-52 -33t-49 -33.5q-21 -14 -45 -35.5t-49 -46t-49.5 -50t-45.5 -49.5q-30 -65 -62 -138.5t-60 -140.5q-7 -17 -22 -33t-33.5 -29t-38 -22t-34.5 -10t-23 6.5t-4 26.5q11 55 23 88t27 62t33.5 63.5t41.5 91.5
q5 14 14.5 40t20.5 58t22.5 67t21.5 67t18 58.5t11 40.5q12 53 34.5 86t52.5 48q20 10 35 10.5t26.5 -5t20 -14.5t16.5 -19q10 -14 11.5 -28t-2.5 -29.5t-12.5 -32t-18.5 -35.5q42 31 80.5 57t56.5 35q22 11 49 29.5t56.5 37.5t59.5 36t57 25t50 4.5t38 -24.5
q16 -24 25.5 -66t11 -90t-4 -94.5t-18.5 -79.5z" />
    <glyph glyph-name="O" unicode="O" horiz-adv-x="1001" 
d="M1005 573q-3 -59 -20.5 -111t-46.5 -99.5t-68 -91.5t-86 -87q-29 -26 -71.5 -57.5t-92 -61t-102.5 -52t-102 -30.5q-42 -7 -90 -9t-95.5 3.5t-91 20t-76 39.5t-51 62.5t-15.5 88.5q2 49 16.5 101t40.5 103t62.5 99.5t83.5 91.5q68 62 131 104t126 69.5t127.5 43.5
t135.5 26q59 9 112 -9.5t92.5 -55.5t61.5 -86.5t19 -101.5zM834 512q6 42 -2 69.5t-26.5 43.5t-45 22t-57.5 6t-63.5 -4.5t-62.5 -9.5q-65 -11 -130.5 -49t-121.5 -85q-32 -26 -61.5 -62.5t-50.5 -75t-31 -74t-2 -59.5q13 -42 46.5 -64t79.5 -27t100.5 5.5t111 33.5
t110 57.5t96.5 77t72.5 92t37.5 103.5z" />
    <glyph glyph-name="P" unicode="P" horiz-adv-x="781" 
d="M871 690q-11 -64 -49.5 -117.5t-95 -98.5t-126 -82.5t-142 -67.5t-144 -54.5t-131.5 -43.5q-15 -26 -27 -58t-22 -66q-11 -36 -19.5 -68.5t-16.5 -53.5q-7 -18 -21 -23t-30.5 0t-33 18t-28.5 30t-17.5 36.5t0.5 38.5q14 46 27 77t25 55.5t24 48.5t25 57q23 60 38 105.5
t27.5 84.5t24 73.5t28.5 71.5q-31 26 -27 58t33 62q22 23 56 35t69 16.5t67.5 4t51.5 -1.5q30 -2 66 -3t73.5 -3t74 -5t68.5 -9q36 -7 65.5 -17.5t50 -25.5t30.5 -33.5t6 -40.5zM666 630q-29 17 -60.5 24t-76.5 7q-43 0 -87 -4t-87 -6q-20 -23 -35 -49.5t-27 -55t-21.5 -58
t-17.5 -57.5q42 6 87 19t89 30.5t86 38t78 42.5q2 1 16 10.5t29 21t24.5 22.5t2.5 15z" />
    <glyph glyph-name="Q" unicode="Q" horiz-adv-x="1014" 
d="M1025 624q-1 -36 -16 -87.5t-44 -109t-73.5 -118.5t-104.5 -116q6 -12 15 -22.5t18.5 -21t18 -22t13.5 -26.5q4 -11 8 -21t1 -22q-2 -9 -12.5 -20.5t-37.5 -28.5q-25 -10 -49 -6t-46 16t-42 28.5t-37 32.5q-51 -29 -110 -53.5t-119 -39.5t-119 -19.5t-110.5 6t-92.5 38.5
t-66 76q-21 40 -23.5 85.5t8.5 92.5t33.5 94t52 91t63 83t67.5 70q52 48 102 80.5t102 55t109 37.5t125 29q64 13 130 9.5t119 -25t86 -62.5t31 -104zM847 591q-11 32 -37.5 49.5t-61.5 23.5t-76 2.5t-82 -13t-78.5 -22.5t-66.5 -27q-45 -22 -94.5 -59.5t-91.5 -81t-71 -88
t-34 -79.5q-8 -50 16 -86.5t72 -52t117.5 -7t152.5 49.5q-18 24 -40 44.5t-44 40.5q-4 24 4.5 48t24.5 44t37 34.5t41.5 20t38 0.5t27.5 -24q6 -12 19.5 -25t29.5 -26t32 -25.5t27 -23.5q62 42 93.5 85.5t43 82t9.5 69t-8 46.5z" />
    <glyph glyph-name="R" unicode="R" horiz-adv-x="789" 
d="M811 755q22 -11 27 -34t-0.5 -48.5t-18 -48.5t-25.5 -34q-45 -39 -83 -67t-76 -50.5t-79.5 -44t-92.5 -47.5q21 -6 53 -11.5t67.5 -16.5t70 -31t60.5 -56q11 -15 9.5 -37.5t-10.5 -50t-24.5 -57.5t-33.5 -59t-37 -54.5t-34 -44.5q-18 -22 -36.5 -21.5t-32 12.5t-19.5 30
t0 31q19 43 26 74t0.5 53.5t-26.5 37t-53 24.5q-3 1 -20 4.5t-41.5 8t-53 9.5t-54 9.5t-44 6.5t-24.5 2q-8 -11 -22 -43t-30 -76q-17 -45 -32.5 -87.5t-24.5 -63.5q-12 -28 -34 -28.5t-43 15.5t-34 42.5t-5 52.5q10 32 22.5 59.5t23.5 52.5q11 23 15.5 36t5 23.5t-2.5 21.5
t-7 30q-15 60 31 102q7 7 16.5 14t25.5 21q14 32 24.5 58t19.5 50.5t17 52t18 62.5q-24 16 -30 41.5t3 51t30 45t51 22.5q102 11 184 15t150.5 -1t125 -19t107.5 -39zM627 631q-8 22 -41 28.5t-76 4t-88.5 -11t-78.5 -16.5q-52 -103 -61 -177q33 12 72 26.5t78.5 30.5
t76 32.5t64 32t42.5 28.5t12 22z" />
    <glyph glyph-name="S" unicode="S" horiz-adv-x="834" 
d="M830 652q-12 -16 -24 -17.5t-26 6t-30 19.5t-35 23t-41.5 16.5t-49.5 -0.5q-35 -8 -78 -25t-88.5 -40t-90.5 -52.5t-84 -62.5q49 15 95.5 22t92.5 10t91 2.5t90 -0.5q15 0 43.5 -8t56.5 -21t49.5 -29.5t21.5 -34.5q0 -17 -5 -42.5t-18.5 -55t-37 -60.5t-58.5 -60
q-81 -67 -146 -116.5t-129.5 -81t-136.5 -45.5t-166 -11q-32 1 -57.5 18.5t-41.5 42t-21.5 51.5t3 47.5t31.5 29.5t64 -2q58 -17 112.5 -16t104 11.5t93 28t79.5 35.5q22 10 45 29t42.5 39.5t33 37.5t16.5 25q6 16 -4.5 25.5t-32.5 14t-53.5 5t-66.5 -2.5q-40 -3 -83 -12
t-84.5 -23.5t-79 -34.5t-66.5 -46q-24 -21 -51.5 -19.5t-50 13.5t-37.5 29.5t-15 28.5q-1 26 16 59t44.5 67.5t62.5 69t71.5 66t70.5 56.5t60 41q70 43 129.5 75.5t115 51.5t110.5 23t116 -9q26 -6 39 -29t15.5 -52t-5 -59.5t-21.5 -50.5z" />
    <glyph glyph-name="T" unicode="T" horiz-adv-x="748" 
d="M844 807q26 -2 36.5 -22.5t6.5 -45.5t-22 -47t-49 -28q-67 -11 -136.5 -15t-131.5 -5q-30 -17 -64.5 -39t-72.5 -56q-31 -28 -52.5 -45.5t-40.5 -34.5t-37.5 -39t-43.5 -58q-9 -12 -19.5 -35.5t-18 -49.5t-10 -51t5.5 -40q10 -23 34 -33t53.5 -10.5t60.5 7t56 18.5
q14 6 31.5 16t35.5 21t35 22t30 21t26.5 20t27.5 18t28.5 12.5t29.5 1.5q14 -3 17.5 -15.5t-4 -32t-27 -45t-50.5 -54.5q-20 -18 -47 -43.5t-62.5 -51t-80 -48t-98.5 -33.5q-35 -7 -77.5 -13t-81.5 -2.5t-69.5 21t-41.5 57.5q-21 77 -6 151.5t56 146t104 140.5t138 137
q-18 -5 -39.5 -14t-43.5 -17t-43 -12t-36 1q-12 3 -22 25.5t-11 50.5t9.5 55t39.5 40q41 18 79 27t75 13t73.5 5.5t75.5 5.5q61 7 106 9.5t86 2t83.5 -3t98.5 -6.5z" />
    <glyph glyph-name="U" unicode="U" horiz-adv-x="696" 
d="M758 697q-23 -53 -37 -86t-26.5 -63.5t-28 -67.5t-40.5 -99q-11 -27 -27 -63.5t-31 -74.5q-14 -38 -23 -72t-7 -60q1 -11 2.5 -18.5t2.5 -15.5t0 -17.5t-6 -22.5q-6 -15 -16.5 -32t-25.5 -31t-35 -23.5t-45 -9.5q-21 0 -31.5 16t-14 39.5t-2 50t4.5 46.5
q-23 -14 -51.5 -34t-58.5 -40t-61 -36.5t-58 -23.5q-43 -12 -83.5 -13t-69.5 11t-41.5 38.5t2.5 68.5q27 77 59 165t66 178.5t68.5 179.5t64.5 169q7 19 23 27.5t35 8t37.5 -9t31 -24t16 -37t-8.5 -47.5q-14 -30 -26.5 -55.5t-26 -52t-27.5 -55t-29 -64.5
q-31 -73 -55 -136.5t-34 -107.5q-5 -23 -3.5 -35t11.5 -15t29.5 2.5t50.5 17.5q43 17 80.5 41t67.5 51t51 54.5t32 51.5q25 57 49 116.5t45.5 116t39.5 108t32 93.5q5 16 20 22t33 2.5t36.5 -14.5t31 -28.5t15.5 -40.5t-8 -49z" />
    <glyph glyph-name="V" unicode="V" horiz-adv-x="707" 
d="M808 695q-41 -99 -93.5 -180.5t-115.5 -157.5q-63 -75 -135.5 -150t-156.5 -162q-21 -21 -52 -42.5t-60.5 -33.5t-52 -10.5t-27.5 24.5q-10 49 -18 91.5t-13.5 81.5t-9 76.5t-3.5 77.5q-1 46 -3 79t-0.5 64t9.5 66.5t26 88.5q18 54 46.5 100t57.5 76q12 13 29 25.5
t33 17.5t28.5 0t17.5 -27q6 -27 -2.5 -55.5t-21.5 -57t-24.5 -56.5t-12.5 -55q-2 -42 1 -91t10.5 -97t19 -91.5t27.5 -76.5q31 28 66.5 65t69.5 77.5t64 80t50 71.5q43 69 74.5 136t47.5 134q5 20 20 31.5t34 14t38 -4t31 -23t14 -43.5t-13 -64z" />
    <glyph glyph-name="W" unicode="W" horiz-adv-x="1067" 
d="M1113 624q-20 -56 -50 -122t-82 -145t-132.5 -173t-200.5 -205q-12 -11 -32 -17.5t-39.5 -6.5t-35 7t-18.5 22q-7 30 -14.5 52t-14.5 39.5t-14 32t-13 28.5q-11 26 -18.5 55.5t-10.5 78.5q-25 -22 -44.5 -38t-37.5 -31.5t-37 -34t-42 -45.5q-25 -28 -46.5 -57.5
t-50.5 -55.5q-32 -29 -71 -40t-88 10q-12 100 -8 208.5t27 207.5q11 47 33.5 107.5t56 120t79.5 112t103 84.5q17 10 35 16t32 3q11 -3 14 -9.5t1.5 -15t-7 -17t-10.5 -14.5q-20 -24 -38.5 -53.5t-34 -59.5t-28 -59.5t-21.5 -53.5q-32 -90 -44 -162.5t7 -136.5
q60 51 117 97.5t107 106.5q7 39 20.5 78.5t28.5 74.5t31 62t29 41q36 37 75 62t68 31q22 4 33.5 -1.5t13.5 -18t-4 -30.5t-18 -37q-48 -76 -70 -132t-24 -109q-3 -58 12 -125.5t37 -131.5q43 36 79 79t65.5 89t54 91.5t45.5 87.5q15 29 22 63t10.5 68t6.5 64.5t10 52.5
t20.5 31.5t38.5 2.5q55 -17 79.5 -44.5t29.5 -59.5t-3.5 -64.5t-18.5 -60.5z" />
    <glyph glyph-name="X" unicode="X" horiz-adv-x="780" 
d="M779 712q-42 -41 -79 -75t-75 -71q-37 -35 -75.5 -76t-85.5 -95q19 -40 39.5 -73t42.5 -63.5t45.5 -61.5t48.5 -66q12 -34 -4 -60.5t-42.5 -42.5t-56 -20.5t-45.5 4.5q-45 46 -77.5 92t-69.5 96q-7 9 -15 18.5t-16 19.5q-37 -33 -74.5 -69t-73.5 -72.5t-70.5 -71
t-64.5 -63.5q-24 -23 -45 -15.5t-32 30.5t-8.5 54t24.5 54q65 67 130.5 132t123.5 139q-13 38 -30 74.5t-34 72.5t-31 73t-21 78q-6 33 12 63t49 59q42 40 73 38t48 -38q11 -25 13.5 -51t10.5 -51q8 -23 15.5 -43t15.5 -39t19 -37t27 -37q41 39 77 78t72 76.5t75 74.5t86 72
q17 17 41 12t41 -23t19.5 -44.5t-23.5 -51.5z" />
    <glyph glyph-name="Y" unicode="Y" horiz-adv-x="825" 
d="M907 792q-7 -19 -19.5 -36.5t-25.5 -34t-25.5 -33t-19.5 -34.5q-5 -12 -9 -30.5t-7.5 -38t-5.5 -37.5t-2 -28q2 -62 -12 -121.5t-42 -133.5q-9 -23 -23.5 -50.5t-34.5 -55t-45 -52.5t-55 -43q-50 -29 -87.5 -50.5t-74 -35.5t-76.5 -21t-94 -7q-14 0 -33.5 0.5t-43.5 6
t-52 17t-58 33.5q-14 10 -22 29t-11 41t-1 44t9 38.5t19 24t28 0.5q22 -9 42.5 -19.5t42.5 -19.5t45.5 -15t51.5 -6q40 0 76 4.5t69 14.5t63.5 26.5t59.5 41.5q34 29 48 58.5t22 66.5q-35 0 -77 -6.5t-85.5 -18t-86 -26.5t-78.5 -31q-49 -21 -81 -27.5t-43 5.5
q-28 30 -37 68.5t-6 79.5t15.5 81.5t28.5 76.5t32 63.5t27 42.5q29 41 59 82t67 79q19 18 40.5 27.5t39 8.5t28 -12t7.5 -32.5t-22.5 -54.5t-62.5 -77q-23 -24 -45 -62t-35.5 -74t-13.5 -61.5t21 -23.5q15 1 35 3.5t42 6t43 8t36 10.5q39 15 80.5 27.5t81.5 15.5q2 31 8 62
t18 62q7 19 20 40t28 42t31.5 39.5t31.5 32.5q11 11 29 21t38 16.5t39.5 9.5t33 -1t19 -15t-2.5 -32z" />
    <glyph glyph-name="Z" unicode="Z" horiz-adv-x="793" 
d="M880 736q-2 -20 -11.5 -42t-29.5 -34q-36 -22 -69.5 -42t-69.5 -45t-78 -58t-96 -82q-37 -34 -76.5 -65t-79.5 -61t-79.5 -60t-77.5 -63q49 5 94.5 11.5t91.5 15t95 20t105 26.5q20 5 34 -3t22 -24t9 -36.5t-3.5 -40t-15 -34.5t-27.5 -20q-68 -20 -138 -41t-141 -39
t-143 -30.5t-143 -15.5q-19 0 -33.5 7t-24.5 18.5t-16.5 25.5t-10.5 26q-14 46 -9 77t23 53.5t46.5 40t61.5 37.5l463 371q-19 4 -38 3t-39 -1q-38 0 -56 -2.5t-34 -7.5q-18 -5 -45.5 -12t-82.5 -16q-18 -3 -31 9.5t-21.5 32.5t-11.5 44.5t-0.5 46.5t11 37.5t23.5 18.5
q102 17 182 23t152 5q70 0 135.5 -5t137.5 -11q21 2 34 -14.5t11 -43.5z" />
    <glyph glyph-name="bracketleft" unicode="[" horiz-adv-x="404" 
d="M369 -3q-60 -30 -98 -42t-65.5 -15.5t-49 -3t-48.5 -4.5q-20 -4 -32 10t-16 35t0.5 42.5t16.5 32.5q5 38 7 89.5t2 109.5t-2 120t-4 122t-3 115t0 99q-8 18 -12 40t0 42t16.5 34t37.5 15q32 2 59 4.5t52 4t48.5 1.5t48.5 -3q16 -3 22.5 -20t6 -36t-8.5 -34.5t-20 -13.5
q-26 3 -60 1.5t-77 -12.5q-7 -79 -7 -165t1.5 -172t1.5 -169t-7 -156q15 -1 32.5 3t38.5 10t45 12.5t53 9.5q16 2 26.5 -11.5t14 -32.5t-1 -37t-18.5 -25z" />
    <glyph glyph-name="backslash" unicode="\" horiz-adv-x="531" 
d="M499 59q-60 -30 -115.5 -49t-111 -28.5t-112.5 -10.5t-119 7q-12 1 -19 16.5t-6.5 35.5t9 39t26.5 28q22 11 41 12.5t37.5 0t37 -2t40.5 7.5q8 57 8 123.5t-3 136.5t-7 140.5t-2 136.5q-20 2 -36 0t-31 -6t-32 -9t-39 -8q-24 -3 -30 15.5t0 43.5t21.5 48t35.5 29
q21 6 38.5 9t34.5 4.5t36 2.5t44 3q32 1 59 4t52 4.5t48.5 1.5t48.5 -4q16 -2 22.5 -19t6 -36t-8.5 -34.5t-20 -13.5q-26 3 -60 1t-77 -13q-7 -79 -6 -146.5t3 -131.5t2.5 -129t-6.5 -138q15 -1 32.5 3t38.5 10t45 12.5t53 9.5q16 2 26.5 -11.5t14 -32.5t-1 -37t-18.5 -25z
" />
    <glyph glyph-name="bracketright" unicode="]" horiz-adv-x="371" 
d="M327 -15q-51 -21 -120 -29t-139 -13q-12 -1 -24.5 16.5t-18.5 38.5t-2 39.5t25 20.5q38 3 75 3t81 15q5 38 7.5 88.5t2.5 108t-1.5 119t-3 120.5t-2 113.5t0.5 98.5q-20 2 -36 0t-31 -6t-32 -9t-39 -8q-24 -3 -30.5 15.5t-0.5 43.5t22 48t36 28q21 6 38 9.5t34.5 5.5
t36.5 3t44 2q30 0 50 -11t29 -27.5t7.5 -35.5t-15.5 -35q-7 -79 -7.5 -163.5t0.5 -169.5t0 -167.5t-8 -155.5q16 -1 27 -15.5t14.5 -32.5t-1 -35t-19.5 -23z" />
    <glyph glyph-name="asciicircum" unicode="^" horiz-adv-x="538" 
d="M433 681q29 -11 41.5 -25t12.5 -28.5t-9.5 -27t-23.5 -21.5t-31 -12.5t-31 1.5q-14 4 -33 14t-39 21.5t-38 23t-31 19.5q-4 -6 -20 -21t-34.5 -30.5t-35 -29.5t-22.5 -19q-14 -12 -32.5 -9.5t-33 13.5t-19 27t9.5 30q27 27 61 51t59 53q22 25 39 38.5t46 14.5
q13 0 22.5 -3t18.5 -8t18 -11.5t20 -13.5q25 -15 41.5 -25.5t43.5 -21.5z" />
    <glyph glyph-name="underscore" unicode="_" horiz-adv-x="794" 
d="M785 -49q-11 -31 -28 -52t-37 -33t-42.5 -16.5t-44.5 -1.5q-71 8 -144.5 4t-147 -10.5t-146 -10t-140.5 4.5q-35 4 -44.5 24t-3.5 43t23 42t36 20l556 -15q8 0 25.5 4.5t37.5 10.5t40.5 11t35.5 5t22.5 -6.5t1.5 -23.5z" />
    <glyph glyph-name="grave" unicode="`" horiz-adv-x="435" 
d="M385 557q-37 5 -62.5 11.5t-49 14.5t-49.5 17t-63 19q-17 5 -46.5 15.5t-53.5 26.5q-21 13 -31 40t-9 52t14 41t39 8q41 -22 76.5 -42.5t71 -39t73.5 -34.5t83 -30q16 -5 28.5 -21t15.5 -33.5t-5 -31t-32 -13.5z" />
    <glyph glyph-name="a" unicode="a" horiz-adv-x="726" 
d="M703 131q18 -26 18.5 -53t-11.5 -48.5t-33 -33.5t-46 -9q-16 2 -28 17t-20.5 35t-13.5 42t-8 38q-38 -22 -79.5 -47.5t-85 -46t-87.5 -32t-87 -3.5q-56 10 -92 30t-57 46.5t-29.5 58t-8.5 65.5q0 39 8 69t21 54.5t29.5 44.5t34.5 39q19 20 48.5 42t63 42t67.5 35.5
t62 22.5q16 4 27.5 6.5t21 4t18.5 2.5t20 3q-5 9 -7.5 17t-5.5 16.5t-7.5 17.5t-13.5 21q-20 23 -58 27.5t-100 -15.5q-19 -6 -31.5 -18.5t-23 -24t-22 -18.5t-27.5 -2q-16 4 -22 20.5t-6 37.5t5 44t11 41q11 31 42 47.5t72.5 20t89.5 -5t94 -28.5q25 -11 45 -23.5t36.5 -34
t30 -56t27.5 -89.5q12 -48 17 -98.5t15 -103t28.5 -107.5t57.5 -110zM523 270q-4 14 -7.5 33t-7.5 39.5t-8 40.5t-10 37q-44 -2 -79 -9.5t-63.5 -18.5t-52 -24.5t-44.5 -26.5q-15 -10 -37.5 -28t-42.5 -41t-31.5 -49t-3.5 -51q7 -22 33 -31t88 -7q23 1 47.5 8t49.5 17.5
t48.5 22.5t43.5 23q23 11 39.5 27.5z" />
    <glyph glyph-name="b" unicode="b" horiz-adv-x="693" 
d="M666 385q13 -64 -7 -119t-60 -101.5t-94.5 -83.5t-110.5 -65q-32 -16 -76 -24.5t-90.5 -9.5t-90.5 6t-76 22q-7 85 -4.5 155.5t6.5 141t4 148t-11 175.5q-15 0 -23.5 18t-7 41.5t14.5 46t42 31.5q72 22 137.5 32.5t125 13t112.5 -2t99 -13.5q23 -4 39 -21t23.5 -39.5
t7 -48t-10.5 -46.5q-15 -33 -30 -49t-30 -27l-30 -22t-31 -33q24 -12 52.5 -24t53 -26.5t43 -33t23.5 -42.5zM490 630q14 20 1 34t-42.5 21.5t-70 9t-82.5 -2.5t-79.5 -13t-60.5 -23q-4 -21 -5 -47.5t0 -54t3.5 -53t5.5 -43.5q39 9 86.5 24.5t94 37t86 49t63.5 61.5z
M521 236q18 26 18 49t-11.5 42.5t-32 34.5t-42.5 26t-43 17t-34 7q-33 -16 -59.5 -28.5t-51.5 -24t-50 -22.5t-55 -25q-6 -55 -6.5 -104t7.5 -97q39 -4 91.5 3t104.5 23t96.5 41t67.5 58z" />
    <glyph glyph-name="c" unicode="c" horiz-adv-x="772" 
d="M728 141q-64 -62 -148.5 -99t-172 -49t-169.5 1.5t-140 54.5q-34 24 -48 62t-15 82t7.5 89.5t19.5 84.5q21 70 54 138t75.5 126.5t94 104t109.5 71.5q31 14 67.5 16.5t71.5 -4.5t65 -21.5t49 -34.5q18 -19 24.5 -42t5 -45t-9 -41.5t-18 -31.5t-22 -14.5t-19.5 8.5
q-19 24 -48.5 41.5t-61 27t-62 10.5t-51.5 -8q-50 -21 -85 -60t-61 -88t-47 -104t-42 -108q-12 -30 -8.5 -53t16.5 -40.5t32.5 -30t40.5 -21.5q56 -24 118.5 -22t126 21t125 49.5t116.5 63.5q15 9 23.5 -6t9.5 -39.5t-5 -50.5t-18 -38z" />
    <glyph glyph-name="d" unicode="d" horiz-adv-x="759" 
d="M728 673q-5 -107 -42 -201.5t-96.5 -174t-137.5 -143t-166 -107.5q-31 -15 -62 -37.5t-61.5 -36t-60.5 -10t-59 39.5q7 85 12 160.5t6.5 149.5t-1 152t-9.5 169q-22 9 -28 32.5t1 48t25.5 45t45.5 25.5q44 8 102.5 14t119 9.5t118 4t99.5 -3.5q29 -3 63.5 -12.5t64 -26.5
t48.5 -41t18 -56zM592 615q-9 21 -34.5 35t-62.5 22t-80.5 10t-88 -2t-86 -13.5t-72.5 -24.5q-2 -53 -6.5 -115.5t-5 -127t6.5 -127t29 -115.5q45 2 81.5 19t69 42t62.5 55.5t63 59.5q28 25 54.5 63t45.5 78.5t26.5 78.5t-2.5 62z" />
    <glyph glyph-name="e" unicode="e" horiz-adv-x="711" 
d="M666 471q-8 -27 -15 -41.5t-15 -21.5t-18.5 -8.5t-24.5 -2.5q-51 -4 -117 -9.5t-131.5 -13.5t-121.5 -19t-87 -26q-15 -16 -18.5 -46.5t3 -61.5t22.5 -56t41 -29q26 -5 65.5 -3.5t84.5 9t91.5 22t86.5 36.5q16 9 26 24t20 28.5t22 22t33 5.5q18 -3 25.5 -26.5t6.5 -52.5
t-9.5 -55t-22.5 -35q-35 -21 -61 -35t-48.5 -23.5t-45 -16.5t-49.5 -14.5t-62.5 -16.5t-83.5 -23q-36 -10 -75.5 -6t-73.5 22t-58.5 50t-29.5 79q-3 30 -5.5 62.5t-1 70t7 81t18.5 96.5q9 38 20.5 69t26.5 61t35.5 62t49.5 72q24 32 57.5 55t71 37t76 19.5t73 3.5
t61.5 -11.5t41 -24.5q6 -7 12.5 -21.5t11.5 -31.5t7.5 -35t0.5 -30t-9.5 -17t-22.5 4q-73 41 -130.5 37t-117.5 -44q-18 -12 -41.5 -30t-44.5 -39.5t-35.5 -44.5t-14.5 -45q36 1 86.5 6.5t105.5 12.5t110 12.5t100 6.5q18 0 37 1t33 -2.5t20.5 -14.5t0.5 -34z" />
    <glyph glyph-name="f" unicode="f" horiz-adv-x="686" 
d="M647 524q21 0 24 -21t-5 -46t-23.5 -46t-30.5 -22q-28 -2 -49.5 0t-45.5 3t-56 0.5t-81 -6.5q-48 -6 -97.5 -15.5t-97.5 -38.5q-7 -28 -7.5 -63t1 -72t3 -72t-2.5 -63q-3 -24 -5.5 -37t-7 -19t-11.5 -8t-20 -5q-24 -6 -37 -1t-18 17t-4 29t4 35t6.5 35.5t4.5 29.5
q2 48 2.5 93t-2.5 101q-12 16 -18 35.5t-6.5 39t4.5 38t14 31.5q1 24 5 64.5t19.5 85t45.5 87t84 71.5q48 25 94.5 30t92 3.5t89.5 -1.5t86 15q19 7 25 -12.5t-0.5 -47.5t-24 -54.5t-45.5 -33.5q-39 -9 -76.5 -7.5t-73.5 3.5t-69.5 0.5t-64.5 -16.5q-49 -25 -71 -70t-19 -99
q114 20 226.5 26.5t238.5 3.5z" />
    <glyph glyph-name="g" unicode="g" horiz-adv-x="796" 
d="M751 471q5 -41 3.5 -83.5t-5 -85t-8.5 -84.5t-6 -84q-2 -50 -9.5 -90t-34.5 -77q-6 -9 -21.5 -23.5t-30 -23.5t-24 -6t-4.5 30q2 10 7 36t9 55t6 57t-1 43q-31 -22 -69.5 -45.5t-80.5 -44t-87 -35.5t-89.5 -21t-87.5 -0.5t-81 26.5q-50 27 -76 66t-35 84.5t-2.5 95.5
t22.5 101q24 77 67.5 148.5t101.5 130t127.5 100.5t146.5 61q19 4 42.5 4t46 -4.5t42 -13.5t29.5 -21q9 -12 11.5 -34.5t-1 -44.5t-12.5 -38t-22 -15q-17 1 -35.5 9t-39.5 15.5t-44 11t-48 -3.5q-33 -10 -66 -21t-65 -33q-30 -21 -60.5 -56.5t-56 -77.5t-43.5 -86t-25 -83
q-6 -34 -3.5 -65.5t16 -56.5t39 -41.5t65.5 -21.5q66 -8 117.5 3.5t93.5 34t75 51.5t62 57q9 9 15 25.5t9 35t4 35.5t-1 26q-24 8 -56.5 0t-67.5 -23.5t-70 -34.5t-65 -33q-17 -8 -29.5 3t-19.5 29t-6.5 36.5t10.5 26.5q33 27 67 49t72.5 40t83.5 30.5t99 20.5q14 2 30 2.5
t30.5 -5.5t25 -20.5t13.5 -42.5z" />
    <glyph glyph-name="h" unicode="h" horiz-adv-x="692" 
d="M639 533q11 -77 10 -146t-9 -130t-21 -114.5t-26 -98.5q-9 -31 -25.5 -54t-35.5 -37t-38 -19.5t-32 -0.5q-19 6 -23.5 18.5t-1 28t13.5 34t21 37t20.5 36.5t12.5 33q5 31 12 67t11.5 71.5t5.5 68.5t-5.5 58t-21.5 39t-42 11q-38 -4 -78 -19.5t-78 -39.5t-73 -54.5
t-63 -63.5q-20 -24 -23.5 -45.5t0.5 -42t11 -39t9 -34.5q1 -13 0.5 -31.5t-6 -36.5t-17.5 -32.5t-34 -18.5q-34 -7 -50 4t-20 37v111t-0.5 83t0 65t1.5 57t3 58.5t5 70.5q5 60 18.5 113.5t36.5 102.5l18.5 37t21.5 36t28 30.5t37 21.5q4 2 23.5 6.5t46 10t56.5 11.5t56.5 11
t45.5 8.5t24 3.5h19.5t19.5 -2t15 -6.5t6 -13.5q0 -4 -12 -24t-27.5 -42.5t-29 -41t-16.5 -20.5q-20 -11 -40 -16t-39.5 -7.5t-38 -4.5t-36.5 -7q-17 -5 -41.5 -20.5t-47 -45t-37 -74.5t-12.5 -109q39 40 86.5 71.5t96 53.5t95 35t85.5 16q20 1 42 -1.5t40.5 -10.5t31 -21
t15.5 -32z" />
    <glyph glyph-name="i" unicode="i" horiz-adv-x="265" 
d="M186 606q-7 -117 -4 -247.5t-1 -276.5q0 -14 -1 -28t-5.5 -27t-14.5 -24.5t-30 -20.5q-21 -10 -32.5 1.5t-16 36.5t-4 58.5t3.5 67.5t6 65.5t4 50.5q3 65 2 124t-2.5 114t-3.5 106t-1 99q0 13 -0.5 32t2 36.5t9.5 28.5t21 8q39 -9 55.5 -30t20 -49.5t-1 -61t-6.5 -63.5z
" />
    <glyph glyph-name="j" unicode="j" horiz-adv-x="554" 
d="M499 768q4 -96 6.5 -189t2 -177.5t-5 -157t-14.5 -126.5q-12 -59 -36 -93t-56 -49.5t-68.5 -15t-72.5 9.5q-69 17 -126.5 51.5t-86.5 83.5q-9 16 -7 42t10.5 48t22 34t26.5 -1q34 -33 76.5 -63.5t82.5 -48t72.5 -16.5t46.5 31q28 62 34 139.5t1.5 159t-13.5 161
t-11 145.5q0 15 1 33.5t6 34.5t14 24.5t24 3.5q27 -9 38.5 -17.5t16.5 -16.5t7 -15.5t9 -14.5z" />
    <glyph glyph-name="k" unicode="k" horiz-adv-x="714" 
d="M675 163q-4 -12 -13 -37t-23.5 -55t-33.5 -61.5t-43 -58.5q-8 -9 -25.5 -10.5t-32 5.5t-20 22.5t11.5 41.5q22 35 37.5 67t20.5 57.5t-0.5 44t-24.5 26.5q-30 12 -70.5 25.5t-87 21.5t-97 7.5t-100.5 -16.5q-13 -15 -14 -47t1 -70t1.5 -77t-11.5 -68q-5 -11 -18.5 -23
t-29 -19t-28 -6t-14.5 18q-6 41 -6 70.5t2 61t5.5 70.5t4.5 99q1 67 5.5 131t7.5 122t2.5 109t-10.5 93q-1 3 7 12t20 19t27 19t28 12.5t22.5 -1.5t11.5 -22q3 -25 0 -47t-7 -45.5t-6 -50.5t3 -61q49 33 96 68.5t95 70t97 66.5t103 59q12 6 29 1t31.5 -14.5t21 -22
t-3.5 -22.5q-20 -21 -46 -43t-54.5 -42t-57 -39t-52.5 -34q-26 -17 -43 -29.5t-30 -24t-23.5 -22l-22.5 -22.5t-27.5 -26.5t-38.5 -33.5q45 -4 96 -7t102 -10.5t99.5 -21.5t87.5 -39q19 -12 31 -33t16.5 -46.5t2 -54t-11.5 -57.5z" />
    <glyph glyph-name="l" unicode="l" horiz-adv-x="614" 
d="M579 189q-10 -22 -26.5 -42.5t-36.5 -37.5t-41.5 -30.5t-39.5 -22.5q-22 -10 -52 -14t-62 -9t-63 -13t-54 -26q-21 -16 -50 -30t-53 -14.5t-37.5 19.5t-4.5 71q18 100 22.5 187t4.5 172.5t-0.5 174.5t7.5 192q1 15 19 31t39 25.5t38 8t15 -20.5q-17 -174 -19.5 -344.5
t-2.5 -323.5l16 -8q66 13 120 30.5t99 36.5q23 9 41.5 23t34 29.5t28.5 31.5t25 30q13 15 22.5 3t14 -35.5t4 -51t-7.5 -42.5z" />
    <glyph glyph-name="m" unicode="m" horiz-adv-x="1012" 
d="M963 484q6 -38 7 -82t-2 -88.5t-9.5 -86t-16.5 -72.5q-21 -65 -44.5 -104.5t-43 -58t-31.5 -17.5t-9 16q9 44 20 92t18.5 98.5t9 104t-8 109t-32.5 113t-65 116.5q-27 -20 -48 -61.5t-41.5 -98.5t-43 -126t-53.5 -144q-5 -22 -10 -46.5t-11 -47t-12.5 -41t-14.5 -29.5
q-11 -15 -30.5 -22.5t-37.5 -5.5t-29 14t-3 37q31 102 33 180t-13.5 144.5t-41.5 128.5t-50 131q-38 -43 -73.5 -98t-62.5 -114.5t-43 -119.5t-14 -111q1 -23 3.5 -42.5t3.5 -39.5t-2.5 -44t-14.5 -56q-8 -23 -26.5 -25t-36 10t-29 33.5t-6.5 45.5q6 28 8.5 61t6.5 68
q6 60 8 105t2 82.5t-1 72t-1 73.5q0 37 -4.5 64t-10.5 48.5t-10.5 41t-4.5 42.5v33.5t4.5 34t16.5 18.5t36 -14q13 -10 25.5 -19.5t22 -20t15 -24t5.5 -30.5q0 -26 -1 -47t-2 -40.5t-2 -41t-1 -48.5q31 52 61 100.5t55 86t42 61t21 25.5q7 4 19.5 7.5t25.5 4t24.5 -3
t17.5 -13.5q36 -59 56 -106.5t32.5 -93.5t20.5 -95t19 -111q23 62 40 108t30 79.5t23.5 57.5t21 43t22.5 35.5t28 34.5q23 26 44.5 46t43 25.5t43.5 -7.5t45 -52q10 -17 19.5 -45t17.5 -65t15.5 -81t14.5 -92z" />
    <glyph glyph-name="n" unicode="n" horiz-adv-x="711" 
d="M663 491q0 -39 3 -72.5t4.5 -65.5t-1.5 -64.5t-15 -68.5q-5 -14 -15 -35t-20.5 -42.5t-20 -40.5t-14.5 -31q-9 -20 -27 -48t-38 -47.5t-38.5 -23t-28.5 23.5q-12 33 -10 50t12 30.5t24.5 28t25.5 43.5q16 39 27 68t16 52.5t4 45t-10 45.5q-4 10 -7 34.5t-7 55t-10 64
t-15.5 63t-24.5 51.5t-36 30q-14 5 -33 -3t-41 -23.5t-43.5 -34.5t-39.5 -37q-16 -15 -32.5 -38t-32 -48.5t-29.5 -52.5t-25 -51q-6 -65 -10 -140t-6 -144q0 -16 -13.5 -33t-29.5 -28.5t-29 -12.5t-13 15q-17 69 -16 144.5t6.5 156t9 165t-9.5 171.5q-8 51 1 77.5t24.5 36
t33 5.5t27.5 -14q9 -9 18 -17t15.5 -19t8.5 -29t-4 -48q-4 -21 -5.5 -39t-1.5 -34q17 20 36.5 41.5t38.5 40t34.5 33t24.5 20.5q15 10 32.5 27t37 35t40.5 34t41.5 25t40.5 7.5t38 -18.5q23 -23 46 -63t41 -86t29.5 -91t11.5 -76z" />
    <glyph glyph-name="o" unicode="o" horiz-adv-x="922" 
d="M896 599q17 -56 15 -104.5t-18 -92.5t-42.5 -86t-57.5 -84q-19 -26 -52 -64t-74 -75.5t-86.5 -66.5t-88.5 -37q-41 -7 -86 -11t-90 -1.5t-88 12t-79 29t-63 50.5t-41 76q-15 47 -18 100t5 106.5t27.5 103.5t49.5 92q44 61 97 106t111.5 76t122 50.5t129.5 29.5
q52 8 103.5 -5.5t96 -43t78.5 -71t49 -89.5zM777 521q-10 47 -30.5 77.5t-48 47.5t-60 23t-66.5 6t-69 -5t-66 -11q-66 -12 -126 -49.5t-100 -85.5q-23 -26 -37.5 -64.5t-19.5 -80t1 -81.5t26 -70q32 -47 76 -72t94 -31.5t103 2.5t102 30t94.5 58t78 85t47 104.5t1.5 116.5z
" />
    <glyph glyph-name="p" unicode="p" horiz-adv-x="670" 
d="M654 690q-4 -65 -24.5 -118t-54 -96.5t-77.5 -78.5t-94 -64t-104 -53.5t-107 -46.5q-6 -29 -6 -55t3 -50t6.5 -46t3.5 -42q0 -11 -8 -24t-20.5 -25t-27 -21t-27.5 -13t-22.5 -1t-10.5 16q-5 46 -5.5 90t1 85t3 78t0.5 70q-2 62 -6 109t-8 87t-6.5 76t-0.5 76
q-20 9 -25 23.5t-1 31t13 33.5t17 32q10 21 30.5 30t44.5 12t49 1.5t45 -1.5q40 -1 87.5 -3t94.5 -7t90.5 -13t76.5 -20.5t52 -30t18 -41.5zM508 662q-41 19 -79 23t-76.5 0t-78.5 -12t-83 -12q-14 -28 -18.5 -61.5t-4 -68.5t4.5 -69.5t8 -64.5q32 5 70.5 16t92.5 36
q20 9 45 25.5t49.5 37t46 43t33 43t10.5 37.5t-20 27z" />
    <glyph glyph-name="q" unicode="q" horiz-adv-x="920" 
d="M907 104q7 -11 12.5 -19.5t5.5 -17t-6.5 -18t-21.5 -22.5q-20 -9 -46 -2.5t-53 20.5t-51.5 31t-40.5 28q-75 -42 -158.5 -72t-165.5 -35.5t-157 19t-134 91.5q-49 55 -64 115.5t-7 120t34 115.5t60 103q69 94 167.5 148.5t224.5 80.5q60 13 119.5 9t110.5 -24.5t89.5 -58
t56.5 -91.5q12 -35 14 -84t-8 -104.5t-34 -114.5t-65 -114q7 -14 22.5 -26.5t33.5 -25t35 -25.5t27 -27zM749 596q-25 34 -59.5 53.5t-74.5 27.5t-82.5 5.5t-82.5 -11t-75 -21.5t-60 -28q-38 -22 -75 -60.5t-64 -84t-40.5 -92.5t-5.5 -86q14 -65 58 -105.5t105 -54.5
t132.5 0t140.5 59q-32 32 -61 53.5t-61 43.5q-12 24 -4 50t26.5 43t42.5 21t42 -17q13 -15 32.5 -29t41.5 -27t43.5 -26t39.5 -28q36 30 56 61t27.5 61.5t5.5 59.5t-9.5 53.5t-18.5 45t-20 33.5z" />
    <glyph glyph-name="r" unicode="r" horiz-adv-x="734" 
d="M717 270q8 -17 2.5 -54.5t-21 -85t-39 -99.5t-52.5 -98q-9 -15 -25.5 -17t-30 5.5t-20 22.5t3.5 34q12 22 25.5 56t22 68t8 62t-16.5 38q-35 22 -86 37.5t-106.5 23t-108.5 5.5t-92 -16q-5 -20 -4 -47t2.5 -55t1.5 -55t-6 -46q-5 -17 -20.5 -35t-32.5 -29.5t-30.5 -13
t-13.5 14.5q0 30 1 66t1.5 71t-0.5 66.5t-5 51.5q-10 6 -19 17t-11.5 27.5t5 37.5t31.5 46q3 31 2 61.5t-2 61.5t-1.5 63.5t4.5 67.5q-21 15 -24.5 35.5t5.5 40t27.5 36t40.5 23.5q48 16 100.5 21.5t111.5 5.5q44 0 96 1.5t100 -1.5t87 -14t56 -35q27 -39 15 -74
t-43.5 -67.5t-71.5 -62t-70 -56.5q-13 -12 -24.5 -20t-22 -15t-20 -13.5t-19.5 -16.5q12 -2 32 -4.5t42.5 -6t44 -7.5t36.5 -9q45 -16 81.5 -48t52.5 -66zM517 592q34 28 26 44.5t-42 18.5q-12 0 -45.5 0.5t-78 -1.5t-94.5 -7.5t-96 -16.5q-11 -42 -14 -98t8 -118
q95 20 175.5 66t160.5 112z" />
    <glyph glyph-name="s" unicode="s" horiz-adv-x="739" 
d="M716 453q6 -16 10 -39t2 -49.5t-11.5 -55t-30.5 -55.5q-52 -66 -105 -115.5t-113 -82.5t-131 -48.5t-159 -12.5q-35 1 -63.5 31t-42.5 78q-6 19 -1 31t17 18t28 6.5t32 -3.5q64 -17 118.5 -16.5t99.5 11.5t82 29.5t66 36.5q19 12 36 33t29.5 43t19.5 42t7 30q0 24 -26 39
t-67.5 21t-93.5 1.5t-103 -19t-95.5 -40.5t-72.5 -64q-12 -17 -33 -15t-41 13t-36.5 25.5t-19.5 23.5q-13 34 1.5 82t43 96.5t64 91.5t64.5 67q50 42 96.5 71.5t94.5 45.5t99.5 18t111.5 -11q19 -4 35.5 -29.5t25 -55t6 -54.5t-21.5 -29q-26 -5 -47 7.5t-43 26.5t-48.5 22
t-63.5 -6q-36 -14 -75.5 -30.5t-77.5 -41.5t-72.5 -60.5t-62.5 -85.5q48 23 89 35t84.5 17t95 5.5t121.5 0.5q14 0 41.5 -7.5t56.5 -19.5t52 -26t28 -27z" />
    <glyph glyph-name="t" unicode="t" horiz-adv-x="667" 
d="M646 684q-60 -12 -126 -15.5t-124 -4.5q-25 -17 -52.5 -41.5t-53.5 -62.5q-15 -22 -29 -38t-26.5 -34.5t-24.5 -44t-24 -65.5q-5 -15 -4 -43.5t6.5 -60t16 -61.5t24.5 -48q26 -32 59.5 -36.5t71 8t77.5 36.5t80 50q13 9 24 21.5t21 23.5t21.5 18t26.5 4q11 -2 16.5 -6
t6.5 -13.5t-2.5 -26.5t-11.5 -44q-9 -32 -28.5 -62t-48.5 -56t-67 -45.5t-84 -30.5q-32 -7 -68 -12.5t-71 -2.5t-66 18.5t-53 50.5q-26 42 -40.5 82.5t-20 80t-2 79t13.5 81.5q5 24 21 59.5t37 74.5t45.5 76t46.5 63q-37 -5 -63.5 -15.5t-47.5 -21t-38 -16.5t-34 -1
q-12 3 -24.5 22t-20.5 41.5t-8.5 43t11.5 27.5q30 18 61 26t63 12t66 5.5t72 6.5q55 6 97 8.5t80.5 2t79.5 -3t95 -6.5q17 -2 29.5 -17t17 -33t-0.5 -34t-23 -19z" />
    <glyph glyph-name="u" unicode="u" horiz-adv-x="612" 
d="M589 37q0 -29 -13 -52.5t-48 -23.5q-21 0 -35.5 14.5t-24 36t-14.5 45t-7 41.5q-15 -16 -36.5 -33.5t-46.5 -34t-53 -30t-55 -22.5q-38 -12 -73.5 -16t-62.5 3t-43.5 25.5t-17.5 50.5q-3 78 -3 162t1 170.5t2 171.5t1 165q0 18 17.5 33.5t38.5 21.5t38 -2t15 -36
q-4 -61 -9.5 -134t-8.5 -145.5t-2.5 -137.5t7.5 -110q5 -32 15.5 -47.5t26 -19t36 3t45.5 18.5q33 16 62 32t51.5 34.5t35.5 41t15 51.5q3 58 3 119t-2 120t-5 112.5t-5 95.5q-1 10 9 22t25 21.5t32.5 16t32.5 7t25 -6.5t9 -25q-3 -53 -5.5 -101.5t-4.5 -97t-4 -101
t-4 -114.5q-1 -27 -3 -63.5t-2 -75t4.5 -75.5t16.5 -65q5 -13 14.5 -28t9.5 -38z" />
    <glyph glyph-name="v" unicode="v" horiz-adv-x="631" 
d="M611 695q-3 -96 -22.5 -176t-51.5 -154.5t-74 -149t-90 -160.5q-10 -18 -27 -37t-35 -31t-35.5 -12.5t-27.5 18.5q-27 48 -50 90t-42.5 81t-36 76.5t-31.5 76.5q-18 48 -32 80t-23 61.5t-14.5 63.5t-7.5 86q-2 51 7.5 95t24.5 71.5t32.5 33.5t31.5 -18q13 -24 14.5 -51
t-0.5 -55t-2.5 -57t9.5 -57q15 -46 38 -99.5t50 -105.5t57 -98.5t60 -77.5q21 26 44 65.5t44 84t37.5 89.5t24.5 82q15 69 21 138t-4 139q-2 18 15.5 22.5t39 -6t39.5 -37t17 -71.5z" />
    <glyph glyph-name="w" unicode="w" horiz-adv-x="949" 
d="M935 624q1 -54 -3.5 -119t-24.5 -143t-62 -170.5t-115 -201.5q-5 -7 -16.5 -11t-25.5 -4t-26.5 4.5t-18.5 14.5q-24 40 -43 67t-35.5 48t-30.5 39t-28.5 40.5t-29 51.5t-31.5 73q-21 -34 -36 -52.5t-28.5 -35t-26.5 -37t-30 -58.5q-12 -26 -22.5 -57t-26.5 -54t-42 -32.5
t-68 7.5q-45 94 -79.5 200t-48.5 202q-6 37 -7.5 69.5t0 62.5t6 59.5t10.5 61.5q10 57 36 95.5t51.5 57t41 16t4.5 -29.5q-11 -26 -18 -56t-11 -61.5t-5.5 -61.5t-1.5 -55q2 -99 21 -179.5t73 -153.5q20 29 41 54.5t41.5 52.5t40 58t36.5 71q-7 39 -9 78t-0.5 73.5t6.5 60
t11 37.5q19 35 44 57t45 26.5t30.5 -10.5t1.5 -53q-19 -78 -19.5 -136.5t17.5 -114.5q10 -33 27.5 -68.5t38.5 -72.5t44.5 -73t47.5 -70q42 50 66.5 90.5t39 75t20.5 64.5t11 60q4 30 -2 62.5t-17 65t-22.5 62.5t-18 56.5t-3.5 47.5t21 34q24 18 45.5 15.5t39 -17.5
t31 -39.5t23 -51t15 -51.5t5.5 -41z" />
    <glyph glyph-name="x" unicode="x" horiz-adv-x="755" 
d="M745 125q4 -17 -5.5 -37t-25 -36t-33.5 -23.5t-33 -0.5q-48 36 -83.5 67.5t-66 60.5t-60 56t-65.5 54q-26 -33 -51.5 -71t-50 -76.5t-47.5 -75t-44 -66.5q-11 -16 -28 -10.5t-31.5 21t-21 36.5t2.5 37q21 36 44.5 71.5t46 71.5t43.5 73t37 75q-29 42 -59.5 76t-60 67
t-58 69t-52.5 81q-14 25 -9 56t25 60q17 24 32.5 31t30 2t27 -19t24 -31.5t21 -34.5t17.5 -28q23 -32 40 -55t34.5 -43t37 -38.5t47.5 -40.5q36 51 60.5 91t47.5 76.5t49 72t66 76.5q6 11 21.5 5.5t29 -20.5t19.5 -35.5t-6 -39.5q-27 -40 -51.5 -73t-48.5 -67.5t-49.5 -76.5
t-53.5 -100q41 -50 75.5 -86t68.5 -67.5t69.5 -63t77.5 -71.5z" />
    <glyph glyph-name="y" unicode="y" horiz-adv-x="732" 
d="M673 265q0 -22 -4 -48t-12 -51.5t-21.5 -48.5t-32.5 -38q-38 -30 -65.5 -51t-55.5 -33.5t-60.5 -18.5t-80.5 -6q-12 0 -36 1t-54.5 6.5t-65.5 17t-69 32.5q-17 10 -29 35.5t-16.5 50.5t0 41.5t21.5 10.5q30 -11 54 -22t47.5 -19.5t47.5 -14t53 -5.5q80 0 138.5 20
t100.5 75q28 37 29.5 75t-7.5 81q-40 3 -70 -4t-68 -20q-50 -17 -91 -38.5t-72.5 -38.5t-54 -25.5t-34.5 1.5q-35 28 -56 65.5t-33 78t-15.5 81.5t-2.5 76.5t5.5 63.5t9.5 43q15 44 28.5 85t31.5 71q12 21 32 26t33.5 -8.5t12 -47t-32.5 -90.5q-10 -18 -15 -45.5t-5.5 -58
t4 -61t12.5 -55t19.5 -39t26.5 -13.5q27 3 61 19t71.5 33.5t78 30.5t80.5 10q-13 36 -20.5 72.5t-7.5 71.5q0 17 4 36.5t10.5 39t15 37t16.5 30.5q7 12 26 23t38 15t34 -1.5t15 -26.5q0 -20 -5.5 -36.5t-12.5 -32t-12.5 -32t-5.5 -37.5q0 -13 2.5 -32.5t6.5 -40t8.5 -39
t9.5 -29.5q23 -59 31.5 -117.5t8.5 -130.5z" />
    <glyph glyph-name="z" unicode="z" horiz-adv-x="719" 
d="M684 677q-29 -22 -55.5 -42t-53.5 -45.5t-57.5 -59.5t-66.5 -83q-30 -41 -63.5 -77.5t-67.5 -72t-67 -72.5t-62 -79q58 5 109 11.5t101 16t101 22t109 29.5q12 4 20.5 -2.5t14 -19t7.5 -28.5t0 -30.5t-8 -25.5t-15 -14q-47 -15 -107.5 -34t-127.5 -36.5t-137 -30
t-137 -14.5q-26 -1 -43.5 9t-33.5 34q-26 39 -29 67.5t9.5 52.5t36.5 44.5t54 43.5l347 392q-13 9 -29 13t-32.5 5t-32 0.5t-27.5 -0.5q-39 0 -64 -2t-50 -6.5t-56 -11t-82 -14.5q-20 -3 -28 17t-7 46.5t11 50t27 26.5q94 16 166.5 23t136 7.5t125 -3.5t135.5 -10
q12 2 22.5 -9.5t15.5 -28t3.5 -33.5t-12.5 -26z" />
    <glyph glyph-name="braceleft" unicode="{" horiz-adv-x="410" 
d="M364 29q16 0 17.5 -19t-6 -42.5t-21.5 -42.5t-30 -19q-40 0 -72.5 3t-63.5 23q-17 11 -29 37t-19 57.5t-8.5 63.5t1.5 54q2 13 3.5 31t0.5 36t-5.5 34.5t-14.5 27.5q-14 16 -32.5 20.5t-37.5 15.5q-6 4 -11 13t-8 20t-5 22t-2 19q0 22 10 35.5t24.5 23.5t31 18.5
t30.5 20.5q16 14 23.5 33.5t12.5 45.5l-41 175q4 35 19.5 66.5t50.5 46.5t61.5 22t61.5 4q16 -1 30.5 -18t23 -37.5t8.5 -37.5t-12 -19q-35 -5 -59.5 -11t-36.5 -19q-13 -13 -16 -36.5t-1 -50.5t6.5 -53t6.5 -42q1 -11 6 -28t4 -25q-2 -15 -15 -31t-30.5 -30.5t-36.5 -24.5
t-34 -13q8 -11 18 -17.5t19.5 -13t17.5 -14.5t11 -21q4 -17 7.5 -31.5t6.5 -28t6 -27.5t7 -32t3 -42t-1.5 -47t3.5 -42.5t19 -29.5q24 -18 45 -21t53 -2z" />
    <glyph glyph-name="bar" unicode="|" horiz-adv-x="586" 
d="M600 667q-22 2 -52 1t-72 -10q-33 -73 -55.5 -136t-42 -123t-40 -120t-49.5 -127q37 6 73.5 15.5t74.5 17.5q19 -1 37 -17.5t26.5 -38.5t2.5 -44t-34 -34q-71 -30 -134.5 -47.5t-123.5 -26t-120 -9.5t-124 1q-12 10 -22.5 27.5t-12.5 38.5t8 42t38 38q24 7 43.5 8.5
t38 1.5t37 1t38.5 6q29 58 51.5 121t43 126.5t40 127.5t42.5 126q-29 -2 -57.5 -10.5t-57.5 -13.5q-24 -3 -38 6.5t-19 26.5t-2 38t12.5 40.5t25.5 34.5t36 20q42 11 81.5 14.5t82.5 5.5q53 3 106.5 8.5t107.5 -2.5q17 -3 28 -14t17 -26.5t7 -33t-3.5 -31.5t-14.5 -22.5
t-24 -6.5z" />
    <glyph glyph-name="braceright" unicode="}" horiz-adv-x="407" 
d="M391 413q0 -32 -15 -48t-34.5 -28.5t-38 -27.5t-24.5 -45q-4 -18 -2 -44.5t5 -57t6 -62.5t2 -59.5t-8 -48.5t-24 -30q-24 -13 -37 -22.5t-26 -17t-31.5 -12t-53.5 -7.5q-12 -1 -27.5 17.5t-25 41t-8.5 42t21 21.5q19 1 29 2.5t16.5 3t12 4t15.5 7.5q20 10 27.5 28.5
t8.5 39.5t-3 41.5t-7 35.5q-14 66 4.5 119t74.5 79q-9 5 -19 11.5t-18.5 15.5t-14 20.5t-5.5 26.5q0 29 1 65t-2 70.5t-12.5 63t-30.5 42.5q-17 11 -26 17t-18 8.5t-21 1.5t-35 -4q-24 -3 -30 15.5t0 43.5t21.5 48t35.5 28q21 6 37.5 5.5t30 -4.5t24 -9.5t20.5 -8.5
q34 -11 52 -31.5t26 -47t8.5 -56.5t0.5 -60q0 -14 2.5 -35t7 -43.5t12 -42t17.5 -29.5q6 -7 19.5 -9t26.5 -8t23 -20.5t10 -45.5z" />
    <glyph glyph-name="asciitilde" unicode="~" horiz-adv-x="680" 
d="M651 675q-14 -25 -37.5 -44t-51.5 -31t-58 -15.5t-58 1.5q-25 5 -50 15.5t-49 22t-47 22t-44 14.5q-26 5 -41.5 2.5t-25.5 -10.5t-17 -20t-17 -24q-6 -7 -10.5 -18t-13 -18t-23 -5.5t-38.5 19.5q-7 6 -15 16.5t-12.5 24.5t-5 31t7.5 36q7 19 24 37t39.5 31t49.5 19t56 0
q26 -5 52 -17t52 -25.5t52 -25.5t52 -17q16 -3 35 3t37 17.5t31.5 27t19.5 31.5q2 6 11.5 9t23 2.5t29 -5t30.5 -11.5q28 -14 28.5 -40t-16.5 -55z" />
    <glyph glyph-name="uni00A0" unicode="&#xa0;" horiz-adv-x="413" 
 />
    <glyph glyph-name="exclamdown" unicode="&#xa1;" horiz-adv-x="312" 
d="M338 838q3 -26 -4.5 -46.5t-24 -37t-40.5 -31t-55 -27.5q-21 -9 -39 -8t-31.5 8.5t-21 21t-6.5 29.5q0 21 12.5 40.5t32.5 36.5t45.5 31t52.5 25q24 9 39 6.5t23.5 -10.5t12 -19t4.5 -19zM220 568q-25 -56 -43.5 -101t-34 -84t-29.5 -75t-30.5 -74t-37 -80.5t-48.5 -95.5
q-6 -10 -24 -17.5t-41.5 -11.5t-48 -4t-42 5t-23.5 15.5t7 26.5q52 64 97.5 134t83 137.5t67 129.5t49.5 112q9 21 28 27.5t37.5 2.5t29.5 -16.5t3 -30.5z" />
    <glyph glyph-name="cent" unicode="&#xa2;" horiz-adv-x="668" 
d="M610 228q-38 -29 -86 -49.5t-101 -32.5q5 -33 11.5 -66.5t1.5 -62.5q-4 -27 -24.5 -35t-43 -3t-41.5 18.5t-20 28.5l9 104q-66 -4 -125.5 5.5t-104.5 33.5q-31 16 -43.5 42.5t-13 56.5t7 59.5t16.5 53.5q16 42 43 77.5t61.5 64.5t75.5 52.5t84 40.5q1 19 -2 37t-7 36
t-6 37t1 39q8 56 31 69t52 -18q13 -14 19 -30t8.5 -36.5t3.5 -45t4 -55.5q67 16 127 18q22 1 28 -20.5t0 -47.5t-22 -47.5t-38 -20.5q-139 5 -232 -48.5t-140 -146.5q-8 -16 -5.5 -28.5t12.5 -21.5t24 -15.5t28 -11.5q45 -15 94.5 -13.5t100 13t100 30.5t94.5 40q18 8 28 -3
t12 -29.5t-3.5 -38.5t-18.5 -30z" />
    <glyph glyph-name="sterling" unicode="&#xa3;" horiz-adv-x="645" 
d="M586 819q16 -2 23.5 -23t6 -45t-11 -43.5t-26.5 -19.5q-30 1 -59.5 2t-60.5 -1.5t-65.5 -11t-74.5 -25.5q-52 -22 -69 -51t-9.5 -58.5t34.5 -57t63 -46.5q11 2 30 7t39.5 10t41 9t35.5 3t22 -7.5t1 -22.5q-22 -63 -62.5 -97.5t-85.5 -27.5q-14 2 -28.5 2.5t-30.5 -0.5
l-110 -178q133 15 222 34t137 35q12 4 22 -3t17.5 -20.5t11 -30t3 -32.5t-5.5 -27.5t-15 -15.5q-49 -17 -89 -29.5t-80.5 -24t-87.5 -21.5t-111 -21q-26 -5 -51 -13.5t-47 -6.5t-39 22t-26 72q-3 14 2 28.5t13.5 30t19 31.5t19.5 34q11 21 21.5 37t21 30t21 27.5t21.5 30.5
q-21 -2 -41.5 -2.5t-38.5 1.5q-23 3 -34.5 15t-14.5 28t1.5 34.5t13 34.5t20.5 26.5t25 11.5l38 -3q-14 16 -29 40.5t-23 53t-5 59t26 59.5q43 54 94 88t109 52t122.5 21t133.5 -4z" />
    <glyph glyph-name="currency" unicode="&#xa4;" horiz-adv-x="796" 
d="M758 123q-12 -15 -33 -29t-47.5 -26t-55.5 -22t-56 -18q-63 -19 -125 -31.5t-118 -9.5t-104 26.5t-82 77.5q-24 39 -33 79t-5 81q-23 1 -42.5 5t-32.5 11t-17.5 17.5t3.5 25.5q23 42 55 57t70 16q6 13 12 25t13 24q-11 0 -20.5 0.5t-19.5 1.5q-37 3 -56 14.5t-23.5 26.5
t2.5 32.5t21 32t33.5 24.5t39.5 11l116 -6l6 9q42 54 90 99.5t102.5 78t116 47.5t130.5 8q16 -2 23.5 -23t6 -45t-11 -43.5t-26.5 -19.5q-30 1 -47.5 1t-35 -3.5t-40 -12.5t-62.5 -26q-63 -27 -121 -76l115 -5q14 -1 41.5 2.5t59.5 7.5t65 7.5t56.5 2t33.5 -9.5t-2 -26
q-17 -25 -42.5 -44t-56.5 -32t-66 -18t-71 -1q-54 5 -117.5 0t-128.5 -10q-10 -15 -18.5 -30.5t-15.5 -30.5q43 -5 93.5 -2t102.5 7.5t103 8t96 -0.5q55 -5 75 -15t14.5 -23.5t-29.5 -29t-55 -30.5q-33 -16 -68 -21.5t-81 -7t-106.5 -2t-145.5 -6.5q-6 -1 -13.5 -1t-16.5 -1
q2 -29 17 -50.5t37.5 -36.5t50.5 -23.5t55 -12.5q39 -5 80 1t83 21t86 37.5t89 48.5q9 5 23.5 -5t26 -28t15 -40t-10.5 -41z" />
    <glyph glyph-name="yen" unicode="&#xa5;" horiz-adv-x="667" 
d="M652 755q-24 -42 -43.5 -76.5t-37 -66t-34 -62t-33.5 -64.5q23 3 44.5 4t36 -1.5t19.5 -9.5t-4 -20q-22 -34 -61.5 -55t-85.5 -25q-8 -19 -15 -35.5t-14 -32.5q39 4 77 6t72 -1q45 -4 61 -12.5t11.5 -19.5t-24 -24.5t-44.5 -26.5q-20 -10 -40 -14.5t-43 -7t-51 -2.5
t-63 -1l-20 -46t-22 -48t-26.5 -53.5t-32.5 -61.5q-6 -10 -25 -20.5t-38.5 -14.5t-32.5 3t-7 33q8 31 17.5 56t20 48.5t22 47t23.5 50.5h-6q-12 -1 -32.5 -2.5t-43.5 -1.5t-45.5 2t-38.5 7.5t-23.5 15.5t0.5 26q15 29 34.5 42.5t42.5 17.5t49.5 1.5t55.5 -5.5
q10 -1 20.5 -1.5t21.5 -0.5q2 5 2.5 9t2.5 9q-7 13 -15.5 26.5t-19.5 27.5q-46 -4 -91 -7.5t-84 0.5q-45 4 -57.5 22.5t-5 39.5t30 38.5t46.5 18.5l71 -3q-45 51 -87.5 97t-65.5 83q-9 14 -8.5 33t7 39t17 38t23 29.5t24.5 13.5t21 -10q31 -40 62 -85.5t64.5 -89.5t69.5 -84
t76 -69q31 56 54 103t43 90.5t41.5 86t49.5 90.5q11 19 29.5 13t34.5 -24t24 -42t-1 -41z" />
    <glyph glyph-name="brokenbar" unicode="&#xa6;" horiz-adv-x="242" 
d="M185 585l3 -33t-2 -42t-16 -32.5t-37 -4.5q-31 9 -45.5 21t-19 26t-1.5 30t6 34q4 22 1.5 42t-6.5 40t-7 40.5t0 42.5q8 56 31 69t52 -18q15 -17 20.5 -36.5t8 -45.5t4.5 -58.5t8 -74.5zM194 35q-4 -27 -24.5 -35t-43 -3t-41.5 18.5t-20 28.5l15 179q1 10 -6 28t-11 37
t1.5 36t30.5 25q27 9 45 -2t28.5 -30.5t13.5 -43t0 -41.5q-4 -22 -1.5 -47t6.5 -51t7 -51.5t0 -47.5z" />
    <glyph glyph-name="section" unicode="&#xa7;" horiz-adv-x="734" 
d="M718 231q-11 -26 -33.5 -52t-41.5 -48q-42 -47 -96 -83.5t-114.5 -62t-124.5 -39.5t-126 -16q-26 -1 -51 16.5t-35.5 40t0.5 44.5t56 31q51 10 108.5 17.5t113.5 21.5t107.5 41t89.5 76q-19 3 -51.5 3.5t-72.5 -0.5t-83.5 -3.5t-84.5 -6t-75.5 -7t-55.5 -6.5
q-26 -4 -47 -4.5t-37 6.5t-27.5 22.5t-20.5 43.5q-7 21 8 48t38 53.5t49 48.5t41 34q-27 -5 -48 -5t-38 7t-29 22.5t-21 43.5q-4 14 2.5 32t17.5 35.5t24 32.5t22 24q34 34 77 66.5t90 58.5t97 44t99 23q44 5 62.5 -10t16.5 -61q0 -21 -9.5 -32t-23.5 -16.5t-30.5 -8
t-32.5 -6.5q-26 -6 -65 -16t-77 -25t-69.5 -36t-42.5 -49q72 6 143.5 10t143.5 12q21 2 49 6.5t57.5 7.5t57 1t45.5 -12q45 -27 52 -58.5t-7.5 -64t-42 -63t-52.5 -54.5q25 -1 47.5 -11.5t37.5 -27.5t19 -40t-6 -49zM571 470q-21 3 -38 4t-33 0t-32 -4.5t-35 -9.5
q-24 -7 -64 -19.5t-80 -30.5t-72.5 -40t-42.5 -48q48 4 107.5 8t115.5 18t103 42t71 80z" />
    <glyph glyph-name="dieresis" unicode="&#xa8;" horiz-adv-x="446" 
d="M418 767q18 -54 -6 -99.5t-73 -74.5q-21 -13 -36.5 -8t-25 20.5t-13 38t0 46t13.5 44t27 31.5q14 9 30.5 18.5t32.5 13t29 -2t21 -27.5zM143 610q-14 -9 -30.5 -18.5t-32.5 -13t-29 2t-20 27.5q-19 54 5 99.5t73 74.5q21 12 36.5 7.5t25 -20t13 -38t0.5 -46t-13.5 -44
t-27.5 -31.5z" />
    <glyph glyph-name="copyright" unicode="&#xa9;" horiz-adv-x="779" 
d="M754 492q6 -71 -11 -140t-52 -130t-85 -110t-111 -80q-41 -21 -96 -29t-111.5 -1.5t-108 29t-83.5 62.5q-50 62 -66 122.5t-10 121t29 121t51 122.5q20 44 56.5 82t79 67t86.5 46.5t80 20.5q55 4 115 -17.5t111 -63t86 -99t40 -124.5zM612 289q12 24 18.5 62t5 78
t-11.5 76.5t-32 57.5q-11 11 -22.5 21t-23.5 20q1 -13 -2.5 -27t-10 -25.5t-16.5 -18.5t-22 -7q-39 1 -72.5 -10.5t-60.5 -33.5t-47.5 -52.5t-34.5 -66.5q-7 -17 1 -28t28 -19q24 -11 52 -9.5t57 10t58.5 23t57.5 31.5q18 10 29 0.5t15.5 -27.5t0.5 -39t-16 -33
q-34 -33 -79 -53t-92 -26.5t-91.5 1t-77.5 30.5q-20 14 -28.5 36t-10 47t2.5 50.5t10 47.5q16 54 49 96t74.5 71.5t86.5 46t86 21.5q-28 16 -59 24t-64 4t-69 -22.5t-74 -55.5q-56 -54 -79.5 -133t-3.5 -171q9 -39 28.5 -66t46.5 -45t58.5 -28.5t63.5 -17.5q37 -8 78 3
t78 34.5t67.5 56t47.5 66.5z" />
    <glyph glyph-name="ordfeminine" unicode="&#xaa;" 
d="M438 415q11 -15 15 -33t2 -35t-11 -30.5t-24 -19.5q-10 -4 -25 -9t-30 -3t-27 14t-17 42q-33 -17 -70 -27.5t-74 -10t-71.5 14.5t-61.5 48q-17 20 -27 49.5t-12 58.5q-2 16 6.5 38.5t24 46.5t37.5 47.5t47.5 41.5t54 29.5t57.5 11.5q17 0 37.5 0.5t39.5 0.5q2 8 9 18
t18 17.5t25.5 10.5t31.5 -4q20 -8 27.5 -22t5.5 -41q-2 -41 -3.5 -81.5t-0.5 -75t4.5 -60.5t11.5 -37zM484 188q-11 -32 -29.5 -58t-41 -43.5t-48 -26t-49.5 -4.5q-29 4 -59.5 1.5t-62 -7t-63 -7.5t-61.5 1q-26 3 -38.5 17t-15.5 32.5t2.5 39.5t16.5 39.5t25.5 30.5t28.5 13
l224 -16q6 0 19.5 3.5t29 8t30 8.5t21.5 6q19 4 34.5 4.5t25.5 -3.5t13.5 -13.5t-2.5 -25.5zM332 486q-2 14 -4 34.5t-5 34.5h-26.5t-29.5 -1t-29.5 -2.5t-25.5 -4.5q-6 -2 -22 -4.5t-33.5 -10t-30.5 -22.5t-13 -41q0 -12 10 -20t22.5 -12t23.5 -5.5t13 -1.5q28 0 50.5 8
t40.5 18t32.5 19t26.5 11z" />
    <glyph glyph-name="guillemotleft" unicode="&#xab;" horiz-adv-x="737" 
d="M693 190q6 -6 3.5 -17.5t-11.5 -23.5t-22 -23.5t-27.5 -18t-28 -6t-23.5 11.5q-23 25 -49 55.5t-56 61.5t-63 62t-68 58q-12 9 -24.5 18.5t-21.5 18.5t-12 18.5t3 20.5q9 14 16.5 22t16 15t17.5 14.5t20 20.5q16 21 39.5 45t49.5 49t51.5 49.5t45.5 45.5q11 11 32 17.5
t40.5 6.5t30 -7.5t0.5 -22.5q-21 -33 -49.5 -63t-58 -60t-55.5 -61t-43 -66q53 -51 114 -111t133 -130zM428 215q16 -13 14 -32.5t-13 -36.5t-26.5 -26t-27.5 -1q-69 51 -139 97.5t-142 100.5q-12 9 -25.5 13.5t-25.5 9t-21 11.5t-12 21q-3 18 4.5 28.5t21 18.5t30.5 15.5
t33 18.5q32 28 62 58t55.5 59t46 54t33.5 43q9 12 26.5 12.5t33 -6.5t24.5 -19.5t1 -26.5q-22 -38 -43.5 -60.5t-47.5 -43.5t-57.5 -48t-73.5 -75q36 -33 71.5 -57.5t69.5 -44.5t66.5 -39.5t61.5 -43.5z" />
    <glyph glyph-name="logicalnot" unicode="&#xac;" horiz-adv-x="926" 
d="M908 455q-9 -40 -21 -83t-29.5 -88t-41 -89.5t-55.5 -87.5q-11 -14 -33 -14t-43 8.5t-34.5 23t-6.5 29.5q12 27 30.5 65t35.5 79t28.5 80t8.5 67q-77 5 -159.5 2t-167 -9.5t-169 -14.5t-164.5 -13q-19 -1 -29.5 8t-15 23t-3 30.5t7 31t15.5 24t22 9.5q213 2 393.5 13.5
t326.5 25.5q22 2 43.5 -7.5t36.5 -26.5t22 -39.5t2 -46.5z" />
    <glyph glyph-name="registered" unicode="&#xae;" horiz-adv-x="779" 
d="M754 492q6 -71 -11 -140t-52 -130t-85 -110t-111 -80q-41 -21 -96 -29t-111.5 -1.5t-108 29t-83.5 62.5q-50 62 -66 122.5t-10 121t29 121t51 122.5q20 44 56.5 82t79 67t86.5 46.5t80 20.5q55 4 115 -17.5t111 -63t86 -99t40 -124.5zM457 493q-18 1 -56 0t-75 -9
q-3 -16 -4 -38t1 -44q37 14 70.5 40.5t63.5 50.5zM604 275q15 26 23.5 66t8 82t-11 80t-32.5 60q-34 33 -74 62t-85.5 39.5t-97 -4.5t-108.5 -70q-56 -54 -79.5 -133t-3.5 -171q9 -39 28.5 -66t46.5 -45t58.5 -28.5t63.5 -17.5q47 -11 98 9t93 55q-31 12 -52 25t-42.5 24.5
t-47.5 20t-66 12.5q0 -18 1.5 -29.5t-1 -20t-11 -16.5t-26.5 -20q-22 -15 -37.5 -9.5t-15.5 26.5q0 12 0.5 20.5t1 16t0.5 16t-1 20.5q-14 13 -17.5 35t18.5 48q2 29 0 62t1 65q-14 14 -13.5 29.5t9 29t21 23.5t22.5 13q26 8 54 11t58 3q18 0 44.5 1t54 -1t51.5 -9t36 -24
t11 -35t-10.5 -36t-25 -35.5t-32.5 -33.5t-33 -29.5t-26 -23.5q-4 -3 -7 -5.5t-6 -4.5q16 -7 36.5 -16.5t42 -20.5t42.5 -24t38 -26z" />
    <glyph glyph-name="degree" unicode="&#xb0;" horiz-adv-x="423" 
d="M396 668q3 -36 -6 -70.5t-26 -65t-42.5 -55t-55.5 -39.5q-20 -11 -48 -15t-56.5 -0.5t-54 14.5t-41.5 31q-25 31 -33 61.5t-4.5 61t15 60.5t25.5 61q10 22 28 41t39 33.5t43.5 23t40.5 10.5q27 2 57 -9t55.5 -31.5t43 -49.5t20.5 -62zM315 600q4 7 5 18.5t-1.5 23t-9 21
t-17.5 13.5q-17 7 -36 12t-40 4.5t-43 -9t-44 -28.5t-29 -44t7 -49q12 -21 38 -26.5t55 -3.5q17 0 35 6.5t33.5 16.5t28 22t18.5 23z" />
    <glyph glyph-name="plusminus" unicode="&#xb1;" 
d="M464 535q-23 -63 -65 -91.5t-87 -21.5q-8 1 -16.5 1.5t-18.5 0.5q1 -13 0.5 -37.5t-1.5 -74.5q0 -14 -1 -28t-5.5 -27t-14.5 -24.5t-30 -20.5t-27 3t-8 40t2 69.5t5 92.5q-34 -4 -68 -7.5t-63 0.5q-34 4 -43.5 26t-3.5 46.5t22.5 45t35.5 21.5l119 -8q-2 27 -1 49.5
t-5 51.5q-3 13 -3.5 32t3 36t11.5 28t22 8q41 -9 53 -27.5t11.5 -45.5t-6.5 -61.5t-1 -76.5q16 -2 37.5 2t44 9.5t43.5 10.5t36 5.5t22 -5.5t1 -22zM493 136q-12 -32 -30.5 -58t-41 -43.5t-48 -26t-49.5 -4.5q-29 4 -59.5 1.5t-62 -7t-63 -7.5t-61.5 1q-26 3 -38.5 16.5
t-15 32.5t3 40t16.5 39t25 30.5t28 13.5l224 -16q6 0 19.5 3t29.5 7.5t30.5 9t21.5 6.5q37 8 59.5 1t11.5 -39z" />
    <glyph glyph-name="twosuperior" unicode="&#xb2;" horiz-adv-x="441" 
d="M402 785q19 -26 11 -54t-28 -54.5t-46 -50t-42 -38.5q-21 -20 -43 -39t-42 -40q39 5 76.5 13.5t76.5 16.5q22 4 34 -9.5t14.5 -33t-4 -39t-21.5 -26.5q-10 -4 -35.5 -10.5t-58.5 -13.5t-70 -13t-69 -9.5t-55 -3.5t-29 5q-7 6 -14 17t-11.5 23t-5 24t4.5 21q9 16 25 32.5
t34 33t36.5 32t32.5 27.5q23 20 43.5 41.5t42.5 41.5q1 1 6.5 6t10.5 11t8 10.5t-1 6.5q-2 1 -11.5 1h-12.5q-44 0 -79 -13.5t-75 -28.5q-28 -10 -41 2t-13 33t11.5 43.5t32.5 33.5q23 12 49.5 21t52.5 13q18 3 48 4t61 -2t57.5 -11t38.5 -24z" />
    <glyph glyph-name="threesuperior" unicode="&#xb3;" horiz-adv-x="456" 
d="M399 574q10 -38 2 -64.5t-26.5 -46.5t-45.5 -35t-56 -28q-37 -17 -77 -29.5t-82 -8.5q-29 3 -45.5 21t-19.5 38t8 36t39 15q9 0 17 -1.5t17 -2.5q19 -2 45.5 3.5t51.5 15t45 21.5t27 23.5t-4.5 21.5t-48.5 15q-25 -19 -45 -23t-34.5 1.5t-23 18t-10.5 26.5t3 27.5
t18 20.5q32 17 62.5 32.5t59.5 38.5q-28 2 -62 -2t-60 -12q-9 -3 -18 -6.5t-17.5 -6t-17.5 -2.5t-19 5q-12 6 -20 23t-7 35.5t11.5 34.5t35.5 22q23 5 56 9t68 6t68.5 2t57.5 -2q20 -2 34.5 -14t21.5 -28.5t4 -35t-17 -33.5q-16 -16 -32.5 -30t-30.5 -31q22 -11 41.5 -27.5
t25.5 -42.5z" />
    <glyph glyph-name="acute" unicode="&#xb4;" horiz-adv-x="433" 
d="M422 695q-17 -16 -37.5 -26t-42.5 -18t-44 -14.5t-43 -14.5q-45 -19 -95 -27.5t-95 -10.5q-21 -1 -37 13.5t-21.5 34t1 38.5t30.5 27q36 13 72.5 21t72 17.5t69.5 25t65 42.5q11 10 24 12.5t25.5 -0.5t24.5 -10t21 -16t16 -20.5t9.5 -24.5t-1 -25.5t-14.5 -23.5z" />
    <glyph glyph-name="mu" unicode="&#xb5;" horiz-adv-x="564" 
d="M514 828q-1 -53 -2 -90t-2 -66.5t-2 -56t-2 -58.5t-2 -73t-2 -100q0 -35 -26 -68t-66.5 -62.5t-90.5 -55t-99 -46.5q-21 -10 -48 -8v-82.5t-2 -85.5q-1 -28 -11 -54.5t-50 -45.5q-21 -10 -32.5 1.5t-16 36.5t-4 58.5t3.5 67.5t6 65.5t4 50.5q2 35 -2 64t-6 62
q-1 13 -1.5 45t-0.5 73t0.5 86.5t1.5 86t3.5 72t6.5 44.5q7 25 26.5 49t39.5 38t35.5 14t15.5 -24q0 -66 -5 -133t-9 -133q-1 -21 -4.5 -51t-1.5 -59t13 -52.5t38 -30.5q24 -6 49.5 1t47.5 23t38.5 38.5t22.5 46.5q12 49 17.5 82.5t6 58t-2.5 45.5t-7 45t-7 56t-4 79
q0 16 10 32.5t24.5 29t32 20.5t32.5 8t24.5 -10.5t9.5 -33.5z" />
    <glyph glyph-name="paragraph" unicode="&#xb6;" horiz-adv-x="708" 
d="M676 -6q-1 -20 -19.5 -22t-40.5 6t-40 24t-19 33q-1 20 1 46t3.5 54t0.5 56.5t-9 55.5q-20 4 -34.5 9t-28.5 11t-29 12t-36 11q0 -11 0.5 -22t0.5 -22q1 -20 4 -47.5t5 -57.5t2 -58.5t-5 -49.5t-17 -32t-33 -5q-20 6 -32 15t-18 21t-8.5 25.5t-2.5 27.5q-1 36 -0.5 65
t1.5 56.5l2 55t1 59.5q-50 19 -100 43.5t-91.5 58t-69.5 77.5t-34 103q-3 23 17 47t55.5 46.5t82 42.5t97.5 34.5t102.5 22.5t96.5 8q21 0 46 1.5t49 0t44.5 -9t32.5 -25.5q8 -13 18 -28t14.5 -30.5t0.5 -30.5t-23 -28q4 -40 3.5 -71.5t-2.5 -66t-4 -77.5t0 -105
q0 -33 3.5 -72.5t7.5 -83.5t6 -91t-1 -93zM557 413q2 31 4.5 66t1 69.5t-8 66.5t-21.5 57q-17 -2 -28.5 -3t-22 -1t-22 -0.5t-28.5 -2.5q0 -54 -2 -111t-4 -120q27 -6 45 -10.5t32 -7.5t26 -4t28 1zM325 467q0 27 -1 53t-2 51q-2 19 -3.5 36t-2.5 34q-13 -5 -31.5 -11
t-37 -13.5t-36 -16t-29.5 -17.5q-20 -14 -11 -29t33 -30t57.5 -29.5t63.5 -27.5z" />
    <glyph glyph-name="periodcentered" unicode="&#xb7;" horiz-adv-x="265" 
d="M233 393q-12 -29 -28.5 -54t-37.5 -41t-46 -19t-52 11q-23 12 -29.5 31.5t-3.5 42t11.5 44.5t15.5 39q11 26 31 41t43 19t45.5 -2t37.5 -20.5t20 -38t-7 -53.5z" />
    <glyph glyph-name="cedilla" unicode="&#xb8;" horiz-adv-x="232" 
d="M244 -47q-15 -29 -49 -50t-73.5 -32.5t-79.5 -12.5t-68 11q-14 6 -19 21t-2 31.5t13 29.5t28 14q19 1 42.5 2t45 4.5t37.5 11.5t21 23q7 24 7 40.5t-6 33t-17 35.5t-24 47q-6 13 -0.5 22t17.5 14t28.5 5.5t32.5 -3.5t28.5 -12.5t16.5 -21.5q6 -20 16 -43.5t17 -51
t6 -57.5t-18 -61z" />
    <glyph glyph-name="onesuperior" unicode="&#xb9;" horiz-adv-x="245" 
d="M187 704q-5 -66 -3 -130.5t0 -130.5q-1 -24 -7 -38.5t-30 -24.5q-27 -11 -37 7t-11.5 47t2 58.5t4.5 41.5q2 34 1 67.5t-2 67.5q-10 -5 -19 -5q-14 0 -30.5 10t-16.5 25q0 12 7 26t17.5 27.5t22 25l19.5 19.5q3 13 11 20t22 5q26 -5 37.5 -16.5t14.5 -28t1 -35.5t-3 -38z
" />
    <glyph glyph-name="ordmasculine" unicode="&#xba;" 
d="M434 555q3 -36 -5.5 -70.5t-26 -65t-43 -55t-55.5 -39.5q-20 -11 -47.5 -15t-56 -0.5t-54 15t-41.5 31.5q-25 31 -33 61t-5 60.5t14.5 60.5t25.5 61q10 22 28 41t39.5 33.5t43.5 23t40 10.5q28 2 58 -9t55.5 -31.5t42.5 -49.5t20 -62zM484 198q-12 -32 -30.5 -58
t-41 -43.5t-48 -26t-49.5 -4.5q-29 4 -59.5 1.5t-62 -7t-63 -7.5t-61.5 1q-26 3 -38.5 16.5t-15.5 32.5t3 40t16.5 39t25 30.5t28.5 13.5l224 -16q6 0 19.5 3t29 7.5t30 9t22.5 6.5q18 4 33.5 4.5t26 -3.5t14 -13.5t-2.5 -25.5zM353 487q4 8 5 19t-1.5 22.5t-9 21
t-16.5 13.5q-17 7 -36 12t-40 4.5t-43 -9t-44 -28.5t-29 -44t7 -49q11 -21 37.5 -26.5t55.5 -3.5q17 0 34.5 6.5t33.5 16.5t28 22t18 23z" />
    <glyph glyph-name="guillemotright" unicode="&#xbb;" horiz-adv-x="748" 
d="M710 395q-8 -14 -16 -22t-16.5 -15t-17.5 -14.5t-19 -20.5q-16 -21 -39.5 -45t-49.5 -49t-51.5 -49.5t-45.5 -45.5q-11 -11 -32 -17.5t-40.5 -6.5t-30.5 7.5t-1 22.5q22 33 50.5 63.5t58 60t55.5 60.5t43 66q-54 51 -114.5 111t-132.5 130q-7 6 -4 17.5t12 23.5t22 23.5
t27.5 18t28 6t23.5 -11.5q22 -26 48.5 -55.5t56.5 -61t63 -62t68 -57.5q12 -10 24.5 -19t21.5 -18.5t12 -19.5t-4 -20zM470 402q3 -17 -4.5 -28t-21 -19t-30.5 -15.5t-33 -18.5q-32 -27 -62 -57.5t-55.5 -59t-46 -54t-33.5 -43.5q-9 -12 -26.5 -12.5t-33 6.5t-24.5 19.5
t-1 26.5q22 38 43.5 60.5t47.5 44t57.5 48.5t73.5 75q-36 33 -71.5 57t-69.5 44.5t-66.5 39.5t-61.5 43q-16 13 -14 32.5t13.5 36.5t27 26t26.5 1q69 -51 139 -97.5t142 -100.5q12 -9 25.5 -13.5t25.5 -9t21 -11.5t12 -21z" />
    <glyph glyph-name="onequarter" unicode="&#xbc;" horiz-adv-x="750" 
d="M665 125q1 -17 2.5 -36t-2 -36.5t-13.5 -31t-31 -19.5q-20 -5 -35 2.5t-19 28.5q-3 20 -1.5 39t-1.5 39q-42 -6 -83 -11.5t-82 -19.5q-43 -14 -62 3t-21 59q-1 12 9.5 31.5t27.5 42t38 47t41 46.5t37 40t26 28q6 6 16.5 18.5t22 26t22 24t15.5 13.5q9 5 24 6t29.5 -2
t25.5 -11t11 -21q2 -51 0 -100.5t0 -99.5q19 3 30 -10.5t12.5 -32t-8 -37t-30.5 -26.5zM193 709q-5 -66 -3 -130.5t0 -130.5q-1 -25 -7.5 -41t-32.5 -27q-20 -8 -32 -1.5t-17.5 21.5t-6 36t0.5 41.5t3.5 37.5t2.5 25q2 32 1 63.5t-2 63.5q-8 -2 -14 -2q-7 0 -16 2.5t-17 7.5
t-13.5 12.5t-5.5 17.5q0 12 7.5 26.5t18 28t22 25.5t19.5 20q3 14 12.5 22t25.5 5q27 -5 39.5 -17.5t16 -29.5t1.5 -37t-3 -39zM606 798q-45 -85 -99.5 -185.5t-122.5 -205.5q-13 -20 -33.5 -55.5t-45.5 -79t-51.5 -91t-51.5 -91.5t-46 -80.5t-35 -58.5q-11 -17 -32.5 -27
t-40.5 -10t-30 11t-1 35q21 52 59.5 121.5t81.5 143t83 143t66 120.5q25 51 56 105.5t61 104.5t55 94t39 74q9 21 28.5 21t36.5 -12.5t25.5 -33.5t-2.5 -43zM557 216l-3 78l-42 -44t-41 -45q22 2 44 2.5t42 8.5z" />
    <glyph glyph-name="onehalf" unicode="&#xbd;" horiz-adv-x="822" 
d="M772 405q19 -26 11 -54t-28.5 -55t-46.5 -50t-42 -39q-21 -20 -43 -38.5t-42 -39.5q40 4 77.5 13t75.5 17q22 4 34 -9.5t14.5 -33t-4 -39t-21.5 -26.5q-9 -4 -34.5 -10.5t-59 -13.5t-70 -13t-69 -9.5t-55.5 -3.5t-29 5q-7 6 -14 17t-11.5 23t-5 24t4.5 21q9 16 25 32.5
t34.5 33t36.5 32t32 27.5q23 20 43.5 41t42.5 42q1 1 6.5 6t10.5 11t8 10.5t-1 6.5q-2 1 -11.5 1h-12.5q-44 0 -79 -13.5t-75 -28.5q-28 -11 -40.5 1.5t-12.5 33.5t11.5 43.5t31.5 33.5q24 12 50 21t53 13q18 3 48 4t60.5 -2t57.5 -11t39 -24zM200 702q-5 -66 -3 -130.5
t0 -130.5q-1 -25 -7.5 -41t-32.5 -27q-20 -8 -32 -1.5t-17.5 21.5t-6 36t0.5 41.5t3 37.5t3 25q2 32 1 63.5t-2 63.5q-8 -2 -14 -2q-7 0 -16 2.5t-17 7.5t-13.5 12.5t-5.5 17.5q0 12 7.5 26.5t18 28t22 25.5t19.5 20q3 14 12.5 22t25.5 5q27 -5 39.5 -17.5t16 -29.5t1.5 -37
t-3 -39zM606 798q-45 -85 -99.5 -185.5t-122.5 -205.5q-13 -20 -33.5 -55.5t-45.5 -79t-51.5 -91t-51.5 -91.5t-46 -80.5t-35 -58.5q-11 -17 -32.5 -27t-40.5 -10t-30 11t-1 35q21 52 59.5 121.5t81.5 143t83 143t66 120.5q25 51 56 105.5t61 104.5t55 94t39 74
q9 21 28.5 21t36.5 -12.5t25.5 -33.5t-2.5 -43z" />
    <glyph glyph-name="threequarters" unicode="&#xbe;" horiz-adv-x="924" 
d="M835 125q1 -17 2.5 -36t-2 -36.5t-13.5 -31t-31 -19.5q-20 -5 -35 2.5t-19 28.5q-3 20 -1.5 39t-1.5 39q-42 -6 -83 -11.5t-82 -19.5q-43 -14 -62 3t-21 59q-1 12 9.5 31.5t27.5 42t38 47t41 46.5t37 40t26 28q6 6 16.5 18.5t22 26t22 24t15.5 13.5q9 5 24 6t29.5 -2
t25.5 -11t11 -21q2 -51 0 -100.5t0 -99.5q19 3 30 -10.5t12.5 -32t-8 -37t-30.5 -26.5zM776 798q-45 -85 -99.5 -185.5t-122.5 -205.5q-13 -20 -33.5 -55.5t-45.5 -79t-51.5 -91t-51.5 -91.5t-46 -80.5t-35 -58.5q-11 -17 -32.5 -27t-40.5 -10t-30 11t-1 35
q21 52 59.5 121.5t81.5 143t83 143t66 120.5q25 51 56 105.5t61 104.5t55 94t39 74q9 21 28.5 21t36.5 -12.5t25.5 -33.5t-2.5 -43zM422 575q10 -38 2 -64.5t-26.5 -46.5t-45.5 -35t-56 -28q-37 -17 -77 -29.5t-82 -8.5q-29 3 -45.5 21t-19.5 38t8 36t39 15q9 0 17 -1.5
t17 -2.5q19 -2 45.5 3.5t51.5 15t45 21.5t27 23.5t-4.5 21.5t-48.5 15q-25 -19 -45 -23t-34.5 1.5t-23 18t-10.5 26.5t3 27.5t18 20.5q32 17 62.5 32.5t59.5 38.5q-28 2 -62 -2t-60 -12q-9 -3 -18 -6.5t-17.5 -6t-17.5 -2.5t-19 5q-12 6 -20 23t-7 35.5t11.5 34.5t35.5 22
q23 5 56 9t68 6t68.5 2t57.5 -2q20 -2 34.5 -14t21.5 -28.5t4 -35t-17 -33.5q-16 -16 -32.5 -30t-30.5 -31q22 -11 41.5 -27.5t25.5 -42.5zM727 216l-3 78l-42 -44t-41 -45q22 2 44 2.5t42 8.5z" />
    <glyph glyph-name="questiondown" unicode="&#xbf;" horiz-adv-x="739" 
d="M652 758q-8 -49 -42.5 -79.5t-78.5 -40.5q-24 -5 -46 -4.5t-38 7t-24.5 20t-5.5 34.5q3 25 16 45.5t32.5 36.5t43.5 27t50 18q19 5 37.5 4.5t32 -8t20.5 -22.5t3 -38zM659 186q13 -29 13.5 -54.5t-7 -46t-20 -35t-24.5 -20.5q-30 -15 -76 -27.5t-93 -22.5t-88.5 -15.5
t-62.5 -5.5q-37 0 -72.5 -0.5t-70 4t-68.5 16.5t-68 38q-19 14 -13 46t25 67t43 66t41 44q36 28 58.5 45t37.5 27.5t26 17.5t24 15.5t30.5 20.5t45.5 33q-41 5 -62.5 8.5t-34.5 7t-23 8t-26 11.5q-3 1 2 17t17 35.5t31 35.5t45 17q43 2 80 0.5t72.5 -1.5t70.5 4t73 16
q10 3 23 -10t20 -33t3.5 -41t-25.5 -34q-34 -20 -65.5 -43t-64 -47t-66.5 -47.5t-73 -43.5t-75.5 -46t-62 -50t-35.5 -43.5t4 -26.5q52 -26 106 -27t105 12.5t96.5 36.5t80.5 45q31 19 49 29.5t28.5 12.5t15.5 -2.5t10 -13.5z" />
    <glyph glyph-name="Agrave" unicode="&#xc0;" horiz-adv-x="767" 
d="M659 715q-37 5 -62.5 11.5t-49 14.5t-49.5 17t-63 19q-17 5 -47 15.5t-53 26.5q-21 13 -31 40t-9 52t14 41t39 8q40 -22 76 -42.5t71.5 -39t73.5 -34.5t83 -30q16 -5 28.5 -21t15.5 -33.5t-5 -31t-32 -13.5zM727 474q-5 -20 -11.5 -38.5t-13 -36.5t-14 -37.5t-14.5 -42.5
q-14 -44 -11 -94t17 -95q7 -21 -2.5 -44t-28 -43t-43.5 -36.5t-50 -23.5q-21 -6 -39.5 -5t-31 12t-16.5 33.5t5 59.5q-47 -18 -99.5 -38t-105.5 -36t-103 -24t-92 -1q-58 9 -89 27.5t-41.5 43t-4 54t23.5 61.5q19 35 43.5 62.5t51.5 50t55.5 40.5t56.5 34q42 25 94 48
t106 41t107 30.5t98 17.5q4 25 -5.5 40.5t-30.5 23t-50.5 6.5t-63.5 -9q-20 -5 -39 -16t-37 -20.5t-37 -15.5t-39 0q-17 4 -19 21.5t7 39t26 44.5t39 38q25 18 72 29t101 14t107 -3t91 -22q24 -10 36 -23t14.5 -34t-3 -53t-17.5 -80zM545 348q-84 -5 -145 -24t-114 -40
q-18 -8 -47.5 -21t-58 -30t-50.5 -36t-25 -38q-1 -4 1 -8t11.5 -7t28.5 -4.5t54 -0.5q22 1 58 9t75.5 20t76.5 25.5t60 25.5q11 5 21.5 11t21.5 13q6 22 16.5 51t15.5 54z" />
    <glyph glyph-name="Aacute" unicode="&#xc1;" horiz-adv-x="767" 
d="M888 849q-17 -17 -37.5 -26.5t-42.5 -17.5t-44 -14.5t-44 -15.5q-44 -18 -94.5 -26.5t-95.5 -10.5q-21 -1 -36.5 13.5t-21.5 34t0.5 38.5t30.5 27q36 12 73 20t72.5 18t69.5 25.5t65 42.5q11 10 24 12.5t25.5 -0.5t24.5 -10t21 -16t16 -20.5t9.5 -24.5t-1 -25.5
t-14.5 -23.5zM727 474q-5 -20 -11.5 -38.5t-13 -36.5t-14 -37.5t-14.5 -42.5q-14 -44 -11 -94t17 -95q7 -21 -2.5 -44t-28 -43t-43.5 -36.5t-50 -23.5q-21 -6 -39.5 -5t-31 12t-16.5 33.5t5 59.5q-47 -18 -99.5 -38t-105.5 -36t-103 -24t-92 -1q-58 9 -89 27.5t-41.5 43
t-4 54t23.5 61.5q19 35 43.5 62.5t51.5 50t55.5 40.5t56.5 34q42 25 94 48t106 41t107 30.5t98 17.5q4 25 -5.5 40.5t-30.5 23t-50.5 6.5t-63.5 -9q-20 -5 -39 -16t-37 -20.5t-37 -15.5t-39 0q-17 4 -19 21.5t7 39t26 44.5t39 38q25 18 72 29t101 14t107 -3t91 -22
q24 -10 36 -23t14.5 -34t-3 -53t-17.5 -80zM545 348q-84 -5 -145 -24t-114 -40q-18 -8 -47.5 -21t-58 -30t-50.5 -36t-25 -38q-1 -4 1 -8t11.5 -7t28.5 -4.5t54 -0.5q22 1 58 9t75.5 20t76.5 25.5t60 25.5q11 5 21.5 11t21.5 13q6 22 16.5 51t15.5 54z" />
    <glyph glyph-name="Acircumflex" unicode="&#xc2;" horiz-adv-x="767" 
d="M731 845q37 -12 52.5 -26t15.5 -29t-12 -28t-30 -22t-39.5 -12.5t-39.5 1.5t-42 15t-49 21.5t-48.5 23.5t-39.5 20q-5 -6 -25.5 -21t-44 -31.5t-44.5 -30.5t-28 -19q-18 -12 -42 -9.5t-42 13.5t-24 27t12 31q17 13 37 26t40.5 26t40 26t35.5 28q27 26 50 39.5t58 15.5
q31 1 52 -11t48 -26q16 -8 28.5 -14.5t24.5 -12t25.5 -10.5t30.5 -11zM727 474q-5 -20 -11.5 -38.5t-13 -36.5t-14 -37.5t-14.5 -42.5q-14 -44 -11 -94t17 -95q7 -21 -2.5 -44t-28 -43t-43.5 -36.5t-50 -23.5q-21 -6 -39.5 -5t-31 12t-16.5 33.5t5 59.5q-47 -18 -99.5 -38
t-105.5 -36t-103 -24t-92 -1q-58 9 -89 27.5t-41.5 43t-4 54t23.5 61.5q19 35 43.5 62.5t51.5 50t55.5 40.5t56.5 34q42 25 94 48t106 41t107 30.5t98 17.5q4 25 -5.5 40.5t-30.5 23t-50.5 6.5t-63.5 -9q-20 -5 -39 -16t-37 -20.5t-37 -15.5t-39 0q-17 4 -19 21.5t7 39
t26 44.5t39 38q25 18 72 29t101 14t107 -3t91 -22q24 -10 36 -23t14.5 -34t-3 -53t-17.5 -80zM545 348q-84 -5 -145 -24t-114 -40q-18 -8 -47.5 -21t-58 -30t-50.5 -36t-25 -38q-1 -4 1 -8t11.5 -7t28.5 -4.5t54 -0.5q22 1 58 9t75.5 20t76.5 25.5t60 25.5q11 5 21.5 11
t21.5 13q6 22 16.5 51t15.5 54z" />
    <glyph glyph-name="Atilde" unicode="&#xc3;" horiz-adv-x="767" 
d="M842 800q-14 -25 -37.5 -44t-51.5 -31t-58 -15.5t-58 1.5q-24 5 -49 15.5t-49.5 22.5t-47.5 22t-44 14q-26 5 -41.5 2.5t-25.5 -10.5t-17 -20t-17 -24q-6 -7 -10.5 -18t-13 -18t-23 -5.5t-38.5 19.5q-7 6 -15 16.5t-12.5 24.5t-5 31t7.5 36q7 19 24 37.5t39.5 31.5
t49.5 18.5t56 -0.5q26 -5 52 -17t52 -25t52 -25t52 -17q16 -3 35 2.5t37 17t31.5 27t19.5 32.5q2 6 11.5 9t23 2t29 -5.5t30.5 -11.5q28 -14 28.5 -40t-16.5 -55zM727 474q-5 -20 -11.5 -38.5t-13 -36.5t-14 -37.5t-14.5 -42.5q-14 -44 -11 -94t17 -95q7 -21 -2.5 -44
t-28 -43t-43.5 -36.5t-50 -23.5q-21 -6 -39.5 -5t-31 12t-16.5 33.5t5 59.5q-47 -18 -99.5 -38t-105.5 -36t-103 -24t-92 -1q-58 9 -89 27.5t-41.5 43t-4 54t23.5 61.5q19 35 43.5 62.5t51.5 50t55.5 40.5t56.5 34q42 25 94 48t106 41t107 30.5t98 17.5q4 25 -5.5 40.5
t-30.5 23t-50.5 6.5t-63.5 -9q-20 -5 -39 -16t-37 -20.5t-37 -15.5t-39 0q-17 4 -19 21.5t7 39t26 44.5t39 38q25 18 72 29t101 14t107 -3t91 -22q24 -10 36 -23t14.5 -34t-3 -53t-17.5 -80zM545 348q-84 -5 -145 -24t-114 -40q-18 -8 -47.5 -21t-58 -30t-50.5 -36t-25 -38
q-1 -4 1 -8t11.5 -7t28.5 -4.5t54 -0.5q22 1 58 9t75.5 20t76.5 25.5t60 25.5q11 5 21.5 11t21.5 13q6 22 16.5 51t15.5 54z" />
    <glyph glyph-name="Adieresis" unicode="&#xc4;" horiz-adv-x="767" 
d="M649 890q19 -48 -5 -88.5t-74 -65.5q-21 -11 -37 -6.5t-25.5 18t-13 33.5t0 40.5t13.5 38.5t28 28q14 7 30.5 15.5t32.5 12t29 -1.5t21 -24zM372 751q-14 -8 -31 -16t-33 -11.5t-29.5 1.5t-20.5 24q-19 48 5 88t74 66q21 11 37 6.5t25.5 -18t13 -33.5t0.5 -40.5
t-13.5 -38.5t-27.5 -28zM727 474q-5 -20 -11.5 -38.5t-13 -36.5t-14 -37.5t-14.5 -42.5q-14 -44 -11 -94t17 -95q7 -21 -2.5 -44t-28 -43t-43.5 -36.5t-50 -23.5q-21 -6 -39.5 -5t-31 12t-16.5 33.5t5 59.5q-47 -18 -99.5 -38t-105.5 -36t-103 -24t-92 -1q-58 9 -89 27.5
t-41.5 43t-4 54t23.5 61.5q19 35 43.5 62.5t51.5 50t55.5 40.5t56.5 34q42 25 94 48t106 41t107 30.5t98 17.5q4 25 -5.5 40.5t-30.5 23t-50.5 6.5t-63.5 -9q-20 -5 -39 -16t-37 -20.5t-37 -15.5t-39 0q-17 4 -19 21.5t7 39t26 44.5t39 38q25 18 72 29t101 14t107 -3t91 -22
q24 -10 36 -23t14.5 -34t-3 -53t-17.5 -80zM545 348q-84 -5 -145 -24t-114 -40q-18 -8 -47.5 -21t-58 -30t-50.5 -36t-25 -38q-1 -4 1 -8t11.5 -7t28.5 -4.5t54 -0.5q22 1 58 9t75.5 20t76.5 25.5t60 25.5q11 5 21.5 11t21.5 13q6 22 16.5 51t15.5 54z" />
    <glyph glyph-name="Aring" unicode="&#xc5;" horiz-adv-x="767" 
d="M859 815q4 -23 -5.5 -46t-29.5 -43t-49.5 -37.5t-65.5 -29.5q19 -10 28.5 -23.5t10.5 -34.5t-4.5 -51.5t-16.5 -75.5q-5 -20 -11.5 -38.5t-13 -36.5t-14 -37.5t-14.5 -42.5q-14 -44 -11 -94t17 -95q8 -26 -7.5 -54.5t-42.5 -51t-59.5 -36.5t-58.5 -10.5t-38.5 28
t0.5 77.5q-47 -18 -99.5 -38t-105.5 -36t-103 -24t-92 -1q-58 9 -89 27.5t-41.5 43t-4 54t23.5 61.5q19 35 43.5 62.5t51.5 50t55.5 40.5t56.5 34q42 25 94 48t106 41t107 30.5t98 17.5q4 25 -5.5 40.5t-30.5 23t-50.5 6.5t-63.5 -9q-20 -5 -39 -16t-37 -20.5t-37 -15.5
t-39 0q-17 4 -19 21.5t7 39t26 44.5t39 38q13 9 32 16.5t42 13.5q-32 22 -41.5 43t-5 42.5t20 42.5t34.5 43q14 16 39 29.5t54 23.5t59.5 16.5t55.5 7.5q38 1 79.5 -6.5t76.5 -22.5t59 -35.5t28 -44.5zM719 767q9 9 3.5 24t-28.5 20q-18 4 -39.5 6.5t-44.5 2.5t-47 -5
t-49 -16q-24 -12 -31.5 -26t7.5 -28q13 -12 42 -15t61 -2q18 0 37.5 4t37 9.5t31 12.5t20.5 13zM545 348q-84 -5 -145 -24t-114 -40q-18 -8 -47.5 -21t-58 -30t-50.5 -36t-25 -38q-1 -4 1 -8t11.5 -7t28.5 -4.5t54 -0.5q22 1 58 9t75.5 20t76.5 25.5t60 25.5q11 5 21.5 11
t21.5 13q6 22 16.5 51t15.5 54z" />
    <glyph glyph-name="AE" unicode="&#xc6;" horiz-adv-x="1294" 
d="M1299 773q7 -12 6 -31t-8 -39t-19 -39t-26.5 -29.5t-31.5 -10.5t-33 18q-18 19 -36 35.5t-42 22.5t-58.5 -3t-85.5 -40q-15 -9 -41.5 -26t-54.5 -37.5t-53 -42t-38 -39.5q37 3 88 8t105 10.5t107 10t95 5.5q18 1 36 0t33.5 -7t29 -19t22.5 -37q14 -37 4 -59.5t-35 -33.5
q-19 -8 -38.5 -8.5t-39.5 -2.5q-52 -4 -123 -10t-142.5 -14t-134 -19t-98.5 -25q-15 -13 -20 -35t-1 -44.5t15 -42t28 -27.5q36 -17 87.5 -13.5t106 18.5t105 35.5t85.5 38.5q19 9 41 18t41.5 9t35 -12t23.5 -44q3 -11 3 -24.5t-3 -26.5t-11 -24t-21 -18q-59 -29 -112 -53
t-106.5 -43t-110.5 -32t-124 -21q-9 -1 -30.5 -3t-49 -1.5t-56.5 5.5t-54 19t-41.5 38t-17.5 63q-47 -21 -103.5 -44t-114.5 -40t-112 -25.5t-96 -0.5q-58 10 -89 32t-41.5 51t-4 64t23.5 72q19 42 43.5 74t51.5 58.5t55.5 47.5t56.5 40q42 29 94 56t106 48.5t107 36
t98 20.5q4 30 -5.5 48t-30.5 26.5t-50.5 7t-63.5 -10.5q-20 -5 -39 -17.5t-37 -24t-37 -18t-39 -0.5q-17 5 -19 25.5t7 46t26 52t39 44.5q25 21 72 34.5t101 17t107 -3.5t91 -26q19 -10 31 -22t16.5 -29.5t3.5 -42t-7 -59.5q49 57 106.5 107.5t120.5 79.5q58 26 110 35.5
t94.5 3.5t75 -27t51.5 -55zM545 409q-84 -6 -145 -28t-114 -47q-18 -9 -47.5 -24.5t-58 -35t-50.5 -42t-25 -44.5q-1 -5 1 -9.5t11.5 -8.5t28.5 -5.5t54 -0.5q22 1 58 10.5t75.5 23t76.5 30t60 30.5q11 6 21.5 13t21.5 15q6 26 16.5 60t15.5 63z" />
    <glyph glyph-name="Ccedilla" unicode="&#xc7;" horiz-adv-x="851" 
d="M831 764q12 -15 13.5 -38t-4.5 -48t-17 -48.5t-24.5 -38.5t-27.5 -18.5t-25 11.5q-32 45 -74.5 62.5t-95.5 2.5q-123 -37 -223.5 -113t-166.5 -171q-15 -23 -20.5 -40.5t-4 -31t9.5 -22.5t19 -14q32 -14 71.5 -15t83 7t88 22t86 30t79 32t65.5 28q18 8 34.5 3.5
t28.5 -16.5t19.5 -29.5t8.5 -35.5t-5.5 -34t-22.5 -25q-60 -37 -128 -64.5t-137 -45.5q13 -34 18 -74t-18 -84q-15 -29 -48.5 -50t-73.5 -32.5t-80 -12.5t-68 11q-14 6 -24.5 20.5t-14 29.5t1 27.5t22.5 13.5q19 1 42.5 2t45 4.5t37.5 11.5t21 23q9 27 7.5 45t-9.5 38
q-103 -16 -173 -3.5t-120 52.5q-30 24 -37 62.5t1.5 81t29 85t45.5 74.5q45 59 103 113.5t121 101t127.5 82t124.5 56.5q36 12 80.5 15.5t86.5 -1t75.5 -15.5t46.5 -27z" />
    <glyph glyph-name="Egrave" unicode="&#xc8;" horiz-adv-x="784" 
d="M634 749q-37 5 -62.5 11.5t-49 14.5t-49.5 17.5t-63 19.5q-17 5 -46.5 15.5t-53.5 26.5q-21 13 -31 40t-9 52t14 41t39 8q41 -22 76.5 -42.5t71 -39t73.5 -34.5t83 -30q16 -5 28.5 -21.5t15.5 -34t-5 -31t-32 -13.5zM722 657q6 -10 5 -26t-8 -33.5t-18.5 -33t-26 -25
t-31.5 -9t-33 15.5q-18 16 -36 30t-42 19t-58.5 -2.5t-85.5 -33.5q-15 -8 -41.5 -22.5t-54.5 -32t-53 -36t-38 -33.5q37 2 88 6.5t105 9.5t107 8.5t95 4.5q18 0 36 -0.5t33.5 -5.5t29 -16t22.5 -31q14 -32 4 -51.5t-35 -27.5q-19 -7 -38.5 -7.5t-39.5 -2.5q-52 -3 -123 -8
t-142.5 -12t-134 -16.5t-98.5 -21.5q-15 -11 -20 -29.5t-1 -37.5t15 -35.5t28 -23.5q24 -10 55.5 -11.5t66.5 2.5t71.5 12.5t71 19.5t65.5 22.5t54 21.5q19 8 41 15t41.5 7.5t35 -9.5t23.5 -37q5 -20 0 -44t-32 -36q-59 -25 -112 -45.5t-106.5 -36t-110.5 -27t-124 -17.5
q-31 -3 -72.5 9t-78.5 35t-62.5 55.5t-23.5 70.5q2 48 16.5 90.5t37.5 85.5q5 10 23 36t46 61t64.5 75t79.5 78t91 70.5t98 51.5q58 22 110 30.5t94.5 3.5t75 -23t51.5 -47z" />
    <glyph glyph-name="Eacute" unicode="&#xc9;" horiz-adv-x="784" 
d="M759 834q-17 -17 -37.5 -26.5t-42.5 -17.5t-44.5 -14.5t-43.5 -15.5q-44 -18 -94.5 -26.5t-95.5 -10.5q-21 -1 -36.5 13t-21.5 33.5t0.5 38.5t30.5 28q36 12 73 20t72.5 18t69 25.5t64.5 42.5q12 10 25 12.5t25.5 -0.5t24.5 -10t21 -16t15.5 -20.5t9 -24.5t-0.5 -25.5
t-14 -23.5zM740 657q7 -10 6 -26t-8 -33.5t-19 -33t-26.5 -25t-31.5 -9t-33 15.5q-18 16 -36 30t-42 19t-58 -2.5t-85 -33.5q-15 -8 -41.5 -22.5t-55 -32t-53.5 -36t-37 -33.5q37 2 87.5 6.5t105 9.5t107.5 8.5t94 4.5q18 0 36 -0.5t33.5 -5.5t29 -16t22.5 -31
q14 -32 4.5 -51.5t-35.5 -27.5q-19 -7 -38.5 -7.5t-39.5 -2.5q-52 -3 -123 -8t-142.5 -12t-134 -16.5t-98.5 -21.5q-15 -11 -19.5 -29.5t-1 -37.5t15 -35.5t28.5 -23.5q36 -15 87.5 -12t105.5 15.5t105 30.5t86 33q19 8 40.5 15t41 7.5t35 -9.5t23.5 -37q5 -20 0 -44
t-32 -36q-59 -25 -112 -45.5t-106.5 -36t-110.5 -27t-124 -17.5q-31 -3 -72.5 9t-78.5 35t-62.5 55.5t-23.5 70.5q2 48 17 90.5t38 85.5q5 10 23 36t45.5 61t64.5 75t79.5 78t90.5 70.5t98 51.5q58 22 110 30.5t94.5 3.5t75 -23t51.5 -47z" />
    <glyph glyph-name="Ecircumflex" unicode="&#xca;" horiz-adv-x="784" 
d="M724 867q36 -12 51 -26t15 -28t-11.5 -27t-29 -22t-38 -12.5t-38.5 1.5t-41.5 15t-48 21.5t-47 23t-37.5 19.5q-5 -6 -25 -21t-42.5 -30.5t-43 -29.5t-27.5 -19q-17 -12 -40.5 -9.5t-41 13.5t-23.5 26.5t12 29.5q16 13 35.5 25.5t39.5 25t39 25.5t34 28q13 12 24.5 21.5
t23.5 16.5t26 10.5t31 3.5q15 1 27 -2t23.5 -8t22.5 -11.5t24 -13.5l28 -14t24 -11.5t24.5 -10.5t29.5 -10zM739 657q6 -10 5 -26t-8 -33.5t-18.5 -33t-26.5 -25t-31.5 -9t-33.5 15.5q-18 16 -35.5 30t-41.5 19t-58.5 -2.5t-85.5 -33.5q-15 -8 -41.5 -22.5t-55 -32
t-53.5 -36t-37 -33.5q37 2 87.5 6.5t105 9.5t107.5 8.5t95 4.5q18 0 35.5 -0.5t33 -5.5t29 -16t22.5 -31q14 -32 4.5 -51.5t-35.5 -27.5q-19 -7 -38.5 -7.5t-39.5 -2.5q-35 -2 -78.5 -5t-91 -7t-95.5 -8.5t-91.5 -10t-80 -12.5t-60.5 -15q-15 -11 -20 -29.5t-1.5 -37.5
t15 -35.5t28.5 -23.5q36 -15 87.5 -12t105.5 15.5t105 30.5t86 33q19 8 40.5 15t41 7.5t35 -9.5t23.5 -37q6 -20 0.5 -44t-32.5 -36q-59 -25 -112 -45.5t-106 -36t-110.5 -27t-124.5 -17.5q-31 -3 -72.5 9t-78.5 35t-62.5 55.5t-23.5 70.5q2 48 17 90.5t38 85.5q5 10 23 36
t46 61t64.5 75t79.5 78t90.5 70.5t97.5 51.5q58 22 110 30.5t94.5 3.5t75 -23t52.5 -47z" />
    <glyph glyph-name="Edieresis" unicode="&#xcb;" horiz-adv-x="784" 
d="M775 919q9 -24 7 -46t-13 -42t-30 -36.5t-43 -29.5q-22 -11 -37.5 -6.5t-25.5 18t-13 33.5t0 40.5t13 38.5t28 28q14 7 30.5 15.5t32.5 12t29.5 -1.5t21.5 -24zM497 780q-14 -8 -30.5 -16t-32.5 -11.5t-30 1.5t-21 24q-9 24 -7 46t13 42t30 37t43 29q21 11 37 6.5t26 -18
t13 -33.5t0 -40.5t-13.5 -38.5t-27.5 -28zM738 657q6 -10 5 -26t-8 -33.5t-18.5 -33t-26 -25t-31.5 -9t-33 15.5q-18 16 -36 30t-42 19t-58.5 -2.5t-85.5 -33.5q-15 -8 -41.5 -22.5t-54.5 -32t-53 -36t-38 -33.5q37 2 88 6.5t105 9.5t107 8.5t95 4.5q18 0 36 -0.5t33.5 -5.5
t29 -16t22.5 -31q14 -32 4 -51.5t-35 -27.5q-19 -7 -38.5 -7.5t-39.5 -2.5q-52 -3 -123 -8t-142.5 -12t-134 -16.5t-98.5 -21.5q-15 -11 -20 -29.5t-1 -37.5t15 -35.5t28 -23.5q24 -10 55.5 -11.5t66.5 2.5t71.5 12.5t71 19.5t65.5 22.5t54 21.5q19 8 41 15t41.5 7.5
t35 -9.5t23.5 -37q5 -20 0 -44t-32 -36q-59 -25 -112 -45.5t-106.5 -36t-110.5 -27t-124 -17.5q-31 -3 -72.5 9t-78.5 35t-62.5 55.5t-23.5 70.5q2 48 16.5 90.5t37.5 85.5q5 10 23 36t46 61t64.5 75t79.5 78t91 70.5t98 51.5q58 22 110 30.5t94.5 3.5t75 -23t51.5 -47z" />
    <glyph glyph-name="Igrave" unicode="&#xcc;" horiz-adv-x="308" 
d="M408 726q-27 6 -46 13.5t-36.5 16.5t-36.5 19.5t-47 22.5q-12 5 -34 17.5t-40 30.5q-15 16 -22.5 47t-6.5 60t10.5 47.5t28.5 8.5q30 -26 56 -49t52.5 -44t54.5 -40t62 -35q12 -6 21 -24.5t11.5 -39t-3.5 -36t-24 -15.5zM364 609q-5 -26 -17.5 -51.5t-24.5 -49.5
q-49 -98 -94 -210t-101 -235q-6 -12 -17 -32.5t-25 -38.5q-20 -26 -43 -32t-39 16q-23 32 -21 65t16 65t33.5 63t33.5 60q26 55 47 105.5t39 97t35 89.5t35 84q5 11 13 29.5t17 35.5q19 31 41 35t39.5 -9t27 -37.5t5.5 -49.5z" />
    <glyph glyph-name="Iacute" unicode="&#xcd;" horiz-adv-x="308" 
d="M595 872q-11 -17 -25.5 -27.5t-29.5 -18.5t-30.5 -14.5t-29.5 -16.5q-30 -20 -64.5 -28.5t-65.5 -10.5q-14 -1 -25 14t-15 35t0.5 40t20.5 29q25 13 50 21.5t49.5 19t48 26.5t44.5 45q16 21 34.5 12.5t30.5 -27.5q6 -9 11 -21.5t6.5 -26t-0.5 -26.5t-10 -25zM364 609
q-5 -26 -17.5 -51.5t-24.5 -49.5q-49 -98 -94 -210t-101 -235q-6 -12 -17 -32.5t-25 -38.5q-20 -26 -43 -32t-39 16q-23 32 -21 65t16 65t33.5 63t33.5 60q26 55 47 105.5t39 97t35 89.5t35 84q5 11 13 29.5t17 35.5q19 31 41 35t39.5 -9t27 -37.5t5.5 -49.5z" />
    <glyph glyph-name="Icircumflex" unicode="&#xce;" horiz-adv-x="308" 
d="M496 841q43 -17 50.5 -39.5t-6 -41.5t-39 -29.5t-47.5 -3.5q-14 5 -33 15t-38.5 21.5t-38 23t-30.5 19.5q-4 -6 -20 -21t-34.5 -30.5t-35 -29.5t-22.5 -19q-14 -12 -33 -9.5t-33 13.5t-19 26.5t9 29.5q28 27 61.5 51t58.5 53q22 26 39 39t46 14q25 1 41.5 -10.5
t37.5 -24.5q13 -8 22.5 -14.5t19 -12t20 -10.5t24.5 -10zM364 609q-5 -26 -17.5 -51.5t-24.5 -49.5q-49 -98 -94 -210t-101 -235q-6 -12 -17 -32.5t-25 -38.5q-20 -26 -43 -32t-39 16q-23 32 -21 65t16 65t33.5 63t33.5 60q26 55 47 105.5t39 97t35 89.5t35 84q5 11 13 29.5
t17 35.5q19 31 41 35t39.5 -9t27 -37.5t5.5 -49.5z" />
    <glyph glyph-name="Idieresis" unicode="&#xcf;" horiz-adv-x="308" 
d="M548 889q9 -24 7 -46t-13 -42t-30 -37t-43 -29q-21 -11 -37 -6.5t-25.5 18t-13 33.5t-0.5 40.5t13 38.5t28 28q14 7 30.5 15.5t32.5 12t29.5 -1.5t21.5 -24zM270 750q-14 -8 -30.5 -16t-32.5 -11.5t-30 1.5t-21 24q-9 24 -7 46t13 42t30 36.5t44 29.5q21 11 37 6.5
t25.5 -18t13 -33.5t0 -40.5t-13.5 -38.5t-28 -28zM364 609q-5 -26 -17.5 -51.5t-24.5 -49.5q-49 -98 -94 -210t-101 -235q-6 -12 -17 -32.5t-25 -38.5q-20 -26 -43 -32t-39 16q-23 32 -21 65t16 65t33.5 63t33.5 60q26 55 47 105.5t39 97t35 89.5t35 84q5 11 13 29.5
t17 35.5q19 31 41 35t39.5 -9t27 -37.5t5.5 -49.5z" />
    <glyph glyph-name="Eth" unicode="&#xd0;" horiz-adv-x="885" 
d="M921 635q10 -32 -1 -73t-38.5 -86.5t-68.5 -93.5t-89.5 -94t-102 -88t-106.5 -75q-50 -32 -89 -54.5t-77.5 -40t-81.5 -31.5t-101 -28q-37 -9 -67 -4t-46 32q-8 13 -12 24t-4.5 22.5t2.5 25t9 30.5q22 56 42.5 110.5t40.5 108.5q-37 -3 -69 0q-29 4 -41 17.5t-12 32
t10.5 39t27 38t37 29.5t39.5 14l71 -5q11 29 23 59l24 60q-11 7 -17 16.5t-8.5 20t-2.5 22v23.5q0 33 15 53.5t39 32.5t53 17t57 5q41 1 82.5 2t83.5 1q49 0 107.5 -4t112.5 -19.5t96.5 -48t61.5 -90.5zM742 514q18 30 6 47.5t-38 26.5t-58.5 13t-56.5 7q-28 4 -51.5 6
t-46 1t-47 -4.5t-54.5 -10.5q-15 -35 -28.5 -66t-26.5 -60q6 0 21 3t32 7.5t32.5 8.5t23.5 6q19 4 34.5 5t25.5 -2q13 -3 18 -10.5t4.5 -16t-4.5 -17.5t-8 -15q-48 -66 -103.5 -92.5t-104.5 -18.5q-7 2 -13.5 2h-14.5q-16 -42 -31 -85t-29 -93q42 3 98 20t106 50
q67 45 116 81t85.5 69.5t63 66.5t49.5 71z" />
    <glyph glyph-name="Ntilde" unicode="&#xd1;" horiz-adv-x="759" 
d="M683 792q-12 -23 -32.5 -40t-45 -28t-51 -14.5t-50.5 1.5q-22 4 -44 14t-43.5 20.5t-41.5 20t-38 13.5q-23 4 -36.5 1.5t-22.5 -9.5t-15 -17.5t-15 -21.5q-5 -6 -9.5 -16.5t-12 -17t-20 -5t-33.5 18.5q-6 5 -13 14.5t-11 22t-4.5 28.5t6.5 33t21.5 33t34.5 28t43.5 17
t49.5 0q23 -5 45.5 -15.5t45.5 -22.5t46 -23t46 -16q14 -3 30.5 2.5t32 16t28 24.5t17.5 29q2 6 10 8.5t19.5 1.5t25.5 -4.5t27 -10.5q25 -13 25 -36.5t-15 -49.5zM734 409q-11 -33 -18 -61.5t-15 -55.5q-13 -42 -31 -72.5t-40.5 -57t-50.5 -54t-61 -63.5q-17 -18 -45.5 -43
t-57.5 -43q-20 -12 -38 -19.5t-32 -7.5t-22.5 8t-10.5 25q-3 31 6.5 49.5t26 32t36.5 26.5t37 33q37 44 55 71.5t26.5 49.5t12.5 44.5t13 57.5q5 17 11 46.5t7 59t-5 53t-25 29.5q-12 4 -32 -3t-44 -19.5t-49.5 -28t-46.5 -28.5q-20 -12 -42.5 -30.5t-46 -39t-45.5 -42.5
t-41 -42q-26 -55 -52.5 -117.5t-49.5 -119.5q-6 -14 -19.5 -28t-31 -25.5t-36.5 -18.5t-33.5 -8.5t-23 5.5t-6.5 23q7 47 16.5 75t22.5 52.5t28.5 53.5t34.5 78q7 18 19.5 57t25.5 83t24 83.5t14 57.5q8 45 28.5 73.5t49.5 40.5q19 8 34 8.5t27 -3.5t21 -12t17 -16
q11 -12 14 -24.5t0 -25.5t-10.5 -27t-16.5 -30q20 13 39.5 25.5t37 23t31.5 18.5t23 12q31 15 73 41t84.5 46.5t81 25.5t63.5 -22q18 -20 30.5 -56t17.5 -76.5t2.5 -80t-12.5 -67.5z" />
    <glyph glyph-name="Ograve" unicode="&#xd2;" horiz-adv-x="1001" 
d="M790 725q-37 5 -62.5 11.5t-49 14.5t-49.5 17t-63 19q-17 5 -46.5 15.5t-53.5 26.5q-20 13 -30.5 40t-9.5 52t14 41t39 8q41 -22 76.5 -42.5t71.5 -39t74 -34.5t83 -30q16 -5 28 -21t15 -33.5t-5 -31t-32 -13.5zM1005 487q-3 -50 -20.5 -94.5t-46.5 -84.5t-68 -77.5
t-86 -73.5q-29 -23 -71.5 -50t-92 -51.5t-102.5 -44t-102 -26.5q-42 -6 -90 -7.5t-95.5 3.5t-91 17t-76 33.5t-51 53t-15.5 75.5q2 42 16.5 86t40.5 87.5t62.5 85t83.5 77.5q68 53 131 88.5t126 59t127.5 37t135.5 22.5q59 7 112 -9t92.5 -47t61.5 -73t19 -87zM834 435
q6 36 -2 59.5t-26.5 37t-45 18.5t-57.5 5t-63.5 -4t-62.5 -8q-66 -9 -130.5 -41t-121.5 -72q-32 -23 -61.5 -54t-50.5 -63t-31 -62.5t-2 -51.5q13 -36 46.5 -54.5t79.5 -23t100.5 4.5t111 28.5t110 49t96.5 65.5t72.5 78t37.5 88z" />
    <glyph glyph-name="Oacute" unicode="&#xd3;" horiz-adv-x="1001" 
d="M939 853q-17 -16 -37.5 -25.5t-42.5 -17.5q-21 -8 -43.5 -14.5t-43.5 -15.5q-45 -19 -95 -27.5t-95 -10.5q-21 -1 -36.5 13.5t-21.5 34t0.5 38.5t30.5 27q36 13 72.5 21t72 18t69.5 25.5t65 42.5q11 10 24 12.5t26 -0.5t24.5 -10t20.5 -16t16 -21t9.5 -24.5t-0.5 -25.5
t-15 -24zM1005 487q-3 -50 -20.5 -94.5t-46.5 -84.5t-68 -77.5t-86 -73.5q-29 -23 -71.5 -50t-92 -51.5t-102.5 -44t-102 -26.5q-42 -6 -90 -7.5t-95.5 3.5t-91 17t-76 33.5t-51 53t-15.5 75.5q2 42 16.5 86t40.5 87.5t62.5 85t83.5 77.5q68 53 131 88.5t126 59t127.5 37
t135.5 22.5q59 7 112 -9t92.5 -47t61.5 -73t19 -87zM834 435q6 36 -2 59.5t-26.5 37t-45 18.5t-57.5 5t-63.5 -4t-62.5 -8q-66 -9 -130.5 -41t-121.5 -72q-32 -23 -61.5 -54t-50.5 -63t-31 -62.5t-2 -51.5q13 -36 46.5 -54.5t79.5 -23t100.5 4.5t111 28.5t110 49t96.5 65.5
t72.5 78t37.5 88z" />
    <glyph glyph-name="Ocircumflex" unicode="&#xd4;" horiz-adv-x="1001" 
d="M912 839q43 -11 61 -25t18 -28t-14 -26.5t-35 -21.5t-45.5 -12.5t-45.5 1.5q-21 4 -49.5 14t-57.5 21.5t-56 23t-45 19.5q-4 -4 -16.5 -12t-29 -18t-35 -21t-36 -20.5t-30.5 -17t-19 -10.5q-20 -12 -48 -9.5t-49 13t-28 26.5t14 30q41 26 90.5 50t86.5 53
q16 12 30.5 21.5t29 16t30.5 10t36 4.5q35 1 60 -10t57 -25q18 -8 32.5 -14t28.5 -11.5t29.5 -11t35.5 -10.5zM1005 487q-3 -50 -20.5 -94.5t-46.5 -84.5t-68 -77.5t-86 -73.5q-29 -23 -71.5 -50t-92 -51.5t-102.5 -44t-102 -26.5q-42 -6 -90 -7.5t-95.5 3.5t-91 17
t-76 33.5t-51 53t-15.5 75.5q2 42 16.5 86t40.5 87.5t62.5 85t83.5 77.5q68 53 131 88.5t126 59t127.5 37t135.5 22.5q59 7 112 -9t92.5 -47t61.5 -73t19 -87zM834 435q6 36 -2 59.5t-26.5 37t-45 18.5t-57.5 5t-63.5 -4t-62.5 -8q-66 -9 -130.5 -41t-121.5 -72
q-32 -23 -61.5 -54t-50.5 -63t-31 -62.5t-2 -51.5q13 -36 46.5 -54.5t79.5 -23t100.5 4.5t111 28.5t110 49t96.5 65.5t72.5 78t37.5 88z" />
    <glyph glyph-name="Otilde" unicode="&#xd5;" horiz-adv-x="950" 
d="M1026 816q-14 -25 -37.5 -44t-51.5 -30.5t-58 -15.5t-58 2q-24 5 -49 15.5t-49.5 22t-47.5 22t-44 14.5q-26 5 -41.5 2.5t-25.5 -10.5t-17 -20t-17 -24q-6 -7 -10.5 -18t-13 -18t-23 -5.5t-38.5 19.5q-7 6 -14.5 16t-12.5 24.5t-5.5 31.5t7.5 36q7 19 24 37t39.5 31
t50 19t56.5 0q26 -5 51.5 -17t51.5 -25.5t52 -25.5t52 -17q16 -3 35 3t37 17.5t31.5 27t19.5 31.5q2 6 11.5 9t23 2.5t29 -5t30.5 -11.5q28 -14 28.5 -40.5t-16.5 -55.5zM1005 487q-3 -50 -20.5 -94.5t-46.5 -84.5t-68 -77.5t-86 -73.5q-29 -23 -71.5 -50t-92 -51.5
t-102.5 -44t-102 -26.5q-42 -6 -90 -7.5t-95.5 3.5t-91 17t-76 33.5t-51 53t-15.5 75.5q2 42 16.5 86t40.5 87.5t62.5 85t83.5 77.5q68 53 131 88.5t126 59t127.5 37t135.5 22.5q59 7 112 -9t92.5 -47t61.5 -73t19 -87zM834 435q6 36 -2 59.5t-26.5 37t-45 18.5t-57.5 5
t-63.5 -4t-62.5 -8q-66 -9 -130.5 -41t-121.5 -72q-32 -23 -61.5 -54t-50.5 -63t-31 -62.5t-2 -51.5q13 -36 46.5 -54.5t79.5 -23t100.5 4.5t111 28.5t110 49t96.5 65.5t72.5 78t37.5 88z" />
    <glyph glyph-name="Odieresis" unicode="&#xd6;" horiz-adv-x="900" 
d="M698 873q9 -24 7 -46t-13 -42t-30 -37t-43 -30q-22 -11 -37.5 -6.5t-25.5 18t-13.5 33.5t0 40.5t13.5 39t28 27.5q14 8 30.5 16.5t32.5 11.5t29.5 -1.5t21.5 -23.5zM420 734q-14 -8 -30.5 -16.5t-32.5 -12t-30 1.5t-21 24q-9 24 -7 46t13 42t30 37t43 30q21 11 37 6.5
t25.5 -18t13 -33.5t0.5 -40.5t-13.5 -39t-27.5 -27.5zM955 487q-3 -50 -20.5 -94.5t-46.5 -84.5t-68 -77.5t-86 -73.5q-29 -23 -71.5 -50t-92 -51.5t-102.5 -44t-102 -26.5q-42 -6 -90 -7.5t-95.5 3.5t-91 17t-76 33.5t-51 53t-15.5 75.5q2 42 16.5 86t40.5 87.5t62.5 85
t83.5 77.5q68 53 131 88.5t126 59t127.5 37t135.5 22.5q59 7 112 -9t92.5 -47t61.5 -73t19 -87zM784 435q6 36 -2 59.5t-26.5 37t-45 18.5t-57.5 5t-63.5 -4t-62.5 -8q-66 -9 -130.5 -41t-121.5 -72q-32 -23 -61.5 -54t-50.5 -63t-31 -62.5t-2 -51.5q13 -36 46.5 -54.5
t79.5 -23t100.5 4.5t111 28.5t110 49t96.5 65.5t72.5 78t37.5 88z" />
    <glyph glyph-name="multiply" unicode="&#xd7;" horiz-adv-x="682" 
d="M675 179q3 -14 -4.5 -30t-20 -28.5t-27 -19t-26.5 -0.5q-39 29 -67.5 54.5t-52.5 48.5t-47.5 44.5t-52.5 43.5q-21 -27 -41.5 -57.5t-40 -61t-38 -60t-35.5 -53.5q-9 -12 -22.5 -8t-24.5 17t-17 29.5t2 29.5q34 57 72.5 114t64.5 118q-23 33 -47.5 60.5t-48.5 54.5
t-46.5 55.5t-41.5 64.5q-11 20 -7 45t20 48q20 29 38 28t33.5 -17t28 -39t22.5 -36q18 -25 31.5 -44t27 -35t29.5 -31t38 -32q29 40 49 72.5t38 62t39 57.5t53 61q5 9 17 4.5t23 -16.5t16 -28.5t-5 -31.5q-21 -32 -40.5 -58t-39 -54t-40 -62t-42.5 -80q33 -39 60.5 -68
t54.5 -54.5t55.5 -50.5t62.5 -57z" />
    <glyph glyph-name="Oslash" unicode="&#xd8;" horiz-adv-x="811" 
d="M889 785q-20 -23 -41 -46t-43 -48q25 -43 32 -94.5t-10 -109.5q-21 -74 -64.5 -145t-102 -133.5t-128.5 -113t-144 -82.5q-54 -23 -120.5 -31t-126.5 3q-15 -16 -31 -32.5t-33.5 -29.5t-37.5 -21t-45 -8q-16 0 -27.5 6t-16.5 16.5t-2 24.5t16 31q22 29 55 67
q-23 21 -34 46q-29 67 -22.5 132t36 128.5t75.5 125.5t96 122q37 45 88.5 84.5t106 69.5t107.5 48t92 21t76 -5.5t70 -26.5q26 28 48 52t37 43q24 28 51 28t45.5 -17.5t21 -46.5t-23.5 -58zM660 533q-33 -35 -67 -70t-70 -70q-16 -16 -41 -42.5t-55.5 -59t-65 -70
t-69.5 -74.5q34 0 72.5 12.5t76.5 33.5t73 49t62 60q20 24 37 54.5t29 62t17 61.5t1 53zM569 636q-19 9 -42.5 12t-53 -3t-65.5 -23t-80 -48q-73 -53 -123.5 -128t-62.5 -163q-5 -31 1.5 -51.5t19.5 -34.5q39 42 79 83.5t77 81t69.5 75t57.5 64.5q29 33 60 67t63 68z" />
    <glyph glyph-name="Ugrave" unicode="&#xd9;" horiz-adv-x="770" 
d="M582 691q-37 4 -62.5 10.5t-49 14t-49.5 16t-64 18.5q-17 5 -47 15t-54 25q-21 13 -31.5 38.5t-9.5 49.5t14.5 39t39.5 7q41 -21 77 -40.5t72 -36.5t74 -33t84 -29q17 -5 29 -20t15 -31.5t-5.5 -29.5t-32.5 -13zM810 593q-21 -45 -34 -73t-24 -54t-24.5 -58t-36.5 -84
q-10 -23 -24.5 -54t-28.5 -63q-13 -32 -20 -61.5t-2 -51.5q1 -9 4 -15.5t4.5 -13.5t1 -14.5t-4.5 -18.5q-5 -13 -15 -27.5t-25 -26.5t-36.5 -20t-49.5 -8q-23 0 -36 13.5t-18.5 33.5t-6 42.5t0.5 39.5q-24 -12 -53.5 -29t-61.5 -34t-64.5 -31t-61.5 -20q-46 -10 -91 -10.5
t-77.5 9.5t-48 32t-3.5 58q23 66 51.5 141t58.5 152t60 152.5t57 143.5q6 16 23 23t38 6.5t42 -7.5t36 -20t20.5 -31.5t-5.5 -40.5q-12 -26 -24 -47.5t-24.5 -43.5t-25.5 -46.5t-27 -55.5q-29 -62 -49.5 -116t-27.5 -92q-8 -38 12.5 -41.5t85.5 16.5q46 15 85 35t70 43
t52 46t31 44q23 49 44.5 99.5t40.5 98.5t35 92t28 79q4 14 20 19t36 2t41 -12.5t36 -24t20.5 -34t-4.5 -41.5z" />
    <glyph glyph-name="Uacute" unicode="&#xda;" horiz-adv-x="770" 
d="M773 838q-16 -16 -36 -25.5t-40 -17.5t-41.5 -14t-41.5 -15q-42 -18 -90 -26.5t-90 -10.5q-20 -1 -35 13t-20.5 33t0.5 38t29 27q34 12 69 20t68.5 18t66 25t61.5 42q22 20 47.5 12t42.5 -26q9 -9 15.5 -20.5t8.5 -24t-1 -25t-13 -23.5zM810 593q-21 -45 -34 -73t-24 -54
t-24.5 -58t-36.5 -84q-10 -23 -24.5 -54t-28.5 -63q-13 -32 -20 -61.5t-2 -51.5q1 -9 4 -15.5t4.5 -13.5t1 -14.5t-4.5 -18.5q-5 -13 -15 -27.5t-25 -26.5t-36.5 -20t-49.5 -8q-23 0 -36 13.5t-18.5 33.5t-6 42.5t0.5 39.5q-24 -12 -53.5 -29t-61.5 -34t-64.5 -31t-61.5 -20
q-46 -10 -91 -10.5t-77.5 9.5t-48 32t-3.5 58q23 66 51.5 141t58.5 152t60 152.5t57 143.5q6 16 23 23t38 6.5t42 -7.5t36 -20t20.5 -31.5t-5.5 -40.5q-12 -26 -24 -47.5t-24.5 -43.5t-25.5 -46.5t-27 -55.5q-29 -62 -49.5 -116t-27.5 -92q-8 -38 12.5 -41.5t85.5 16.5
q46 15 85 35t70 43t52 46t31 44q23 49 44.5 99.5t40.5 98.5t35 92t28 79q4 14 20 19t36 2t41 -12.5t36 -24t20.5 -34t-4.5 -41.5z" />
    <glyph glyph-name="Ucircumflex" unicode="&#xdb;" horiz-adv-x="770" 
d="M721 862q38 -12 54 -26t16 -28.5t-12 -28t-31 -22.5t-40.5 -12.5t-40.5 1.5q-18 5 -43 15t-50.5 21.5t-49.5 23.5l-40 20q-5 -6 -26 -21t-45 -31t-46 -30.5t-29 -19.5q-18 -12 -42.5 -9t-43 14t-25 27t12.5 30q18 13 38.5 26t41 25.5t40.5 26t36 28.5q28 25 51.5 38.5
t59.5 14.5q16 1 29 -2t25 -8t23.5 -12t25.5 -14l29 -14.5t25.5 -12t25.5 -10.5t31 -10zM810 593q-21 -45 -34 -73t-24 -54t-24.5 -58t-36.5 -84q-10 -23 -24.5 -54t-28.5 -63q-13 -32 -20 -61.5t-2 -51.5q1 -9 4 -15.5t4.5 -13.5t1 -14.5t-4.5 -18.5q-5 -13 -15 -27.5
t-25 -26.5t-36.5 -20t-49.5 -8q-23 0 -36 13.5t-18.5 33.5t-6 42.5t0.5 39.5q-24 -12 -53.5 -29t-61.5 -34t-64.5 -31t-61.5 -20q-46 -10 -91 -10.5t-77.5 9.5t-48 32t-3.5 58q23 66 51.5 141t58.5 152t60 152.5t57 143.5q6 16 23 23t38 6.5t42 -7.5t36 -20t20.5 -31.5
t-5.5 -40.5q-12 -26 -24 -47.5t-24.5 -43.5t-25.5 -46.5t-27 -55.5q-29 -62 -49.5 -116t-27.5 -92q-8 -38 12.5 -41.5t85.5 16.5q46 15 85 35t70 43t52 46t31 44q23 49 44.5 99.5t40.5 98.5t35 92t28 79q4 14 20 19t36 2t41 -12.5t36 -24t20.5 -34t-4.5 -41.5z" />
    <glyph glyph-name="Udieresis" unicode="&#xdc;" horiz-adv-x="700" 
d="M640 893q20 -47 -7 -88t-81 -66q-23 -11 -40.5 -6.5t-28 18t-14.5 33.5t-0.5 40.5t15 38.5t30.5 28q15 7 33.5 15.5t36.5 12t33 -1.5t23 -24zM334 754q-15 -8 -33.5 -16t-36 -11.5t-32.5 1.5t-24 24q-20 47 7 88t81 66q23 11 40.5 6.5t28 -18t14.5 -33.5t0.5 -40.5
t-15 -38.5t-30.5 -28zM755 573q-21 -45 -34 -73t-24 -54t-24.5 -58t-36.5 -84q-10 -23 -24.5 -54t-28.5 -63q-13 -32 -20 -61.5t-2 -51.5q1 -9 4 -15.5t4.5 -13.5t1 -14.5t-4.5 -18.5q-5 -13 -15 -27.5t-25 -26.5t-36.5 -20t-49.5 -8q-23 0 -36 13.5t-18.5 33.5t-6 42.5
t0.5 39.5q-24 -12 -53.5 -29t-61.5 -34t-64.5 -31t-61.5 -20q-46 -10 -91 -10.5t-77.5 9.5t-48 32t-3.5 58q23 66 51.5 141t58.5 152t60 152.5t57 143.5q6 16 23 23t38 6.5t42 -7.5t36 -20t20.5 -31.5t-5.5 -40.5q-12 -26 -24 -47.5t-24.5 -43.5t-25.5 -46.5t-27 -55.5
q-29 -62 -49.5 -116t-27.5 -92q-8 -38 12.5 -41.5t85.5 16.5q46 15 85 35t70 43t52 46t31 44q23 49 44.5 99.5t40.5 98.5t35 92t28 79q4 14 20 19t36 2t41 -12.5t36 -24t20.5 -34t-4.5 -41.5z" />
    <glyph glyph-name="Yacute" unicode="&#xdd;" horiz-adv-x="825" 
d="M925 859q-17 -16 -37.5 -25.5t-42.5 -17.5t-44.5 -14.5t-43.5 -15.5q-44 -19 -94.5 -27.5t-95.5 -10.5q-21 -1 -36.5 13.5t-21.5 34t0.5 38.5t30.5 27q36 13 73 21t72.5 18t69 25.5t64.5 42.5q12 10 25 12.5t25.5 -0.5t24.5 -10.5t21 -16.5t15.5 -20.5t9 -24t-0.5 -25.5
t-14 -24zM907 673q-7 -16 -19.5 -30.5t-25.5 -28.5t-25.5 -28.5t-19.5 -29.5q-5 -11 -9 -26.5t-7.5 -32t-5.5 -31.5t-2 -24q2 -53 -12 -103.5t-42 -113.5q-9 -19 -23.5 -42.5t-34.5 -47t-45 -45t-55 -36.5q-50 -25 -87.5 -43t-74 -30t-76.5 -17.5t-94 -5.5q-14 0 -33.5 0.5
t-43.5 5t-52 14t-58 28.5q-14 8 -22 24.5t-11 35t-1 37.5t9 32.5t19 20t28 0.5q22 -8 42.5 -17t42.5 -16.5t45.5 -12.5t51.5 -5q81 0 145 16.5t123 58.5q34 24 48 49t22 57q-35 0 -77 -5.5t-85.5 -15.5t-86 -23t-78.5 -26q-49 -18 -81 -24t-43 5q-28 26 -37 58.5t-6 67.5
t15.5 69.5t28.5 64.5t32 53.5t27 36.5q29 35 59 70t67 67q19 16 40.5 23.5t39 7t28 -10t7.5 -28t-22.5 -46t-62.5 -65.5q-23 -20 -45 -52.5t-35.5 -63t-13.5 -52.5t21 -20q15 1 35 3t42 5t43 7t36 9q39 13 80.5 24t81.5 13q2 26 8 52.5t18 52.5q7 16 20 34t28 36t31.5 33.5
t31.5 27.5q11 9 29 17.5t38 14t39.5 8t33 -0.5t19 -12.5t-2.5 -27.5z" />
    <glyph glyph-name="Thorn" unicode="&#xde;" horiz-adv-x="710" 
d="M772 518q-25 -60 -72.5 -102t-106 -73t-121.5 -53.5t-119 -44.5q-31 -12 -61.5 -21t-58 -16t-51 -13t-41.5 -13q-26 -54 -42 -110.5t-36 -111.5q-7 -17 -20.5 -23t-29.5 -3.5t-32.5 12.5t-28.5 24.5t-17.5 32t-0.5 35.5q13 44 23.5 70t20.5 48.5t21.5 49.5t28.5 73
q25 48 40 101t35 104q-16 11 -21 29.5t-2 34.5q4 22 20.5 41t45.5 27l13.5 54t14.5 52q4 16 17 38t28.5 40t32.5 26.5t31 -2.5q28 -22 38.5 -45t10 -47t-8 -49t-16.5 -49q94 11 182 15.5t173 -7.5q25 -3 49.5 -13t41.5 -26t23.5 -37.5t-4.5 -47.5zM597 498q6 9 -11.5 13
t-49 4t-71.5 -2.5t-79 -7t-72 -9.5t-50 -9q-31 -59 -50 -134q53 9 114.5 25.5t116.5 37t96.5 42t55.5 40.5z" />
    <glyph glyph-name="germandbls" unicode="&#xdf;" horiz-adv-x="781" 
d="M711 243q-29 -39 -63 -66.5t-76 -47.5t-93 -33t-113 -23q-9 -1 -24 3.5t-30.5 13t-27 20t-13.5 23.5t9 23.5t43 20.5q42 12 84.5 22t81 23.5t69.5 32.5t51 48q10 15 4 28t-22 23.5t-39.5 19t-48 15.5t-48.5 11.5t-40 8.5q-25 -11 -55.5 -21t-62 -20.5t-61.5 -21
t-55 -23.5q-2 -16 -2 -38.5t1 -47.5t2.5 -50.5t1.5 -47.5q1 -26 3.5 -49t13.5 -34q18 -18 20.5 -38.5t-6 -38.5t-27.5 -30.5t-45 -13.5q-10 -1 -22.5 9.5t-23 27.5t-18 38t-7.5 41q0 41 -1 70.5t-2 55t0 51.5t4 60q1 15 -1 23.5t-6 16.5t-8.5 20t-6.5 35q-1 9 1.5 18t6 17.5
t6.5 16.5t4 17q3 28 1 54.5t-5 52.5t-5 52t1 54q-20 9 -21 32.5t11.5 48t35 44t49.5 19.5q36 0 72.5 1.5t75 2t79.5 -1.5t85 -8q32 -5 68 -11.5t67.5 -17t53 -26.5t24.5 -38q7 -55 -10.5 -96t-69.5 -81q-10 -8 -13 -9.5l-5 -2.5q-2 -2 -5 -4.5t-13 -13.5q22 -5 36.5 -10.5
t28.5 -12.5t29.5 -14.5t39.5 -15.5q28 -10 44.5 -32.5t21 -51.5t-4 -61.5t-29.5 -61.5zM521 636q-12 17 -37 28.5t-58 17.5t-70 7.5t-72 -1t-65.5 -8t-49.5 -12.5q-2 -20 -5 -47t-3.5 -54.5t2.5 -52.5t13 -41q21 4 57.5 14t77.5 23.5t82.5 30t72.5 33.5t47.5 33t7.5 29z" />
    <glyph glyph-name="agrave" unicode="&#xe0;" horiz-adv-x="726" 
d="M467 721q-37 5 -62.5 11.5t-48.5 14.5t-49 17t-63 19q-17 5 -47 15.5t-53 26.5q-14 9 -23 24.5t-13.5 33t-4 35t6.5 30.5t17.5 18.5t28.5 0.5q41 -22 76.5 -42.5t71.5 -39t74 -34.5t83 -30q16 -5 28 -21.5t15 -34t-5 -31t-32 -13.5zM703 111q18 -22 18.5 -45t-11.5 -41
t-33 -28.5t-46 -7.5q-16 1 -28 14t-20.5 30t-13.5 35.5t-8 32.5q-38 -18 -79.5 -40t-85 -39.5t-87.5 -27t-87 -2.5q-56 9 -92 25.5t-57 39t-29.5 49t-8.5 55.5q0 33 8 58.5t21 46.5t29.5 38t34.5 33q19 17 48.5 36t63 36t67.5 30t62 19q16 3 27.5 5t21 3.5t18.5 2.5t20 3
q-5 8 -7.5 15t-5.5 14t-7.5 14.5t-13.5 17.5q-20 20 -58 23.5t-100 -13.5q-19 -5 -31.5 -15.5t-23 -20.5t-22 -15.5t-27.5 -1.5t-22 17.5t-6 31.5t5 37.5t11 34.5q11 26 42 40.5t72.5 17.5t89.5 -4.5t94 -24.5q25 -9 45 -19.5t36.5 -29t30 -48t27.5 -75.5q12 -41 17 -84
t15 -88t28.5 -91.5t57.5 -93.5zM523 229q-4 12 -7.5 28.5t-7.5 34t-8 34.5t-10 31q-44 -2 -79 -8.5t-63.5 -15.5t-52 -20.5t-44.5 -22.5q-15 -8 -37.5 -23.5t-42.5 -35t-31.5 -42t-3.5 -43.5q7 -18 33 -26t88 -6q23 1 47.5 7t49.5 15t48.5 19t43.5 19q23 10 39.5 24t37.5 31
z" />
    <glyph glyph-name="aacute" unicode="&#xe1;" horiz-adv-x="726" 
d="M582 855q-17 -16 -37 -26t-43 -18q-21 -8 -43.5 -14t-43.5 -15q-44 -19 -94.5 -27.5t-95.5 -10.5q-21 -1 -36.5 13.5t-21.5 34t0.5 38.5t30.5 27q36 13 73 21t72.5 17.5t69 25t64.5 42.5q12 10 25 12.5t25.5 -0.5t24 -10t20.5 -16t16 -20.5t9.5 -24.5t-0.5 -25.5
t-15 -23.5zM703 111q18 -22 18.5 -45t-11.5 -41t-33 -28.5t-46 -7.5q-16 1 -28 14t-20.5 30t-13.5 35.5t-8 32.5q-38 -18 -79.5 -40t-85 -39.5t-87.5 -27t-87 -2.5q-56 9 -92 25.5t-57 39t-29.5 49t-8.5 55.5q0 33 8 58.5t21 46.5t29.5 38t34.5 33q19 17 48.5 36t63 36
t67.5 30t62 19q16 3 27.5 5t21 3.5t18.5 2.5t20 3q-5 8 -7.5 15t-5.5 14t-7.5 14.5t-13.5 17.5q-20 20 -58 23.5t-100 -13.5q-19 -5 -31.5 -15.5t-23 -20.5t-22 -15.5t-27.5 -1.5t-22 17.5t-6 31.5t5 37.5t11 34.5q11 26 42 40.5t72.5 17.5t89.5 -4.5t94 -24.5
q25 -9 45 -19.5t36.5 -29t30 -48t27.5 -75.5q12 -41 17 -84t15 -88t28.5 -91.5t57.5 -93.5zM523 229q-4 12 -7.5 28.5t-7.5 34t-8 34.5t-10 31q-44 -2 -79 -8.5t-63.5 -15.5t-52 -20.5t-44.5 -22.5q-15 -8 -37.5 -23.5t-42.5 -35t-31.5 -42t-3.5 -43.5q7 -18 33 -26t88 -6
q23 1 47.5 7t49.5 15t48.5 19t43.5 19q23 10 39.5 24t37.5 31z" />
    <glyph glyph-name="acircumflex" unicode="&#xe2;" horiz-adv-x="726" 
d="M511 844q29 -12 41 -26t12 -28t-9.5 -27t-23.5 -22t-31 -12.5t-31 1.5t-33 15t-38.5 21.5t-38 23t-30.5 19.5q-4 -6 -20 -21t-34.5 -30.5t-35 -29.5t-22.5 -19q-14 -12 -33 -9.5t-33 13.5t-19 26.5t9 29.5q28 27 61.5 51t58.5 53q22 26 39 39t46 14q25 1 41.5 -10.5
t37.5 -24.5q13 -8 22.5 -14.5t19 -12t20 -10.5t24.5 -10zM703 111q18 -22 18.5 -45t-11.5 -41t-33 -28.5t-46 -7.5q-16 1 -28 14t-20.5 30t-13.5 35.5t-8 32.5q-38 -18 -79.5 -40t-85 -39.5t-87.5 -27t-87 -2.5q-56 9 -92 25.5t-57 39t-29.5 49t-8.5 55.5q0 33 8 58.5
t21 46.5t29.5 38t34.5 33q19 17 48.5 36t63 36t67.5 30t62 19q16 3 27.5 5t21 3.5t18.5 2.5t20 3q-5 8 -7.5 15t-5.5 14t-7.5 14.5t-13.5 17.5q-20 20 -58 23.5t-100 -13.5q-19 -5 -31.5 -15.5t-23 -20.5t-22 -15.5t-27.5 -1.5t-22 17.5t-6 31.5t5 37.5t11 34.5
q11 26 42 40.5t72.5 17.5t89.5 -4.5t94 -24.5q25 -9 45 -19.5t36.5 -29t30 -48t27.5 -75.5q12 -41 17 -84t15 -88t28.5 -91.5t57.5 -93.5zM523 229q-4 12 -7.5 28.5t-7.5 34t-8 34.5t-10 31q-44 -2 -79 -8.5t-63.5 -15.5t-52 -20.5t-44.5 -22.5q-15 -8 -37.5 -23.5
t-42.5 -35t-31.5 -42t-3.5 -43.5q7 -18 33 -26t88 -6q23 1 47.5 7t49.5 15t48.5 19t43.5 19q23 10 39.5 24t37.5 31z" />
    <glyph glyph-name="atilde" unicode="&#xe3;" horiz-adv-x="726" 
d="M599 786q-11 -20 -29.5 -35t-40.5 -24.5t-45.5 -13t-44.5 1.5q-19 4 -38.5 12.5t-39 18t-37.5 18t-34 11.5q-21 4 -33 1.5t-19.5 -9t-13 -15.5t-13.5 -19q-4 -6 -7.5 -15t-10.5 -14.5t-18 -4.5t-30 16q-6 4 -12 12.5t-9.5 20t-4 25.5t5.5 29t19 30t30.5 25.5t39 15
t44.5 0.5q20 -4 40 -14t40.5 -20.5t40.5 -20.5t41 -14q12 -3 27 2t29 14.5t24.5 22t15.5 25.5q4 11 27 9.5t47 -14.5q21 -11 21.5 -32t-12.5 -45zM703 111q18 -22 18.5 -45t-11.5 -41t-33 -28.5t-46 -7.5q-16 1 -28 14t-20.5 30t-13.5 35.5t-8 32.5q-38 -18 -79.5 -40
t-85 -39.5t-87.5 -27t-87 -2.5q-56 9 -92 25.5t-57 39t-29.5 49t-8.5 55.5q0 33 8 58.5t21 46.5t29.5 38t34.5 33q19 17 48.5 36t63 36t67.5 30t62 19q16 3 27.5 5t21 3.5t18.5 2.5t20 3q-5 8 -7.5 15t-5.5 14t-7.5 14.5t-13.5 17.5q-20 20 -58 23.5t-100 -13.5
q-19 -5 -31.5 -15.5t-23 -20.5t-22 -15.5t-27.5 -1.5t-22 17.5t-6 31.5t5 37.5t11 34.5q11 26 42 40.5t72.5 17.5t89.5 -4.5t94 -24.5q25 -9 45 -19.5t36.5 -29t30 -48t27.5 -75.5q12 -41 17 -84t15 -88t28.5 -91.5t57.5 -93.5zM523 229q-4 12 -7.5 28.5t-7.5 34t-8 34.5
t-10 31q-44 -2 -79 -8.5t-63.5 -15.5t-52 -20.5t-44.5 -22.5q-15 -8 -37.5 -23.5t-42.5 -35t-31.5 -42t-3.5 -43.5q7 -18 33 -26t88 -6q23 1 47.5 7t49.5 15t48.5 19t43.5 19q23 10 39.5 24t37.5 31z" />
    <glyph glyph-name="adieresis" unicode="&#xe4;" horiz-adv-x="726" 
d="M549 890q19 -48 -5 -88.5t-74 -65.5q-21 -11 -37 -6.5t-25.5 18t-13 33.5t0 40.5t13.5 38.5t28 28q14 7 30.5 15.5t32.5 12t29 -1.5t21 -24zM272 751q-14 -8 -31 -16t-33 -11.5t-29.5 1.5t-20.5 24q-19 48 5 88t74 66q21 11 37 6.5t25.5 -18t13 -33.5t0.5 -40.5
t-13.5 -38.5t-27.5 -28zM703 111q18 -22 18.5 -45t-11.5 -41t-33 -28.5t-46 -7.5q-16 1 -28 14t-20.5 30t-13.5 35.5t-8 32.5q-38 -18 -79.5 -40t-85 -39.5t-87.5 -27t-87 -2.5q-56 9 -92 25.5t-57 39t-29.5 49t-8.5 55.5q0 33 8 58.5t21 46.5t29.5 38t34.5 33
q19 17 48.5 36t63 36t67.5 30t62 19q16 3 27.5 5t21 3.5t18.5 2.5t20 3q-5 8 -7.5 15t-5.5 14t-7.5 14.5t-13.5 17.5q-20 20 -58 23.5t-100 -13.5q-19 -5 -31.5 -15.5t-23 -20.5t-22 -15.5t-27.5 -1.5t-22 17.5t-6 31.5t5 37.5t11 34.5q11 26 42 40.5t72.5 17.5t89.5 -4.5
t94 -24.5q25 -9 45 -19.5t36.5 -29t30 -48t27.5 -75.5q12 -41 17 -84t15 -88t28.5 -91.5t57.5 -93.5zM523 229q-4 12 -7.5 28.5t-7.5 34t-8 34.5t-10 31q-44 -2 -79 -8.5t-63.5 -15.5t-52 -20.5t-44.5 -22.5q-15 -8 -37.5 -23.5t-42.5 -35t-31.5 -42t-3.5 -43.5
q7 -18 33 -26t88 -6q23 1 47.5 7t49.5 15t48.5 19t43.5 19q23 10 39.5 24t37.5 31z" />
    <glyph glyph-name="aring" unicode="&#xe5;" horiz-adv-x="726" 
d="M703 111q18 -22 18.5 -45t-11.5 -41t-33 -28.5t-46 -7.5q-16 1 -28 14t-20.5 30t-13.5 35.5t-8 32.5q-38 -18 -79.5 -40t-85 -39.5t-87.5 -27t-87 -2.5q-56 9 -92 25.5t-57 39t-29.5 49t-8.5 55.5q0 33 8 58.5t21 46.5t29.5 38t34.5 33q19 17 48.5 36t63 36t67.5 30
t62 19q16 3 27.5 5t21 3.5t18.5 2.5t20 3q-5 8 -7.5 15t-5.5 14t-7.5 14.5t-13.5 17.5q-20 20 -58 23.5t-100 -13.5q-19 -5 -31.5 -15.5t-23 -20.5t-22 -15.5t-27.5 -1.5t-22 17.5t-6 31.5t5 37.5t11 34.5q7 18 26 31l-1 1q-35 22 -46 44t-6.5 43.5t20 43.5t35.5 44
q14 16 38.5 29.5t54 24t60 16.5t55.5 7q38 2 79.5 -6t76.5 -23t59 -35.5t28 -44.5q3 -23 -6.5 -46t-30 -43.5t-50.5 -38t-66 -29.5q19 -9 34 -20.5t28.5 -29.5t25 -45t23.5 -66q12 -41 17 -84t15 -88t28.5 -91.5t57.5 -93.5zM515 738q6 5 7 13t-2.5 16t-12 15t-23.5 10
q-23 5 -49.5 8.5t-55 3.5t-59 -6t-61.5 -21q-30 -14 -39.5 -31.5t9.5 -34.5q16 -15 52 -19t76 -3q23 0 47.5 5t46.5 12t39 15.5t25 16.5zM523 229q-4 12 -7.5 28.5t-7.5 34t-8 34.5t-10 31q-44 -2 -79 -8.5t-63.5 -15.5t-52 -20.5t-44.5 -22.5q-15 -8 -37.5 -23.5t-42.5 -35
t-31.5 -42t-3.5 -43.5q7 -18 33 -26t88 -6q23 1 47.5 7t49.5 15t48.5 19t43.5 19q23 10 39.5 24t37.5 31z" />
    <glyph glyph-name="ae" unicode="&#xe6;" horiz-adv-x="1235" 
d="M1211 471q-8 -27 -15 -41.5t-15 -21.5t-18.5 -8.5t-24.5 -2.5q-51 -4 -117 -9.5t-131.5 -13.5t-121.5 -19t-87 -26q-15 -16 -18.5 -46.5t3 -61.5t22.5 -56t41 -29q26 -5 65.5 -3.5t84.5 9t91.5 22t86.5 36.5q16 9 26 24t20 28.5t22 22t33 5.5q18 -3 25.5 -26.5t6.5 -52.5
t-9.5 -55t-22.5 -35q-35 -21 -61 -35t-48.5 -23.5t-45 -16.5t-49.5 -14.5t-62.5 -16.5t-83.5 -23q-16 -5 -39 -7.5t-48 -2.5t-49 3.5t-41 11.5q-14 6 -26 21.5t-21 35t-14.5 39.5t-8.5 36q-38 -22 -79.5 -47.5t-85 -46t-87.5 -32t-87 -3.5q-56 10 -92 30t-57 46.5t-29.5 58
t-8.5 65.5q0 39 8 69t21 54.5t29.5 44.5t34.5 39q19 20 48.5 42t63 42t67.5 35.5t62 22.5q16 4 27.5 6.5t21 4t18.5 2.5t20 3q-5 9 -7.5 17t-5.5 16.5t-7.5 17.5t-13.5 21q-20 23 -58 27.5t-100 -15.5q-19 -6 -31.5 -18.5t-23 -24t-22 -18.5t-27.5 -2q-16 4 -22 20.5
t-6 37.5t5 44t11 41q11 31 42 47.5t72.5 20t89.5 -5t94 -28.5q25 -11 45 -23.5t36.5 -34t30 -56t27.5 -89.5q5 -20 8.5 -39.5t5.5 -39.5q9 30 20 57t25.5 53.5t33.5 55.5t44 64q24 32 57.5 55t71 37t76 19.5t73 3.5t61.5 -11.5t41 -24.5q6 -7 12.5 -21.5t11.5 -31.5t7.5 -35
t0.5 -30t-9.5 -17t-22.5 4q-73 41 -130.5 37t-117.5 -44q-18 -12 -41.5 -30t-44.5 -39.5t-35.5 -44.5t-14.5 -45q36 1 86.5 6.5t105.5 12.5t110 12.5t100 6.5q18 0 37 1t33 -2.5t20.5 -14.5t0.5 -34zM523 270q-4 14 -7.5 33t-7.5 39.5t-8 40.5t-10 37q-44 -2 -79 -9.5
t-63.5 -18.5t-52 -24.5t-44.5 -26.5q-15 -10 -37.5 -28t-42.5 -41t-31.5 -49t-3.5 -51q7 -22 33 -31t88 -7q23 1 47.5 8t49.5 17.5t48.5 22.5t43.5 23q23 11 39.5 27.5z" />
    <glyph glyph-name="ccedilla" unicode="&#xe7;" horiz-adv-x="710" 
d="M713 222q-51 -45 -115 -74.5t-133 -44.5q11 -32 14.5 -69.5t-18.5 -77.5q-15 -29 -48.5 -50t-73.5 -32.5t-80 -12.5t-68 11q-14 6 -19 21t-2 31.5t13 29.5t28 14q19 1 42.5 2t45 4.5t37.5 11.5t21 23q8 26 7.5 43.5t-7.5 34.5q-75 -5 -142.5 8.5t-118.5 45.5
q-33 21 -46.5 54.5t-14.5 72.5t7 79t19 74q21 62 53 121.5t74 111.5t92.5 92t106.5 63q31 12 66.5 14.5t70 -3.5t64 -19t47.5 -30t24.5 -37.5t5 -40t-9.5 -36.5t-18 -27.5t-21 -13t-19 7.5q-19 22 -47.5 37.5t-60 23.5t-61 9t-49.5 -7q-48 -19 -82.5 -53.5t-60.5 -77.5
t-46.5 -91.5t-40.5 -94.5q-12 -27 -8.5 -47.5t16 -36t32 -26.5t39.5 -19q55 -21 116 -19t123.5 18.5t122.5 43.5t114 56q15 8 23 -5.5t9 -35t-5 -44.5t-18 -33z" />
    <glyph glyph-name="egrave" unicode="&#xe8;" horiz-adv-x="711" 
d="M467 721q-37 5 -62.5 11.5t-48.5 14.5t-49 17t-63 19q-17 5 -47 15.5t-53 26.5q-14 9 -23 24.5t-13.5 33t-4 35t6.5 30.5t17.5 18.5t28.5 0.5q41 -22 76.5 -42.5t71.5 -39t74 -34.5t83 -30q16 -5 28 -21.5t15 -34t-5 -31t-32 -13.5zM666 400q-8 -23 -15 -35t-15 -18
t-18.5 -7t-24.5 -2q-51 -4 -117 -8.5t-131.5 -11.5t-121.5 -16t-87 -22q-15 -14 -18.5 -40t3 -52.5t22.5 -47.5t41 -24q26 -4 65.5 -3t84.5 7.5t91.5 18.5t86.5 31q16 7 26 20t20 24.5t22 19t33 4.5q18 -3 25.5 -23t6.5 -44t-9.5 -46.5t-22.5 -29.5q-35 -18 -61 -30
t-48.5 -20t-45 -14t-49.5 -12.5t-62.5 -14t-83.5 -19.5q-36 -9 -75.5 -5.5t-73.5 18.5t-58.5 42.5t-29.5 67.5q-3 25 -5.5 53t-1 59.5t7 68.5t18.5 82q9 32 20.5 58.5t26.5 52.5t35.5 53t49.5 61q36 41 91.5 64t112.5 30.5t106 0t70 -27.5q9 -8 18.5 -30.5t13 -44t-3 -34.5
t-28.5 -2q-73 34 -130.5 30.5t-117.5 -36.5q-18 -10 -41.5 -25.5t-44.5 -33.5t-35.5 -38t-14.5 -38q36 1 86.5 5.5t105.5 10t110 10.5t100 6q18 0 37 1t33 -2t20.5 -12.5t0.5 -29.5z" />
    <glyph glyph-name="eacute" unicode="&#xe9;" horiz-adv-x="711" 
d="M604 841q-17 -14 -37.5 -22.5t-42.5 -15.5q-21 -6 -43.5 -11.5t-43.5 -13.5q-44 -16 -94 -23t-95 -9q-21 -1 -36.5 11.5t-21.5 29t0.5 32.5t30.5 23q36 11 72.5 18t72 15.5t69 21.5t64.5 36q11 9 24 11t25.5 -0.5t24.5 -9t21 -13.5q9 -8 15.5 -18t9 -21t-0.5 -21.5
t-14 -19.5zM666 400q-8 -23 -15 -35t-15 -18t-18.5 -7t-24.5 -2q-51 -4 -117 -8.5t-131.5 -11.5t-121.5 -16t-87 -22q-15 -14 -18.5 -40t3 -52.5t22.5 -47.5t41 -24q26 -4 65.5 -3t84.5 7.5t91.5 18.5t86.5 31q16 7 26 20t20 24.5t22 19t33 4.5q18 -3 25.5 -23t6.5 -44
t-9.5 -46.5t-22.5 -29.5q-35 -18 -61 -30t-48.5 -20t-45 -14t-49.5 -12.5t-62.5 -14t-83.5 -19.5q-36 -9 -75.5 -5.5t-73.5 18.5t-58.5 42.5t-29.5 67.5q-3 25 -5.5 53t-1 59.5t7 68.5t18.5 82q9 32 20.5 58.5t26.5 52.5t35.5 53t49.5 61q36 41 91.5 64t112.5 30.5t106 0
t70 -27.5q9 -8 18.5 -30.5t13 -44t-3 -34.5t-28.5 -2q-73 34 -130.5 30.5t-117.5 -36.5q-18 -10 -41.5 -25.5t-44.5 -33.5t-35.5 -38t-14.5 -38q36 1 86.5 5.5t105.5 10t110 10.5t100 6q18 0 37 1t33 -2t20.5 -12.5t0.5 -29.5z" />
    <glyph glyph-name="ecircumflex" unicode="&#xea;" horiz-adv-x="711" 
d="M511 844q29 -12 41 -26t12 -28t-9.5 -27t-23.5 -22t-31 -12.5t-31 1.5t-33 15t-38.5 21.5t-38 23t-30.5 19.5q-4 -6 -20 -21t-34.5 -30.5t-35 -29.5t-22.5 -19q-14 -12 -33 -9.5t-33 13.5t-19 26.5t9 29.5q28 27 61.5 51t58.5 53q22 26 39 39t46 14q25 1 41.5 -10.5
t37.5 -24.5q13 -8 22.5 -14.5t19 -12t20 -10.5t24.5 -10zM666 400q-8 -23 -15 -35t-15 -18t-18.5 -7t-24.5 -2q-51 -4 -117 -8.5t-131.5 -11.5t-121.5 -16t-87 -22q-15 -14 -18.5 -40t3 -52.5t22.5 -47.5t41 -24q26 -4 65.5 -3t84.5 7.5t91.5 18.5t86.5 31q16 7 26 20
t20 24.5t22 19t33 4.5q18 -3 25.5 -23t6.5 -44t-9.5 -46.5t-22.5 -29.5q-35 -18 -61 -30t-48.5 -20t-45 -14t-49.5 -12.5t-62.5 -14t-83.5 -19.5q-36 -9 -75.5 -5.5t-73.5 18.5t-58.5 42.5t-29.5 67.5q-3 25 -5.5 53t-1 59.5t7 68.5t18.5 82q9 32 20.5 58.5t26.5 52.5
t35.5 53t49.5 61q36 41 91.5 64t112.5 30.5t106 0t70 -27.5q9 -8 18.5 -30.5t13 -44t-3 -34.5t-28.5 -2q-73 34 -130.5 30.5t-117.5 -36.5q-18 -10 -41.5 -25.5t-44.5 -33.5t-35.5 -38t-14.5 -38q36 1 86.5 5.5t105.5 10t110 10.5t100 6q18 0 37 1t33 -2t20.5 -12.5
t0.5 -29.5z" />
    <glyph glyph-name="edieresis" unicode="&#xeb;" horiz-adv-x="711" 
d="M549 890q19 -48 -5 -88.5t-74 -65.5q-21 -11 -37 -6.5t-25.5 18t-13 33.5t0 40.5t13.5 38.5t28 28q14 7 30.5 15.5t32.5 12t29 -1.5t21 -24zM272 751q-14 -8 -31 -16t-33 -11.5t-29.5 1.5t-20.5 24q-19 48 5 88t74 66q21 11 37 6.5t25.5 -18t13 -33.5t0.5 -40.5
t-13.5 -38.5t-27.5 -28zM666 400q-8 -23 -15 -35t-15 -18t-18.5 -7t-24.5 -2q-51 -4 -117 -8.5t-131.5 -11.5t-121.5 -16t-87 -22q-15 -14 -18.5 -40t3 -52.5t22.5 -47.5t41 -24q26 -4 65.5 -3t84.5 7.5t91.5 18.5t86.5 31q16 7 26 20t20 24.5t22 19t33 4.5q18 -3 25.5 -23
t6.5 -44t-9.5 -46.5t-22.5 -29.5q-35 -18 -61 -30t-48.5 -20t-45 -14t-49.5 -12.5t-62.5 -14t-83.5 -19.5q-36 -9 -75.5 -5.5t-73.5 18.5t-58.5 42.5t-29.5 67.5q-3 25 -5.5 53t-1 59.5t7 68.5t18.5 82q9 32 20.5 58.5t26.5 52.5t35.5 53t49.5 61q36 41 91.5 64t112.5 30.5
t106 0t70 -27.5q9 -8 18.5 -30.5t13 -44t-3 -34.5t-28.5 -2q-73 34 -130.5 30.5t-117.5 -36.5q-18 -10 -41.5 -25.5t-44.5 -33.5t-35.5 -38t-14.5 -38q36 1 86.5 5.5t105.5 10t110 10.5t100 6q18 0 37 1t33 -2t20.5 -12.5t0.5 -29.5z" />
    <glyph glyph-name="igrave" unicode="&#xec;" horiz-adv-x="281" 
d="M193 723q-21 4 -35 10.5t-27.5 14t-28.5 16t-36 17.5q-10 5 -26.5 15t-30.5 24q-12 13 -17.5 38t-5 48.5t7.5 38.5t22 7q23 -21 43.5 -39.5t41 -36t42 -32.5t47.5 -28q9 -5 16 -20t8.5 -31.5t-3 -29t-18.5 -12.5zM202 515q-7 -100 -4 -210.5t-1 -234.5q0 -12 -1 -24
t-5.5 -23t-14.5 -20.5t-30 -17.5q-21 -9 -32.5 1t-16 31t-4 49.5t3.5 57.5t6 55.5t4 43.5q3 55 2 105.5t-2.5 97t-3.5 89.5t-1 84q0 11 -0.5 27.5t2 31t9.5 24t21 6.5q39 -8 55.5 -25.5t20 -41.5t-1 -51.5t-6.5 -54.5z" />
    <glyph glyph-name="iacute" unicode="&#xed;" horiz-adv-x="265" 
d="M315 841q-11 -17 -24 -27t-27 -18t-28 -14.5t-28 -15.5q-28 -19 -60 -27.5t-61 -10.5q-14 -1 -24 13.5t-13.5 34t1 39t19.5 28.5q23 13 46 21t46 18t44.5 25.5t41.5 43.5q7 10 15 12.5t16.5 -0.5t16 -10.5t13.5 -16.5t10 -21t5.5 -24.5t-0.5 -25.5t-9 -24zM186 515
q-7 -100 -4 -210.5t-1 -234.5q0 -12 -1 -24t-5.5 -23t-14.5 -20.5t-30 -17.5q-21 -9 -32.5 1t-16 31t-4 49.5t3.5 57.5t6 55.5t4 43.5q3 55 2 105.5t-2.5 97t-3.5 89.5t-1 84q0 11 -0.5 27.5t2 31t9.5 24t21 6.5q39 -8 55.5 -25.5t20 -41.5t-1 -51.5t-6.5 -54.5z" />
    <glyph glyph-name="icircumflex" unicode="&#xee;" horiz-adv-x="329" 
d="M292 815q30 -17 35 -39.5t-4.5 -41t-27 -29t-32.5 -3.5q-10 4 -23.5 14t-27 21.5t-26 23t-21.5 19.5q-3 -6 -14 -20.5t-23.5 -30.5t-24.5 -29.5t-16 -18.5q-9 -12 -22 -9.5t-23 13t-13.5 26.5t6.5 30q19 26 42.5 50t40.5 53q15 25 26 38.5t34 13.5q19 0 29.5 -10.5
t25.5 -24.5q17 -15 28.5 -25t30.5 -21zM234 515q-7 -100 -4 -210.5t-1 -234.5q0 -12 -1 -24t-5.5 -23t-14.5 -20.5t-30 -17.5q-21 -9 -32.5 1t-16 31t-4 49.5t3.5 57.5t6 55.5t4 43.5q3 55 2 105.5t-2.5 97t-3.5 89.5t-1 84q0 11 -0.5 27.5t2 31t9.5 24t21 6.5
q39 -8 55.5 -25.5t20 -41.5t-1 -51.5t-6.5 -54.5z" />
    <glyph glyph-name="idieresis" unicode="&#xef;" horiz-adv-x="345" 
d="M326 885q14 -47 -3.5 -87t-52.5 -65q-23 -16 -36.5 0t-17.5 44.5t3 59.5t26 45q10 7 22 15.5t23.5 12t21 -1t14.5 -23.5zM129 748q-10 -8 -22 -16t-23 -11t-21 1.5t-15 23.5q-14 47 3.5 86.5t52.5 65.5q23 16 36.5 0t17.5 -44.5t-3 -60t-26 -45.5zM234 515
q-7 -100 -4 -210.5t-1 -234.5q0 -12 -1 -24t-5.5 -23t-14.5 -20.5t-30 -17.5q-21 -9 -32.5 1t-16 31t-4 49.5t3.5 57.5t6 55.5t4 43.5q3 55 2 105.5t-2.5 97t-3.5 89.5t-1 84q0 11 -0.5 27.5t2 31t9.5 24t21 6.5q39 -8 55.5 -25.5t20 -41.5t-1 -51.5t-6.5 -54.5z" />
    <glyph glyph-name="eth" unicode="&#xf0;" horiz-adv-x="822" 
d="M801 673q-5 -107 -42 -201.5t-96.5 -174t-137.5 -143t-166 -107.5q-31 -15 -62 -37.5t-61.5 -36t-60 -10t-58.5 39.5q7 93 12 174t7 162q-14 -1 -26 -1t-24 2q-23 3 -34.5 15t-14.5 28t1.5 34.5t13 34.5t20.5 26.5t25 11.5l37 -3q-3 69 -9 147q-22 9 -28 32.5t1 48t25 45
t45 25.5q45 8 103.5 14t119 9.5t117.5 4t99 -3.5q29 -3 63.5 -12.5t64 -26.5t48.5 -41t18 -56zM665 615q-9 21 -34.5 35t-62.5 22t-80.5 10t-88 -2t-86 -13.5t-72.5 -24.5q-2 -36 -4.5 -77t-4.5 -85l89 -6q8 -1 25.5 4t37.5 10.5t40 10.5t35.5 5.5t22.5 -6t1 -23.5
q-22 -63 -64 -96.5t-87 -26.5q-23 4 -49 2.5t-53 -5.5q2 -52 10 -100.5t25 -91.5q46 2 82.5 19t68.5 42t62 55.5t63 59.5q28 25 55 63t45.5 78.5t26 78.5t-2.5 62z" />
    <glyph glyph-name="ntilde" unicode="&#xf1;" horiz-adv-x="711" 
d="M651 800q-14 -25 -37.5 -44t-51.5 -30.5t-58 -15.5t-58 2q-24 5 -49 15.5t-49.5 22t-47.5 22t-44 14.5q-26 5 -41.5 2.5t-25.5 -10.5t-17 -20t-17 -24q-6 -7 -10.5 -18t-13 -18t-23 -5.5t-38.5 19.5q-7 6 -14.5 16.5t-12.5 24.5t-5.5 31t7.5 36q7 19 24 37t39.5 31
t49.5 19t56 0q26 -5 52 -17t52 -25.5t52 -25.5t52 -17q16 -3 35 3t37 17.5t31.5 27t19.5 31.5q2 6 11.5 9t23 2.5t29 -5t30.5 -11.5q28 -14 28.5 -40.5t-16.5 -55.5zM666 386q0 -33 3 -61.5t4.5 -55.5t-1.5 -54.5t-15 -58.5q-5 -12 -14.5 -29.5t-20 -36t-20.5 -35t-15 -25.5
q-9 -17 -26.5 -40.5t-37.5 -40.5t-38.5 -20t-28.5 20q-13 28 -10.5 42.5t12.5 25.5t24 24t26 37q16 33 27 57.5t16 44.5t4 38t-10 39q-4 9 -7 29.5t-7.5 46.5t-10.5 54.5t-15.5 54t-24.5 44t-36 25.5q-14 4 -33 -3t-40.5 -20t-43 -29.5t-39.5 -31.5q-16 -13 -32.5 -32.5
t-32 -41t-30 -44.5t-25.5 -43q-5 -55 -9 -119t-6 -122q0 -14 -13.5 -28.5t-29.5 -24t-29.5 -11t-13.5 12.5q-17 58 -15.5 122.5t7 133t8.5 140.5t-10 146q-8 43 1 65.5t24.5 31t33 5t27.5 -12.5q9 -8 18.5 -14.5t16 -16t8.5 -25t-4 -40.5q-7 -34 -7 -62q16 17 36 35.5
t38.5 34t34.5 28t24 17.5q22 13 51 37.5t60 44t62 26.5t58 -15q23 -19 45.5 -53.5t40.5 -73.5t29.5 -77t11.5 -65z" />
    <glyph glyph-name="ograve" unicode="&#xf2;" horiz-adv-x="922" 
d="M562 702q-37 5 -62.5 11.5t-48.5 14.5t-49 17.5t-64 19.5q-17 5 -46.5 15.5t-53.5 26.5q-20 13 -30.5 40t-9.5 52t14 41t39 8q41 -22 76.5 -42.5t71.5 -39t74 -34.5t83 -30q16 -5 28 -21.5t15 -34t-5 -31t-32 -13.5zM896 509q18 -48 15.5 -89t-18.5 -78.5t-42.5 -73
t-57.5 -71.5q-19 -22 -52 -54.5t-74 -64t-86.5 -56t-88.5 -31.5q-62 -9 -131.5 -11.5t-132.5 10.5t-112.5 44.5t-70.5 88.5q-15 40 -18 85t5 90t27.5 88t49.5 78q44 52 97 90t111.5 64.5t122 43t129.5 25.5q52 7 103.5 -5t96 -36.5t78.5 -60t49 -76.5zM777 443
q-15 60 -52.5 88.5t-85.5 37t-101.5 3.5t-100.5 -12q-66 -10 -126 -41.5t-100 -72.5q-23 -23 -37.5 -55.5t-19.5 -68t1 -69.5t26 -59q32 -40 76 -61t94 -27t103 1.5t102 25.5t94.5 49.5t78 72.5t47 89t1.5 99z" />
    <glyph glyph-name="oacute" unicode="&#xf3;" horiz-adv-x="922" 
d="M775 834q-17 -17 -37.5 -26.5t-42.5 -17.5t-44 -14.5t-43 -15.5q-45 -18 -95 -26.5t-95 -10.5q-21 -1 -37 13t-21.5 33.5t1 38.5t30.5 28q36 12 72.5 20t72 18t69.5 25.5t65 42.5q11 10 24 12.5t25.5 -0.5t24.5 -10t21 -16t16 -20.5t9.5 -24.5t-1 -25.5t-14.5 -23.5z
M896 509q18 -48 15.5 -89t-18.5 -78.5t-42.5 -73t-57.5 -71.5q-19 -22 -52 -54.5t-74 -64t-86.5 -56t-88.5 -31.5q-62 -9 -131.5 -11.5t-132.5 10.5t-112.5 44.5t-70.5 88.5q-15 40 -18 85t5 90t27.5 88t49.5 78q44 52 97 90t111.5 64.5t122 43t129.5 25.5q52 7 103.5 -5
t96 -36.5t78.5 -60t49 -76.5zM777 443q-15 60 -52.5 88.5t-85.5 37t-101.5 3.5t-100.5 -12q-66 -10 -126 -41.5t-100 -72.5q-23 -23 -37.5 -55.5t-19.5 -68t1 -69.5t26 -59q32 -40 76 -61t94 -27t103 1.5t102 25.5t94.5 49.5t78 72.5t47 89t1.5 99z" />
    <glyph glyph-name="ocircumflex" unicode="&#xf4;" horiz-adv-x="922" 
d="M696 844q43 -17 50.5 -40t-6 -41.5t-39 -29t-46.5 -3.5q-14 5 -33 15t-39 21.5t-38 23t-31 19.5q-4 -6 -20 -21t-34.5 -30.5t-35 -29.5t-22.5 -19q-14 -12 -32.5 -9.5t-33 13.5t-19 26.5t9.5 29.5q27 27 61 51t59 53q21 26 38.5 39t46.5 14q13 0 22.5 -2.5t18.5 -7.5
t18 -11.5t20 -13.5q25 -16 41.5 -26t43.5 -21zM896 509q18 -48 15.5 -89t-18.5 -78.5t-42.5 -73t-57.5 -71.5q-19 -22 -52 -54.5t-74 -64t-86.5 -56t-88.5 -31.5q-62 -9 -131.5 -11.5t-132.5 10.5t-112.5 44.5t-70.5 88.5q-15 40 -18 85t5 90t27.5 88t49.5 78q44 52 97 90
t111.5 64.5t122 43t129.5 25.5q52 7 103.5 -5t96 -36.5t78.5 -60t49 -76.5zM777 443q-15 60 -52.5 88.5t-85.5 37t-101.5 3.5t-100.5 -12q-66 -10 -126 -41.5t-100 -72.5q-23 -23 -37.5 -55.5t-19.5 -68t1 -69.5t26 -59q32 -40 76 -61t94 -27t103 1.5t102 25.5t94.5 49.5
t78 72.5t47 89t1.5 99z" />
    <glyph glyph-name="otilde" unicode="&#xf5;" horiz-adv-x="922" 
d="M821 840q-14 -25 -37.5 -44t-51.5 -30.5t-58 -15.5t-58 2q-24 5 -49 15.5t-49.5 22t-47.5 22t-44 14.5q-26 5 -41.5 2.5t-25.5 -10.5t-17 -20t-17 -24q-6 -7 -10.5 -18.5t-13 -18t-23 -5t-38.5 19.5q-7 5 -15 15.5t-12.5 24.5t-5 31.5t7.5 36.5q7 19 24 37t39.5 31
t49.5 19t56 0q26 -5 52 -17t52 -25.5t52 -25.5t52 -17q16 -3 35 3t37 17.5t31.5 27t19.5 31.5q2 6 11.5 9t23 2t29 -5t30.5 -12q28 -14 28.5 -40t-16.5 -55zM896 509q18 -48 15.5 -89t-18.5 -78.5t-42.5 -73t-57.5 -71.5q-19 -22 -52 -54.5t-74 -64t-86.5 -56t-88.5 -31.5
q-62 -9 -131.5 -11.5t-132.5 10.5t-112.5 44.5t-70.5 88.5q-15 40 -18 85t5 90t27.5 88t49.5 78q44 52 97 90t111.5 64.5t122 43t129.5 25.5q52 7 103.5 -5t96 -36.5t78.5 -60t49 -76.5zM777 443q-15 60 -52.5 88.5t-85.5 37t-101.5 3.5t-100.5 -12q-66 -10 -126 -41.5
t-100 -72.5q-23 -23 -37.5 -55.5t-19.5 -68t1 -69.5t26 -59q32 -40 76 -61t94 -27t103 1.5t102 25.5t94.5 49.5t78 72.5t47 89t1.5 99z" />
    <glyph glyph-name="odieresis" unicode="&#xf6;" horiz-adv-x="922" 
d="M717 890q9 -24 7 -46t-13 -42t-30 -37t-43 -29q-22 -11 -37.5 -6.5t-25.5 18t-13.5 33.5t0 40.5t13.5 38.5t28 28q14 7 30.5 15.5t32.5 12t29.5 -1.5t21.5 -24zM439 751q-14 -8 -30.5 -16t-32.5 -11.5t-30 1.5t-21 24q-9 24 -7 46t13 42t30 36.5t43 29.5q21 11 37 6.5
t25.5 -18t13 -33.5t0.5 -40.5t-13.5 -38.5t-27.5 -28zM896 509q18 -48 15.5 -89t-18.5 -78.5t-42.5 -73t-57.5 -71.5q-19 -22 -52 -54.5t-74 -64t-86.5 -56t-88.5 -31.5q-62 -9 -131.5 -11.5t-132.5 10.5t-112.5 44.5t-70.5 88.5q-15 40 -18 85t5 90t27.5 88t49.5 78
q44 52 97 90t111.5 64.5t122 43t129.5 25.5q52 7 103.5 -5t96 -36.5t78.5 -60t49 -76.5zM777 443q-15 60 -52.5 88.5t-85.5 37t-101.5 3.5t-100.5 -12q-66 -10 -126 -41.5t-100 -72.5q-23 -23 -37.5 -55.5t-19.5 -68t1 -69.5t26 -59q32 -40 76 -61t94 -27t103 1.5t102 25.5
t94.5 49.5t78 72.5t47 89t1.5 99z" />
    <glyph glyph-name="divide" unicode="&#xf7;" horiz-adv-x="662" 
d="M434 690q22 -8 27.5 -21t1.5 -29t-13.5 -32.5t-17.5 -30.5q-11 -17 -31.5 -27t-44 -13.5t-46 0t-38 13t-20.5 25.5t8 37q29 48 74.5 72t99.5 6zM637 458q-11 -31 -27.5 -52t-36.5 -33t-42.5 -16.5t-44.5 -1.5q-47 5 -80.5 5t-60.5 -3t-50 -7.5t-49 -8t-58.5 -3.5t-77.5 5
q-35 4 -44.5 24.5t-3.5 43.5t23 41.5t36 20.5l354 -16q8 0 25.5 4.5t37.5 10.5t40 11t35.5 5t22.5 -6.5t1 -23.5zM443 205q-29 -48 -75 -72t-100 -6q-21 7 -26.5 20.5t-2 29.5t13 32.5t18.5 30.5q11 17 31.5 27t44 13.5t46 0t38 -13t20.5 -25.5t-8 -37z" />
    <glyph glyph-name="oslash" unicode="&#xf8;" horiz-adv-x="922" 
d="M896 599q17 -56 15 -104t-18 -92.5t-42.5 -86t-57.5 -84.5q-19 -26 -52 -64t-74 -75.5t-86.5 -66.5t-88.5 -37q-45 -8 -93 -11.5t-96 -0.5q-6 -9 -10.5 -17t-9.5 -15q-11 -17 -32 -26.5t-40.5 -9.5t-30.5 10.5t-1 34.5q5 10 9.5 21t9.5 22q-54 17 -94 52t-59 95
q-15 47 -18 100t5 106.5t27.5 103.5t49.5 92q44 61 97 106t111.5 76t122 50.5t129.5 29.5q21 3 42 2.5t42 -3.5q8 15 15 28.5t12 24.5q10 21 29 21t36 -12.5t25.5 -33.5t-2.5 -43l-13 -24q50 -29 87 -73t54 -96zM777 521q-11 50 -33 80.5t-52 47.5q-32 -60 -68 -122
t-78 -126q-12 -18 -29.5 -48.5t-39 -68t-45.5 -79.5t-47 -83q43 -2 86 8t85 27q49 21 94.5 58t78 85t47 104.5t1.5 116.5zM576 675q-35 0 -71 -5.5t-68 -10.5q-66 -12 -126 -49.5t-100 -85.5q-23 -26 -37.5 -64.5t-19.5 -80t1 -81.5t26 -70q20 -29 44.5 -49t52.5 -34
q25 45 52 91.5t52.5 90.5t48 83.5t38.5 71.5q23 48 51 96.5t56 96.5z" />
    <glyph glyph-name="ugrave" unicode="&#xf9;" horiz-adv-x="612" 
d="M398 700q-37 5 -62.5 11.5t-49 14.5t-49.5 17t-63 19q-17 5 -46.5 15.5t-53.5 26.5q-20 13 -30.5 40t-9.5 52t14 41t39 8q41 -22 76.5 -42.5t71.5 -39t74 -34.5t83 -30q16 -5 28 -21t15 -33.5t-5 -31t-32 -13.5zM589 7q0 -24 -13 -44.5t-48 -20.5q-21 0 -35.5 12.5
t-24 30.5t-14.5 38t-7 36q-15 -14 -36.5 -28.5t-46.5 -29t-53 -26.5t-55 -19q-38 -10 -73.5 -13t-62.5 3t-43.5 21.5t-17.5 42.5q-3 66 -3 137.5t1 145t2 146t1 140.5q0 15 17.5 28t38.5 18t38 -1.5t15 -30.5q-4 -51 -9.5 -113.5t-8.5 -124t-2.5 -117t7.5 -93.5
q5 -27 15.5 -40.5t26 -16.5t36 2.5t45.5 16.5q33 14 62 27.5t51.5 29t35.5 34.5t15 44q3 49 3 101t-2 102.5t-5 95.5t-5 81q-1 9 9 19t25 18t32.5 14t32.5 6t25 -6t9 -21q-3 -45 -5.5 -86t-4.5 -82.5t-4 -86.5t-4 -97q-1 -23 -3 -54t-2 -64t4.5 -64.5t16.5 -55.5
q5 -11 14.5 -23t9.5 -32z" />
    <glyph glyph-name="uacute" unicode="&#xfa;" horiz-adv-x="612" 
d="M563 805q-17 -16 -37.5 -25.5t-42.5 -17.5q-21 -8 -43.5 -14.5t-43.5 -15.5q-45 -19 -95 -27.5t-95 -10.5q-21 -1 -36.5 13.5t-21.5 34t0.5 38.5t30.5 27q36 13 73 21t72.5 18t69 25.5t64.5 42.5q12 10 25 12.5t25.5 -0.5t24 -10.5t20.5 -16.5t16 -20.5t9.5 -24
t-0.5 -25.5t-15 -24zM589 7q0 -24 -13 -44.5t-48 -20.5q-21 0 -35.5 12.5t-24 30.5t-14.5 38t-7 36q-15 -14 -36.5 -28.5t-46.5 -29t-53 -26.5t-55 -19q-38 -10 -73.5 -13t-62.5 3t-43.5 21.5t-17.5 42.5q-3 66 -3 137.5t1 145t2 146t1 140.5q0 15 17.5 28t38.5 18t38 -1.5
t15 -30.5q-4 -51 -9.5 -113.5t-8.5 -124t-2.5 -117t7.5 -93.5q5 -27 15.5 -40.5t26 -16.5t36 2.5t45.5 16.5q33 14 62 27.5t51.5 29t35.5 34.5t15 44q3 49 3 101t-2 102.5t-5 95.5t-5 81q-1 9 9 19t25 18t32.5 14t32.5 6t25 -6t9 -21q-3 -45 -5.5 -86t-4.5 -82.5t-4 -86.5
t-4 -97q-1 -23 -3 -54t-2 -64t4.5 -64.5t16.5 -55.5q5 -11 14.5 -23t9.5 -32z" />
    <glyph glyph-name="ucircumflex" unicode="&#xfb;" horiz-adv-x="612" 
d="M467 847q29 -11 41.5 -25.5t12.5 -28.5t-9.5 -27t-23.5 -21.5t-31 -12t-31 1.5q-14 4 -33 14t-38.5 21.5t-38 23t-30.5 19.5q-5 -6 -20.5 -21t-34.5 -30.5t-35.5 -29.5t-22.5 -19q-14 -12 -32.5 -9.5t-33 13.5t-19 27t9.5 30q27 27 61 51t59 53q22 25 39 38.5t46 14.5
q25 0 41.5 -11.5t37.5 -24.5q25 -15 41.5 -25.5t43.5 -21.5zM589 7q0 -24 -13 -44.5t-48 -20.5q-21 0 -35.5 12.5t-24 30.5t-14.5 38t-7 36q-15 -14 -36.5 -28.5t-46.5 -29t-53 -26.5t-55 -19q-38 -10 -73.5 -13t-62.5 3t-43.5 21.5t-17.5 42.5q-3 66 -3 137.5t1 145t2 146
t1 140.5q0 15 17.5 28t38.5 18t38 -1.5t15 -30.5q-4 -51 -9.5 -113.5t-8.5 -124t-2.5 -117t7.5 -93.5q5 -27 15.5 -40.5t26 -16.5t36 2.5t45.5 16.5q33 14 62 27.5t51.5 29t35.5 34.5t15 44q3 49 3 101t-2 102.5t-5 95.5t-5 81q-1 9 9 19t25 18t32.5 14t32.5 6t25 -6t9 -21
q-3 -45 -5.5 -86t-4.5 -82.5t-4 -86.5t-4 -97q-1 -23 -3 -54t-2 -64t4.5 -64.5t16.5 -55.5q5 -11 14.5 -23t9.5 -32z" />
    <glyph glyph-name="udieresis" unicode="&#xfc;" horiz-adv-x="612" 
d="M500 875q9 -24 7 -46.5t-13 -42.5t-30 -36.5t-43 -29.5q-22 -11 -37.5 -6.5t-25.5 18t-13.5 33.5t0 40.5t13.5 38.5t28 28q14 7 30.5 15.5t32.5 12t29.5 -1t21.5 -23.5zM222 735q-14 -8 -30.5 -16t-32.5 -11.5t-30 1.5t-21 24q-9 24 -7 46t13 42t30 37t43 30
q21 11 37 6.5t26 -18.5t13 -34t0 -40.5t-13.5 -38.5t-27.5 -28zM589 7q0 -24 -13 -44.5t-48 -20.5q-21 0 -35.5 12.5t-24 30.5t-14.5 38t-7 36q-15 -14 -36.5 -28.5t-46.5 -29t-53 -26.5t-55 -19q-38 -10 -73.5 -13t-62.5 3t-43.5 21.5t-17.5 42.5q-3 66 -3 137.5t1 145
t2 146t1 140.5q0 15 17.5 28t38.5 18t38 -1.5t15 -30.5q-4 -51 -9.5 -113.5t-8.5 -124t-2.5 -117t7.5 -93.5q5 -27 15.5 -40.5t26 -16.5t36 2.5t45.5 16.5q33 14 62 27.5t51.5 29t35.5 34.5t15 44q3 49 3 101t-2 102.5t-5 95.5t-5 81q-1 9 9 19t25 18t32.5 14t32.5 6t25 -6
t9 -21q-3 -45 -5.5 -86t-4.5 -82.5t-4 -86.5t-4 -97q-1 -23 -3 -54t-2 -64t4.5 -64.5t16.5 -55.5q5 -11 14.5 -23t9.5 -32z" />
    <glyph glyph-name="yacute" unicode="&#xfd;" horiz-adv-x="715" 
d="M664 836q-15 -15 -34 -24t-39 -16q-19 -7 -39 -13t-39 -14q-40 -17 -85.5 -25t-86.5 -10q-19 -1 -33 12.5t-19.5 31t0.5 34.5t28 25q33 12 65.5 19t65 16t63 23t58.5 39q10 9 21.5 11.5t23 -0.5t22.5 -9.5t19 -14.5q16 -17 22.5 -41t-13.5 -44zM673 225q0 -19 -4 -41
t-12 -43.5t-21.5 -41t-32.5 -32.5q-38 -26 -65.5 -43.5t-55.5 -28t-60.5 -15.5t-80.5 -5q-12 0 -36 1t-54.5 5.5t-65.5 14t-69 27.5q-17 9 -29 30.5t-16.5 42.5t0 35.5t21.5 8.5q30 -10 54 -19t47.5 -16.5t47.5 -12t53 -4.5q80 0 138.5 17t100.5 64q28 31 29.5 63.5
t-7.5 69.5q-40 2 -70 -4t-68 -17q-50 -14 -91 -32.5t-72.5 -33t-54 -22t-34.5 1.5q-35 24 -56 56t-33 66.5t-15.5 69t-2.5 65t5.5 54.5t9.5 36q15 38 28.5 72.5t31.5 60.5q12 18 32 22t33.5 -7.5t12 -40t-32.5 -76.5q-10 -15 -15 -38.5t-5.5 -49.5t4 -52t12.5 -46.5
t19.5 -33t26.5 -11.5q27 2 61 15.5t71.5 28.5t78 26t80.5 9q-13 31 -20.5 62t-7.5 60t14.5 64t31.5 58q7 10 26 19t38 12.5t34 -1t15 -22.5q0 -17 -5.5 -31t-12.5 -27.5t-12.5 -27.5t-5.5 -31q0 -11 2.5 -28t6.5 -34t8.5 -33t9.5 -25q23 -51 31.5 -100t8.5 -111z" />
    <glyph glyph-name="thorn" unicode="&#xfe;" horiz-adv-x="708" 
d="M708 552q-7 -54 -36 -98t-72.5 -79.5t-97.5 -63.5t-109.5 -49.5t-109.5 -38t-98 -29.5q-2 -4 -2.5 -21.5t-1.5 -38.5t-1 -40v-26q0 -9 -5.5 -29.5t-19.5 -32.5q-5 -5 -19 -13.5t-29.5 -13.5t-28.5 -4t-16 15q-5 24 -3.5 57t5.5 69t8.5 71t5.5 62q2 69 -4.5 139.5
t1.5 139.5q-18 7 -22.5 17t-2 22t10.5 23.5t16 21.5q-1 23 -1 46.5v46.5q0 9 -0.5 27.5t1.5 36.5t9 31t22 10q31 -6 48.5 -21.5t25.5 -37t8.5 -47t-1.5 -50.5l34 -2l34 -2q15 -1 55 -2.5t91 -5.5t106 -10.5t100 -17t73.5 -26t25.5 -36.5zM556 515q-38 18 -82 24t-90.5 6
t-92.5 -3.5t-86 -4.5q-7 -10 -14 -25.5t-9 -27.5t-2 -33t0.5 -44t1 -45t0.5 -36q42 3 83.5 12.5t81.5 21.5q7 2 31 12t54.5 23.5t61.5 30.5t52 33.5t26 31t-16 24.5z" />
    <glyph glyph-name="ydieresis" unicode="&#xff;" horiz-adv-x="732" 
d="M552 855q9 -24 7 -46t-13 -42t-30 -37t-43 -30q-21 -11 -37 -6.5t-25.5 18t-13 33.5t-0.5 40.5t13 39t28 27.5q14 8 30.5 16.5t32.5 11.5t29.5 -1.5t21.5 -23.5zM673 225q0 -19 -4 -41t-12 -43.5t-21.5 -41t-32.5 -32.5q-38 -26 -65.5 -43.5t-55.5 -28t-60.5 -15.5
t-80.5 -5q-12 0 -36 1t-54.5 5.5t-65.5 14t-69 27.5q-17 9 -29 30.5t-16.5 42.5t0 35.5t21.5 8.5q30 -10 54 -19t47.5 -16.5t47.5 -12t53 -4.5q80 0 138.5 17t100.5 64q28 31 29.5 63.5t-7.5 69.5q-40 2 -70 -4t-68 -17q-50 -14 -91 -32.5t-72.5 -33t-54 -22t-34.5 1.5
q-35 24 -56 56t-33 66.5t-15.5 69t-2.5 65t5.5 54.5t9.5 36q15 38 28.5 72.5t31.5 60.5q14 20 37 23q-5 5 -10 15q-9 24 -7 46t13 42t30 37t44 30q21 11 37 6.5t25.5 -18t13 -33.5t0 -40.5t-13.5 -39t-28 -27.5q-16 -9 -35.5 -18.5t-36.5 -11.5q11 -12 8 -40t-32 -73
q-10 -15 -15 -38.5t-5.5 -49.5t4 -52t12.5 -46.5t19.5 -33t26.5 -11.5q27 2 61 15.5t71.5 28.5t78 26t80.5 9q-13 31 -20.5 62t-7.5 60t14.5 64t31.5 58q7 10 26 19t38 12.5t34 -1t15 -22.5q0 -17 -5.5 -31t-12.5 -27.5t-12.5 -27.5t-5.5 -31q0 -11 2.5 -28t6.5 -34t8.5 -33
t9.5 -25q23 -51 31.5 -100t8.5 -111z" />
    <glyph glyph-name="dotlessi" unicode="&#x131;" horiz-adv-x="265" 
d="M186 515q-7 -100 -4 -210.5t-1 -234.5q0 -12 -1 -24t-5.5 -23t-14.5 -20.5t-30 -17.5q-21 -9 -32.5 1t-16 31t-4 49.5t3.5 57.5t6 55.5t4 43.5q3 55 2 105.5t-2.5 97t-3.5 89.5t-1 84q0 11 -0.5 27.5t2 31t9.5 24t21 6.5q39 -8 55.5 -25.5t20 -41.5t-1 -51.5t-6.5 -54.5z
" />
    <glyph glyph-name="Lslash" unicode="&#x141;" horiz-adv-x="626" 
d="M536 95q-56 -36 -116.5 -62.5t-119.5 -46t-113.5 -32.5t-97.5 -22q-32 -7 -57 3t-39.5 29.5t-17.5 46t9 53.5q26 57 55 120.5t59 133.5q-9 0 -18 0.5t-18 1.5q-29 4 -41 17.5t-12 32t10.5 39t27 38t37 29.5t39.5 14l47 -4q32 78 64 158t62 162q7 19 23 28t34.5 8.5t37 -9
t31 -23.5t16.5 -36t-7 -46q-27 -64 -55.5 -126.5t-57.5 -125.5q12 -1 19.5 -1.5t13.5 0.5t13 2.5t19 4.5q11 3 28 7.5t35.5 8.5t35.5 5.5t28 -1.5q13 -3 18 -10.5t4.5 -16t-4.5 -17.5t-8 -15q-48 -66 -103.5 -92.5t-104.5 -18.5q-22 4 -56 1q-22 -51 -40.5 -100t-34.5 -100
q36 6 73.5 19t75 28.5t75 30.5t72.5 24q23 6 44.5 -9t33 -38.5t9 -50t-27.5 -42.5z" />
    <glyph glyph-name="lslash" unicode="&#x142;" horiz-adv-x="715" 
d="M675 150q-50 -29 -90 -51.5t-80.5 -40.5t-87 -33.5t-109.5 -31.5q-26 -7 -55 -18t-53.5 -11t-40.5 18t-15 71q2 80 3.5 150t4.5 137q-35 -3 -66 0q-23 3 -34.5 15t-14.5 28t1.5 34.5t13 34.5t20.5 26.5t25 11.5l62 -5q4 69 8.5 140.5t10.5 153.5q1 15 19.5 31t39.5 25.5
t38 8t15 -20.5q-9 -88 -13.5 -174t-6.5 -171l51 -4q8 -1 25.5 4t37.5 10.5t40 10.5t35.5 5.5t22.5 -6t1 -23.5q-22 -63 -64 -96.5t-87 -26.5q-28 4 -64 1q-1 -51 -1 -100.5v-97.5l16 -9q66 13 121.5 31.5t100.5 37t79 35t58 26.5q18 7 31 -8.5t18 -39t1.5 -47t-17.5 -31.5z
" />
    <glyph glyph-name="OE" unicode="&#x152;" horiz-adv-x="1515" 
d="M1525 773q6 -12 5 -31t-8 -39t-18.5 -39t-26.5 -29.5t-31.5 -10.5t-33.5 18q-18 19 -35.5 35.5t-41.5 22.5t-58.5 -3t-85.5 -40q-15 -9 -41.5 -26t-54.5 -37.5t-53.5 -42t-37.5 -39.5q37 3 88 8t105 10.5t107 10t95 5.5q18 1 35.5 0t33 -7t29 -19t22.5 -37
q14 -37 4.5 -59.5t-35.5 -33.5q-18 -8 -38 -8.5t-40 -2.5q-35 -3 -78.5 -6.5t-91 -7.5t-95.5 -9.5t-91.5 -12.5t-80 -15t-60.5 -17q-15 -13 -20 -35t-1.5 -44.5t15 -42t28.5 -27.5q36 -17 87.5 -13.5t105.5 18.5t105 35.5t86 38.5q19 9 41 18t41.5 9t35 -12t23.5 -44
q3 -11 3 -24.5t-3.5 -26.5t-11 -24t-20.5 -18q-59 -29 -112 -53t-106.5 -43t-111 -32t-124.5 -21q-29 -3 -67 9t-73 36t-62 57.5t-33 73.5q-32 -25 -71 -51t-81.5 -48.5t-86 -39.5t-84.5 -24q-42 -7 -90 -9t-95.5 3.5t-91 20t-76 39.5t-51 62.5t-15.5 88.5q2 49 16.5 101
t40.5 103t62.5 99.5t83.5 91.5q68 62 131 104t126 69.5t127.5 43.5t135.5 26q47 7 90 -3.5t79 -34t62.5 -57t40.5 -72.5q45 49 96 90.5t105 66.5q58 26 110 35.5t94.5 3.5t75 -27t52.5 -55zM834 512q6 42 -2 69.5t-26.5 43.5t-45 22t-57.5 6t-63.5 -4.5t-62.5 -9.5
q-65 -11 -130.5 -49t-121.5 -85q-32 -26 -61.5 -62.5t-50.5 -75t-31 -74t-2 -59.5q13 -42 46.5 -64t79.5 -27t100.5 5.5t111 33.5t110 57.5t96.5 77t72.5 92t37.5 103.5z" />
    <glyph glyph-name="oe" unicode="&#x153;" horiz-adv-x="1425" 
d="M1413 471q-8 -27 -15 -41.5t-15 -21.5t-18.5 -8.5t-24.5 -2.5q-51 -4 -117 -9.5t-131.5 -13.5t-121.5 -19t-87 -26q-15 -16 -18.5 -46.5t2.5 -61.5t22 -56t41 -29q26 -5 66 -3.5t85 9t91.5 22t86.5 36.5q16 9 26 24t19.5 28.5t22 22t33.5 5.5q18 -3 25.5 -26.5t6.5 -52.5
t-9.5 -55t-22.5 -35q-35 -21 -61 -35t-48.5 -23.5t-45 -16.5t-49.5 -14.5t-62.5 -16.5t-83.5 -23q-36 -10 -75.5 -6t-73.5 22t-58.5 50t-29.5 79q-5 35 -6 71q-23 -29 -55 -62.5t-68.5 -64t-75.5 -53t-76 -29.5q-41 -7 -86 -11t-90 -1.5t-88 12t-79 29t-63 50.5t-41 76
q-15 47 -18 100t5 106.5t27.5 103.5t49.5 92q44 61 97 106t111.5 76t122 50.5t129.5 29.5q46 7 93 -3.5t88.5 -34t75 -58t54.5 -75.5q10 15 20.5 31t23.5 33q23 32 56.5 55t71 37t76 19.5t73 3.5t62 -11.5t41.5 -24.5q6 -7 12.5 -21.5t11.5 -31.5t7.5 -35t0.5 -30t-9.5 -17
t-22.5 4q-73 41 -130.5 37t-117.5 -44q-18 -12 -41.5 -30t-44.5 -39.5t-35.5 -44.5t-14.5 -45q36 1 86.5 6.5t105.5 12.5t110 12.5t100 6.5q18 0 37 1t33 -2.5t20.5 -14.5t0.5 -34zM777 521q-10 47 -30.5 77.5t-48 47.5t-60 23t-66.5 6t-69 -5t-66 -11q-66 -12 -126 -49.5
t-100 -85.5q-23 -26 -37.5 -64.5t-19.5 -80t1 -81.5t26 -70q32 -47 76 -72t94 -31.5t103 2.5t102 30t94.5 58t78 85t47 104.5t1.5 116.5z" />
    <glyph glyph-name="Scaron" unicode="&#x160;" horiz-adv-x="810" 
d="M787 883q-33 -26 -74.5 -49.5t-72.5 -51.5q-27 -25 -49 -37.5t-56 -13.5q-15 -1 -27 2t-23.5 7.5t-22.5 11t-24 13.5q-15 7 -27.5 13.5t-24 11.5t-24.5 10t-29 10q-36 11 -51 25t-15.5 27.5t11.5 26t29.5 21.5t38 12.5t38.5 -1.5t41 -14.5t47 -21t46.5 -22.5t38.5 -19
q5 6 24.5 20.5t42.5 30t43.5 28.5t27.5 18q17 12 40 9.5t40.5 -13t23.5 -26t-12 -28.5zM798 555q-17 -21 -36.5 -14.5t-44 21t-55.5 27.5t-71 5q-35 -7 -77.5 -21t-88 -34t-90.5 -45t-84 -53q49 13 95.5 19t92.5 8t91 2h90q15 0 43.5 -6.5t56.5 -18t49.5 -25.5t21.5 -29
t-5 -36.5t-18.5 -46t-37 -51.5t-58.5 -52q-81 -57 -146 -98.5t-129.5 -68.5t-136.5 -39t-166 -9q-32 1 -57.5 15.5t-41.5 35.5t-21.5 44t3 40.5t31.5 25.5t64 -2q58 -14 112.5 -13.5t103.5 9.5t92.5 24t80.5 30q22 9 45 25t42.5 33.5t33 32.5t16.5 21q6 13 -4.5 21t-32.5 12
t-53.5 4t-66.5 -2q-40 -3 -83 -10.5t-84.5 -19.5t-79 -29t-67.5 -39q-24 -18 -51 -17t-50 11.5t-38 25t-15 23.5q-1 23 16 50.5t44.5 57t63 59t72 56t70.5 48.5t60 35q70 36 129.5 63.5t115 44t110.5 20.5t116 -8q26 -5 39 -24.5t15.5 -44.5t-5 -50.5t-21.5 -42.5z" />
    <glyph glyph-name="scaron" unicode="&#x161;" horiz-adv-x="739" 
d="M594 877q-27 -27 -60.5 -51t-58.5 -53q-22 -25 -39 -38.5t-46 -14.5q-26 0 -42 11t-38 24q-12 8 -22 14.5t-19.5 12t-20 10.5t-23.5 11q-29 11 -41 25t-12.5 28.5t9 27t24 21.5t31.5 12.5t31 -1.5t33 -14.5t38.5 -21t38 -23t30.5 -19.5q4 6 20 20.5t34.5 30.5t35 30
t22.5 19q14 12 33 9t33 -13.5t19 -26.5t-10 -30zM716 385q6 -14 10 -33.5t2 -42t-11.5 -47t-30.5 -46.5q-52 -56 -105 -98.5t-113 -70t-131 -41t-159 -10.5q-35 1 -63.5 26.5t-42.5 65.5q-6 16 -1 26.5t17 15.5t28 5.5t32 -3.5q64 -15 118.5 -14.5t99.5 10.5t82 25.5
t66 31.5q19 10 36 28t29.5 36.5t19.5 35.5t7 25q0 20 -26 33.5t-67.5 18t-93.5 1t-103 -16t-95.5 -34.5t-72.5 -54q-12 -15 -33 -13t-41 11t-36.5 21.5t-19.5 19.5q-9 19 -5 44.5t17 52.5t32.5 55t41.5 53.5t45 46.5t42 35q50 35 96.5 60t94.5 39t99.5 16t111.5 -9
q19 -4 35.5 -25.5t25 -47t6 -47t-21.5 -24.5q-26 -5 -47 6t-43 23.5t-48.5 19t-63.5 -5.5q-36 -12 -75.5 -26t-77.5 -35t-72.5 -51t-62.5 -73q48 19 89 29.5t84.5 14.5t95 4.5t121.5 0.5q14 0 41.5 -6.5t56.5 -16.5t52 -22t28 -23z" />
    <glyph glyph-name="Ydieresis" unicode="&#x178;" horiz-adv-x="825" 
d="M650 872q9 -24 7 -46t-13 -42t-30 -37t-43 -30q-22 -11 -37.5 -6.5t-25.5 18t-13 33.5t0 40.5t13.5 38.5t27.5 28q14 8 30.5 16.5t32.5 11.5t29.5 -1.5t21.5 -23.5zM372 733q-14 -8 -30.5 -16.5t-32.5 -12t-30 1.5t-21 24q-9 24 -7 46t13 42t30 37t43 30q21 11 37 6.5
t26 -18t13 -33.5t0 -40.5t-13.5 -39t-27.5 -27.5zM857 673q-7 -16 -19.5 -30.5t-25.5 -28.5t-25.5 -28.5t-19.5 -29.5q-5 -11 -9 -26.5t-7.5 -32t-5.5 -31.5t-2 -24q2 -53 -12 -103.5t-42 -113.5q-9 -19 -23.5 -42.5t-34.5 -47t-45 -45t-55 -36.5q-50 -25 -87.5 -43t-74 -30
t-76.5 -17.5t-94 -5.5q-14 0 -33.5 0.5t-43.5 5t-52 14t-58 28.5q-14 8 -22 24.5t-11 35t-1 37.5t9 32.5t19 20t28 0.5q22 -8 42.5 -17t42.5 -16.5t45.5 -12.5t51.5 -5q81 0 145 16.5t123 58.5q34 24 48 49t22 57q-35 0 -77 -5.5t-85.5 -15.5t-86 -23t-78.5 -26
q-49 -18 -81 -24t-43 5q-28 26 -37 58.5t-6 67.5t15.5 69.5t28.5 64.5t32 53.5t27 36.5q29 35 59 70t67 67q19 16 40.5 23.5t39 7t28 -10t7.5 -28t-22.5 -46t-62.5 -65.5q-23 -20 -45 -52.5t-35.5 -63t-13.5 -52.5t21 -20q15 1 35 3t42 5t43 7t36 9q39 13 80.5 24t81.5 13
q2 26 8 52.5t18 52.5q7 16 20 34t28 36t31.5 33.5t31.5 27.5q11 9 29 17.5t38 14t39.5 8t33 -0.5t19 -12.5t-2.5 -27.5z" />
    <glyph glyph-name="Zcaron" unicode="&#x17d;" horiz-adv-x="719" 
d="M793 554q-34 -20 -69.5 -37t-70.5 -37q-45 -26 -88 -56.5t-85 -62.5q-75 -58 -155.5 -106.5t-157.5 -104.5q63 5 126 13.5t126 20.5q34 6 67 14t66 14q31 5 47.5 -12.5t18.5 -42t-9.5 -48.5t-36.5 -31q-26 -8 -53 -14t-54 -13q-53 -14 -110.5 -28t-116.5 -26t-117.5 -19
t-113.5 -7q-33 0 -54 17.5t-32 47.5q-11 33 -9.5 56t13.5 41t32.5 32t47.5 28q9 5 19.5 9.5t18.5 9.5l464 316q-20 3 -39 2.5t-39 -1.5q-32 0 -58.5 -4t-51.5 -9t-51 -10t-56 -8q-18 -2 -31.5 8.5t-22 27t-11.5 37t-0.5 39t11 32t24.5 16.5q62 12 131.5 16.5t132.5 6.5
q-21 14 -42.5 26.5t-44.5 22.5q-39 17 -55 36t-16 38t12.5 35.5t31.5 28t41 15.5t41 -2q35 -11 67.5 -31.5t63.5 -40.5q49 49 102 90q22 17 49 13.5t45.5 -19t24 -39t-15.5 -45.5q-32 -35 -70.5 -65t-72.5 -64q45 -2 90.5 -5.5t90.5 -6.5q26 -2 36.5 -16t9.5 -32.5
t-12.5 -37t-28.5 -28.5z" />
    <glyph glyph-name="zcaron" unicode="&#x17e;" horiz-adv-x="719" 
d="M595 860q-27 -27 -60.5 -51t-59.5 -53q-21 -26 -38 -39t-46 -14q-13 0 -23 2.5t-19 7.5t-18 11.5t-20 13.5q-25 16 -41.5 26t-43.5 21q-29 11 -41 25.5t-12.5 28.5t9 27t24 22t31 12.5t31.5 -1.5q14 -5 33 -15t38.5 -21.5t38 -23t30.5 -19.5q4 6 20 21t34.5 30.5t35 29.5
t22.5 19q14 12 32.5 9.5t33 -13.5t19 -26.5t-9.5 -29.5zM684 576q-29 -19 -55.5 -36t-53.5 -38.5t-57.5 -50.5t-66.5 -71q-30 -35 -63.5 -66t-67.5 -61.5t-67 -61.5t-62 -67q58 4 109 10t101 13.5t101 18.5t109 26q18 4 28.5 -10t13 -33.5t-3 -37.5t-19.5 -22
q-47 -13 -107.5 -29t-127.5 -30.5t-137 -25t-137 -12.5q-26 -2 -43.5 7t-33.5 29q-26 33 -29 57.5t9.5 44.5t36.5 38t54 37l347 333q-13 8 -29 11.5t-32.5 4t-32 0t-27.5 -0.5q-39 0 -64 -1.5t-50 -5.5t-56 -9.5t-82 -12.5q-20 -3 -28 14.5t-7 40t11 42.5t27 22
q94 14 166.5 20t136 6.5t125 -3.5t135.5 -8q12 2 22.5 -8t15.5 -24t3.5 -28.5t-12.5 -21.5z" />
    <glyph glyph-name="florin" unicode="&#x192;" horiz-adv-x="510" 
d="M494 674q-12 -29 -27.5 -33t-32.5 6t-35 27.5t-34 31t-29.5 17t-21.5 -14.5q-11 -25 -15 -56t-3.5 -64t3 -65t5.5 -58h31.5t33.5 -4t28 -13t16 -27q1 -6 0.5 -13.5t-3.5 -14.5t-10 -12t-18 -6q-23 -2 -39.5 -3.5t-32.5 -3.5q1 -36 3.5 -84t1.5 -98t-9 -96t-28 -76
q-32 -49 -74 -56.5t-84 15.5q-14 7 -31 17t-33 22t-29.5 26t-21.5 30q-7 14 -2.5 36t16 39.5t28 24t34.5 -10.5q12 -12 22.5 -24.5t21.5 -23t24.5 -17.5t33.5 -7q11 0 17 10t9 23.5t4 27t1 21.5q2 48 -0.5 94t-10.5 93q-20 -3 -39 -8.5t-39 -9.5q-15 -3 -26.5 3t-20 16.5
t-12.5 23.5t-4 23q0 32 24 44.5t55 12.5q16 0 29.5 1t28.5 2q-2 79 -0.5 148.5t10.5 117.5q7 39 24 61.5t38.5 32.5t45.5 10.5t47 -5.5q26 -7 54.5 -19.5t49.5 -31.5t30 -44.5t-4 -57.5z" />
    <glyph glyph-name="circumflex" unicode="&#x2c6;" horiz-adv-x="538" 
d="M433 681q29 -11 41.5 -25t12.5 -28.5t-9.5 -27t-23.5 -21.5t-31 -12.5t-31 1.5q-14 4 -33 14t-39 21.5t-38 23t-31 19.5q-4 -6 -20 -21t-34.5 -30.5t-35 -29.5t-22.5 -19q-14 -12 -32.5 -9.5t-33 13.5t-19 27t9.5 30q27 27 61 51t59 53q22 25 39 38.5t46 14.5
q13 0 22.5 -3t18.5 -8t18 -11.5t20 -13.5q25 -15 41.5 -25.5t43.5 -21.5z" />
    <glyph glyph-name="breve" unicode="&#x2d8;" horiz-adv-x="589" 
d="M511 859q-28 -26 -61.5 -50.5t-58.5 -53.5q-22 -25 -39 -38t-46 -14q-13 0 -23 2.5t-19 7.5t-18 11.5t-19 13.5q-13 8 -22.5 14.5t-19 12t-20 10.5t-23.5 10q-29 11 -41.5 25.5t-12.5 28.5t9.5 27t23.5 22t31 12.5t31 -1.5t33 -15t38.5 -21.5t38 -23t30.5 -19.5
q4 6 20 21t34.5 30.5t35 29.5t22.5 19q14 12 33 9.5t33 -13.5t19 -27t-9 -30z" />
    <glyph glyph-name="ring" unicode="&#x2da;" horiz-adv-x="609" 
d="M579 809q4 -26 -7.5 -50.5t-35.5 -46.5t-59 -39.5t-77 -28.5q-28 -8 -66 -10.5t-77 -0.5t-74.5 10t-57.5 23q-34 22 -45 43.5t-6.5 43.5t20 43.5t35.5 43.5q13 16 38 29.5t54.5 24t60 17t55.5 7.5q38 1 79 -6.5t76.5 -22.5t59.5 -35.5t27 -44.5zM467 760q6 6 7.5 14
t-2 16t-12.5 14.5t-24 9.5q-23 5 -49.5 8.5t-55 3.5t-58.5 -6t-61 -21q-30 -14 -39.5 -31.5t9.5 -34.5q16 -15 52 -19t76 -3q23 0 47.5 5t46.5 12t38.5 15.5t24.5 16.5z" />
    <glyph glyph-name="tilde" unicode="&#x2dc;" horiz-adv-x="680" 
d="M651 675q-14 -25 -37.5 -44t-51.5 -31t-58 -15.5t-58 1.5q-25 5 -50 15.5t-49 22t-47 22t-44 14.5q-26 5 -41.5 2.5t-25.5 -10.5t-17 -20t-17 -24q-6 -7 -10.5 -18t-13 -18t-23 -5.5t-38.5 19.5q-7 6 -15 16.5t-12.5 24.5t-5 31t7.5 36q7 19 24 37t39.5 31t49.5 19t56 0
q26 -5 52 -17t52 -25.5t52 -25.5t52 -17q16 -3 35 3t37 17.5t31.5 27t19.5 31.5q2 6 11.5 9t23 2.5t29 -5t30.5 -11.5q28 -14 28.5 -40t-16.5 -55z" />
    <glyph glyph-name="pi" unicode="&#x3c0;" horiz-adv-x="623" 
d="M598 687q-23 -4 -41.5 -7t-34.5 -6t-31.5 -6.5t-31.5 -9.5q-3 -69 -5 -149t-3 -161.5t0 -159.5t3 -144q0 -16 -15.5 -32.5t-35 -26.5t-35.5 -8t-16 24q0 73 1 158t1.5 171.5t-1 169t-6.5 150.5q-14 4 -32 -1.5t-39 -8.5q-5 -20 -6 -44q-3 -58 -3.5 -118.5t0 -124.5
t0.5 -131.5t-2 -139.5q-1 -29 -11 -55t-50 -45q-21 -10 -32.5 1.5t-16 36.5t-4 58.5t3.5 67.5t6 65.5t4 50.5q5 104 1 193t-6 170q-35 -8 -63.5 -13t-45.5 0q-12 3 -24.5 20.5t-20.5 38t-8.5 39.5t11.5 26q30 18 61 26t63 12t66 5.5t72 6.5q55 6 89.5 7.5t64 -0.5t63 -5.5
t87.5 -7.5q17 -1 29.5 -14.5t17 -30t-0.5 -31t-23 -17.5z" />
    <glyph glyph-name="endash" unicode="&#x2013;" horiz-adv-x="662" 
d="M637 458q-11 -31 -27.5 -52t-36.5 -33t-42.5 -16.5t-44.5 -1.5q-47 5 -80.5 5t-60.5 -3t-50 -7.5t-49 -8t-58.5 -3.5t-77.5 5q-35 4 -44.5 24.5t-3.5 43.5t23 41.5t36 20.5l354 -16q8 0 25.5 4.5t37.5 10.5t40 11t35.5 5t22.5 -6.5t1 -23.5z" />
    <glyph glyph-name="emdash" unicode="&#x2014;" horiz-adv-x="884" 
d="M839 458q-11 -31 -27.5 -52t-36.5 -33t-42.5 -16.5t-44.5 -1.5q-71 8 -144.5 4.5t-147 -10t-146 -10.5t-140.5 4q-35 4 -44.5 24.5t-3.5 43.5t23 41.5t36 20.5l556 -16q8 0 25.5 4.5t37.5 10.5t40 11t35.5 5t22.5 -6.5t1 -23.5z" />
    <glyph glyph-name="quoteleft" unicode="&#x2018;" horiz-adv-x="273" 
d="M268 530q1 -25 -10 -47.5t-27 -36.5t-33 -16t-27 15q-10 31 -21.5 71.5t-20.5 87t-13.5 97t-1.5 102.5q5 33 25 35t41 -13t36 -39.5t12 -45.5q-4 -23 1 -49t13.5 -53.5t16.5 -55t9 -52.5z" />
    <glyph glyph-name="quoteright" unicode="&#x2019;" horiz-adv-x="309" 
d="M337 778q-29 -36 -55 -68t-50.5 -63.5t-47 -66.5t-44.5 -77q-8 -15 -25.5 -24.5t-35.5 -9.5t-30 10.5t-8 34.5q11 36 22 60t23 45.5t25.5 45.5t30.5 59q8 16 23 43t35 48q17 18 45 23t53 0t38.5 -20.5t0.5 -39.5z" />
    <glyph glyph-name="quotesinglbase" unicode="&#x201a;" horiz-adv-x="281" 
d="M337 296q-29 -36 -55 -68t-50.5 -63.5t-47 -66.5t-44.5 -77q-8 -15 -25.5 -24.5t-35.5 -9.5t-30 10.5t-8 34.5q11 36 22 60t23 45.5t25.5 45.5t30.5 59q4 8 9.5 19.5t13 24t16.5 25t19 22.5q17 18 45 23.5t53 0t38.5 -21t0.5 -39.5z" />
    <glyph glyph-name="quotedblleft" unicode="&#x201c;" horiz-adv-x="530" 
d="M480 489q-4 -24 -19 -29.5t-31.5 0.5t-30.5 20.5t-16 31.5q-6 47 -15 87.5t-21 78.5t-26 77t-29 83q-3 27 15 36.5t43 6.5t49.5 -18t34.5 -37q6 -13 10 -28t7 -29.5t4.5 -27t2.5 -21.5q3 -39 7.5 -66l8.5 -51t5.5 -50.5t0.5 -63.5zM307 452q-5 -24 -20 -29.5t-31.5 0.5
t-30 20.5t-15.5 31.5q-6 47 -15.5 87.5t-21.5 78.5t-25.5 77t-28.5 83q-4 27 14 37t43 6.5t49.5 -18.5t34.5 -37q6 -13 10 -28t7 -29.5t4.5 -27t2.5 -21.5q3 -39 8 -66t8.5 -51t5.5 -50.5t1 -63.5z" />
    <glyph glyph-name="quotedblright" unicode="&#x201d;" horiz-adv-x="530" 
d="M542 785q-29 -36 -55 -68t-50.5 -63.5t-47 -66.5t-44.5 -77q-8 -15 -26 -24.5t-35.5 -9.5t-29.5 10.5t-8 34.5q11 35 22 59t23 46t25 46t30 59q8 16 23.5 43t35.5 48q17 18 45 23t53 0t38.5 -20.5t0.5 -39.5zM337 796q-29 -36 -55 -68t-50.5 -63.5t-47 -66.5t-44.5 -77
q-8 -15 -26 -24.5t-35.5 -9.5t-29.5 10.5t-8 34.5q11 35 22 59t23 46t25 46t30 59q8 16 23.5 43t35.5 48q17 18 45 23t52.5 0t38 -20.5t1.5 -39.5z" />
    <glyph glyph-name="quotedblbase" unicode="&#x201e;" 
d="M545 288q-29 -36 -55 -68t-50.5 -63.5t-47 -66.5t-44.5 -77q-8 -15 -26 -24.5t-35.5 -9.5t-29.5 10.5t-8 34.5q11 36 22 60t23 45.5t25.5 45.5t30.5 59q7 16 22.5 43t35.5 48q17 18 45 23t53 0t38.5 -20.5t0.5 -39.5zM340 299q-29 -36 -55 -68t-50.5 -63.5t-47 -66.5
t-44.5 -77q-8 -15 -26 -24.5t-35.5 -9.5t-29.5 10.5t-8 34.5q11 35 22 59t23 46t25 46t30 59q8 16 23.5 43t35.5 48q17 18 45 23t53 0t38.5 -20.5t0.5 -39.5z" />
    <glyph glyph-name="dagger" unicode="&#x2020;" horiz-adv-x="514" 
d="M483 475q-22 -63 -64 -96.5t-87 -26.5q-5 1 -10 1.5t-10 0.5q1 -65 1 -132.5t-2 -139.5q-1 -29 -11 -55t-50 -45q-21 -10 -32.5 1.5t-16 36.5t-4 58.5t3.5 67.5t6 65.5t4 50.5q1 22 1.5 43.5t0.5 41.5q-33 -4 -65.5 -7.5t-61.5 0.5q-23 3 -34.5 15t-14.5 28t1.5 34.5
t13 34.5t20.5 26.5t25 11.5l114 -8q-2 60 -4 115t-1 108q0 13 -0.5 32t2 36.5t9.5 28.5t21 8q39 -9 57 -30t23 -49.5t2.5 -61t-4.5 -63.5q-2 -32 -3 -64.5t-1 -66.5l9 -1q8 -1 25.5 4t37.5 10.5t40 10.5t35.5 5.5t22.5 -6t1 -23.5z" />
    <glyph glyph-name="daggerdbl" unicode="&#x2021;" horiz-adv-x="522" 
d="M498 558q-21 -45 -61 -69.5t-85 -17.5q-5 1 -10.5 1.5t-10.5 0.5q-1 -32 -0.5 -65t0.5 -67q31 4 60.5 6.5t55.5 -0.5q34 -4 46.5 -13.5t9 -21.5t-18.5 -26.5t-34 -28.5q-25 -18 -52 -22t-67 -5v-74.5t-1 -75.5q0 -14 -2.5 -28t-8.5 -27t-18 -25t-32 -21q-19 -9 -30 -0.5
t-16.5 27.5t-6 47t1 58t4.5 60.5t5 54.5q-6 -1 -12 -1.5t-13 -1.5q-14 -2 -41 -3.5t-52 2t-40.5 15.5t-6.5 38q11 31 26 45.5t32.5 19t38 1.5t42.5 -6q8 -1 15 -1.5t15 -0.5q1 35 0.5 68t-1.5 65q-32 -5 -64 -8t-60 1q-35 4 -44.5 24.5t-3.5 43.5t23 41.5t36 20.5l109 -8
q-1 32 -1.5 62t-0.5 60v32t2.5 36t9.5 28t21 8q39 -9 57 -30t23 -49t2 -60.5t-4 -64.5q-1 -8 -1.5 -14.5t-0.5 -14.5l8 -1q8 -1 25.5 2.5l37.5 7.5t40 6.5t34.5 1t21 -9t-1.5 -23.5z" />
    <glyph glyph-name="bullet" unicode="&#x2022;" horiz-adv-x="291" 
d="M266 421q-14 -35 -34 -65t-45 -49t-55 -23t-63 13q-27 14 -35 38t-4.5 50.5t14 53.5t18.5 47q13 31 37 49t51.5 23t54.5 -2t45.5 -25t24 -45.5t-8.5 -64.5z" />
    <glyph glyph-name="ellipsis" unicode="&#x2026;" horiz-adv-x="1093" 
d="M910 161q11 -23 10.5 -44.5t-7.5 -39.5t-16.5 -31.5t-16.5 -21.5q-28 -32 -54.5 -44.5t-47.5 -9.5t-35.5 20.5t-19.5 44.5q-5 28 -2.5 54.5t10 49t20.5 39t29 23.5q20 8 38 12.5t34.5 1t31 -16t26.5 -37.5zM545 168q10 -20 6.5 -47t-15.5 -53.5t-28.5 -49.5t-32.5 -35
q-33 -25 -66 -18.5t-50 39.5q-14 25 -15 48t5 44.5t18 42t25 41.5q17 28 38 40t42 9t40 -18.5t33 -42.5zM201 88q-12 -32 -29 -59.5t-37.5 -44t-45 -20t-51.5 11.5q-21 12 -26.5 33t-2 45t12 47t14.5 40q10 27 29.5 42t41.5 20t43.5 -0.5t36.5 -20.5t20 -38.5t-6 -55.5z" />
    <glyph glyph-name="perthousand" unicode="&#x2030;" horiz-adv-x="1183" 
d="M1155 233q3 -36 -5.5 -70.5t-26 -65t-43 -55t-55.5 -39.5q-20 -11 -47.5 -15t-56 -0.5t-54 14.5t-41.5 31q-25 31 -33 61.5t-5 61t14.5 60.5t25.5 61q10 22 28 41t39.5 33.5t43.5 23t40 10.5q28 2 58 -9t55.5 -31.5t42.5 -49.5t20 -62zM396 668q3 -36 -6 -70.5t-26 -65
t-42.5 -55t-55.5 -39.5q-20 -11 -48 -15t-56.5 -0.5t-54 14.5t-41.5 31q-25 31 -33 61.5t-4.5 61t15 60.5t25.5 61q10 22 28 41t39 33.5t43.5 23t40.5 10.5q27 2 57 -9t55.5 -31.5t43 -49.5t20.5 -62zM743 741q-59 -76 -130.5 -166t-156.5 -181q-16 -17 -42.5 -48.5
t-58.5 -70t-66.5 -80.5t-66.5 -81t-59.5 -71.5t-44.5 -51.5q-14 -15 -36.5 -21t-41.5 -2.5t-28 16t5 34.5q20 31 49.5 70t64 81t71.5 85.5t72 85.5t66.5 79.5t53.5 68.5q34 46 74 93.5t78.5 92t70.5 83.5t51 66q13 19 32 16t33.5 -18.5t19.5 -38t-10 -41.5zM763 220
q3 -36 -5.5 -70.5t-26 -65t-42.5 -55t-55 -39.5q-21 -11 -48.5 -15t-56 -0.5t-54 14.5t-41.5 31q-25 31 -33 61.5t-5 61t14.5 60.5t25.5 61q10 22 28 41t39.5 33.5t43.5 23t40 10.5q28 2 58 -9t55.5 -31.5t42.5 -49.5t20 -62zM1074 165q4 7 5 18.5t-1.5 23t-9 21t-17.5 13.5
q-17 7 -36 12t-39.5 4.5t-43 -9t-44.5 -28.5t-29 -44t7 -49q12 -21 38 -26.5t55 -3.5q17 0 35 6.5t33.5 16.5t28 22t18.5 23zM315 600q4 7 5 18.5t-1.5 23t-9 21t-17.5 13.5q-17 7 -36 12t-40 4.5t-43 -9t-44 -28.5t-29 -44t7 -49q12 -21 38 -26.5t55 -3.5q17 0 35 6.5
t33.5 16.5t28 22t18.5 23zM682 152q4 8 5 19t-1.5 22.5t-9 21t-16.5 13.5q-17 7 -36 12t-40 4.5t-43 -9t-44 -28.5t-29 -44t7 -49q11 -20 38.5 -25t56.5 -4q17 1 34.5 7t33 16t27 21.5t17.5 22.5z" />
    <glyph glyph-name="guilsinglleft" unicode="&#x2039;" 
d="M428 215q16 -13 14 -32.5t-13 -36.5t-26.5 -26t-27.5 -1q-69 51 -139 97.5t-142 100.5q-12 9 -25.5 13.5t-25.5 9t-21 11.5t-12 21q-3 18 4.5 28.5t21 18.5t30.5 15.5t33 18.5q32 28 62 58t55.5 59t46 54t33.5 43q9 12 26.5 12.5t33 -6.5t24.5 -19.5t1 -26.5
q-22 -38 -43.5 -60.5t-47.5 -43.5t-57.5 -48t-73.5 -75q36 -33 71.5 -57.5t69.5 -44.5t66.5 -39.5t61.5 -43.5z" />
    <glyph glyph-name="guilsinglright" unicode="&#x203a;" 
d="M426 382q-9 -14 -17 -22t-16 -15t-17 -14.5t-20 -20.5q-16 -21 -39.5 -45t-49.5 -49t-51.5 -49.5t-45.5 -45.5q-11 -11 -32 -17.5t-40.5 -6.5t-30 7.5t-0.5 22.5q21 33 49.5 63t58 60t55.5 61t43 66q-53 51 -114 111t-133 130q-7 6 -4 17.5t12 23.5t22 23.5t27.5 18t28 6
t23.5 -11.5q22 -26 48.5 -56t56.5 -61t63 -61.5t68 -57.5q12 -10 24.5 -19t21.5 -18.5t12 -19.5t-3 -20z" />
    <glyph glyph-name="fraction" unicode="&#x2044;" horiz-adv-x="526" 
d="M548 798q-45 -85 -99.5 -185.5t-122.5 -205.5q-13 -20 -33.5 -55.5t-45.5 -79t-51.5 -91t-51.5 -91.5t-46 -80.5t-35 -58.5q-11 -17 -32.5 -27t-40.5 -10t-30 11t-1 35q22 52 60.5 121.5t81 143t82.5 143t66 120.5q25 51 56 105.5t61 104.5t55 94t39 74q9 21 28.5 21
t36.5 -12.5t25.5 -33.5t-2.5 -43z" />
    <glyph glyph-name="Euro" unicode="&#x20ac;" horiz-adv-x="796" 
d="M758 123q-12 -15 -33 -29t-47.5 -26t-55.5 -22t-56 -18q-63 -19 -125 -31.5t-118 -9.5t-104 26.5t-82 77.5q-24 39 -33 79t-5 81q-23 1 -42.5 5t-32.5 11t-17.5 17.5t3.5 25.5q23 42 55 57t70 16q6 13 12 25t13 24q-11 0 -20.5 0.5t-19.5 1.5q-37 3 -56 14.5t-23.5 26.5
t2.5 32.5t21 32t33.5 24.5t39.5 11l116 -6l6 9q42 54 90 99.5t102.5 78t116 47.5t130.5 8q16 -2 23.5 -23t6 -45t-11 -43.5t-26.5 -19.5q-30 1 -47.5 1t-35 -3.5t-40 -12.5t-62.5 -26q-63 -27 -121 -76l115 -5q14 -1 41.5 2.5t59.5 7.5t65 7.5t56.5 2t33.5 -9.5t-2 -26
q-17 -25 -42.5 -44t-56.5 -32t-66 -18t-71 -1q-54 5 -117.5 0t-128.5 -10q-10 -15 -18.5 -30.5t-15.5 -30.5q43 -5 93.5 -2t102.5 7.5t103 8t96 -0.5q55 -5 75 -15t14.5 -23.5t-29.5 -29t-55 -30.5q-33 -16 -68 -21.5t-80.5 -7t-106.5 -2t-146 -6.5q-6 -1 -13.5 -1t-16.5 -1
q2 -29 17 -50.5t37.5 -36.5t50.5 -23.5t55 -12.5q39 -5 80 1t83 21t86 37.5t89 48.5q9 5 23.5 -5t26 -28t15 -40t-10.5 -41z" />
    <glyph glyph-name="trademark" unicode="&#x2122;" horiz-adv-x="822" 
d="M803 407q2 -17 -11 -32t-30 -22.5t-33.5 -5.5t-21.5 19q-14 51 -18.5 103.5t-17.5 103.5q-10 -35 -16 -56.5t-11.5 -39t-10.5 -33.5t-12 -38q-3 -9 -13.5 -21.5t-24 -21.5t-27.5 -10.5t-23 10.5q-14 19 -20.5 41t-10.5 46t-7.5 47.5t-11.5 45.5q-12 -42 -20.5 -88
t-13.5 -89q-3 -26 -19.5 -33.5t-34.5 -4t-31 16t-10 27.5q22 95 42 187.5t43 189.5q3 11 14.5 20.5t25 13t26.5 1t20 -15.5q25 -48 34 -93.5t21 -89.5q8 21 13.5 39t11 38.5t13 44t19.5 54.5q4 12 19 20t32 8.5t32 -8t20 -30.5q6 -31 14.5 -71.5t17 -85.5t16.5 -93t15 -94z
M363 695q-24 -5 -49 -4t-47 -5q-2 -34 -3 -72t-1 -76.5v-75.5t1 -68q1 -17 -13 -31.5t-31 -20.5t-31.5 0t-14.5 30q0 34 0.5 73.5t0.5 80t-0.5 80t-2.5 72.5q-11 -1 -22.5 -5.5l-23 -9t-23 -6.5t-23.5 1q-6 1 -17.5 13t-19 28t-7 32t17.5 26q17 9 34 13.5t34 7t35 3.5t36 3
q23 3 41.5 3t36.5 -0.5t36.5 -2.5t41.5 -3q17 -1 28 -13.5t13.5 -27.5t-3.5 -28.5t-24 -16.5z" />
    <glyph glyph-name="Omega" unicode="&#x2126;" horiz-adv-x="841" 
d="M816 129q-11 -33 -26.5 -58.5t-35 -42t-40.5 -24t-42 -4.5q-26 4 -40 1t-26 -8t-26.5 -8.5t-40.5 -0.5q-29 4 -39.5 23.5t-8 44t14 48t26.5 34.5q14 58 26 117.5t15 119t-7 117.5t-40 112q-12 22 -30.5 46.5t-40.5 42t-45.5 23t-46.5 -10.5q-55 -38 -88.5 -95.5
t-41.5 -129.5t10 -155t65 -173q25 5 40.5 1t7.5 -29q-11 -33 -26.5 -58.5t-35 -42.5t-40.5 -24.5t-42 -4.5q-26 4 -40 2.5t-26.5 -5t-27.5 -6t-42 0.5q-22 3 -33 15.5t-13.5 30t1.5 37t12.5 36t20 27t23.5 11.5q19 1 40 -2t39 -8q-24 54 -37 115t-14 124t10.5 124.5
t35.5 115.5t61.5 97.5t88.5 70.5q30 16 67 29.5t74.5 16t73.5 -10.5t65 -49q45 -57 71 -133.5t34.5 -161t-1 -171.5t-35.5 -163q13 3 31 8t37 10t37 8t31 1.5t19 -8.5t1 -23z" />
    <glyph glyph-name="partialdiff" unicode="&#x2202;" horiz-adv-x="788" 
d="M714 227q-12 -35 -31 -70.5t-42.5 -67t-51 -55.5t-57.5 -35q-75 -29 -151 -36.5t-140.5 9.5t-113 61t-69.5 119q-8 29 -15 59.5t-6.5 61.5t12 62t41.5 60q33 32 62 51t58 29.5t61 15.5t70 9q69 8 139.5 -9.5t137.5 -47.5q-4 18 -14 41q-33 77 -82 120t-107.5 60.5
t-123 14t-130.5 -19.5q-16 -7 -23.5 8.5t-7 38.5t9 45.5t24.5 30.5q60 28 114.5 33t105 -6t97.5 -36t93 -58q28 -21 53 -55.5t44.5 -77.5t33 -91t19.5 -95.5t4 -91t-14 -77.5zM610 278q-54 57 -138.5 74t-185.5 5q-9 -1 -25 -5.5t-35 -12.5t-38 -18t-34 -22t-23 -25t-4 -27
q6 -23 15.5 -46.5t24.5 -43.5t35.5 -35t47.5 -19q42 -8 91 -7t96 15t87.5 43t65.5 79q12 22 20 45z" />
    <glyph glyph-name="Delta" unicode="&#x2206;" horiz-adv-x="651" 
d="M634 112q6 -12 3 -28t-12 -32.5t-22.5 -31t-28.5 -23.5q-13 -8 -32.5 -11.5t-33.5 -1.5q-53 7 -108 4t-109.5 -9t-108.5 -9.5t-105 3.5q-8 1 -18 9.5t-18.5 20t-13 25t0.5 24.5q37 92 61 173.5t44.5 161t43 160.5t57.5 173q7 18 23.5 38t35.5 33.5t36.5 15.5t25.5 -18
q15 -36 27.5 -72.5t24.5 -73t25 -73.5t30 -76q42 -94 81.5 -191.5t90.5 -190.5zM487 78q-26 46 -50 108t-48 128t-49 131t-53 118q-34 -47 -52 -103.5t-29.5 -118.5t-21.5 -126.5t-28 -125.5z" />
    <glyph glyph-name="product" unicode="&#x220f;" horiz-adv-x="623" 
d="M598 687q-23 -4 -41.5 -7t-34.5 -6t-31.5 -6.5t-31.5 -9.5q-3 -69 -5 -149t-3 -161.5t0 -159.5t3 -144q0 -16 -15.5 -32.5t-35 -26.5t-35.5 -8t-16 24q0 73 1 158t1.5 171.5t-1 169t-6.5 150.5q-14 4 -32 -1.5t-39 -8.5q-5 -20 -6 -44q-3 -58 -3.5 -118.5t0 -124.5
t0.5 -131.5t-2 -139.5q-1 -29 -11 -55t-50 -45q-21 -10 -32.5 1.5t-16 36.5t-4 58.5t3.5 67.5t6 65.5t4 50.5q5 104 1 193t-6 170q-35 -8 -63.5 -13t-45.5 0q-12 3 -24.5 20.5t-20.5 38t-8.5 39.5t11.5 26q30 18 61 26t63 12t66 5.5t72 6.5q55 6 89.5 7.5t64 -0.5t63 -5.5
t87.5 -7.5q17 -1 29.5 -14.5t17 -30t-0.5 -31t-23 -17.5z" />
    <glyph glyph-name="summation" unicode="&#x2211;" horiz-adv-x="678" 
d="M614 653q-50 -5 -99.5 3t-99.5 13.5t-101 -0.5t-104 -38q20 -23 45.5 -46t50.5 -43t46.5 -36.5t34.5 -26.5q25 -21 33 -39.5t5.5 -35.5t-12.5 -31t-22 -25t-23 -19.5t-15 -13.5q-22 -30 -39 -50.5t-31 -38.5t-26 -37.5t-23 -46.5q32 1 65 4.5t70.5 11t82 19.5t99.5 32
q13 4 22 -2t14 -18.5t6.5 -28.5t-0.5 -30.5t-7.5 -26t-14.5 -14.5q-47 -16 -98.5 -31.5t-103 -29t-99 -24t-85.5 -16t-64 -6t-33 7.5q-7 7 -18 23t-20 33.5t-11.5 34.5t6.5 26q59 57 119.5 133t117.5 155q-16 17 -39.5 41.5t-48 49t-47 46t-35.5 33.5q-22 19 -48 49.5
t-42.5 61t-16 55t30.5 30.5q42 8 107 16t140 13t152 5.5t143 -6.5q19 -2 33.5 -23t20.5 -45.5t2.5 -45.5t-20.5 -22z" />
    <glyph glyph-name="minus" unicode="&#x2212;" horiz-adv-x="504" 
d="M493 472q-12 -32 -30.5 -58t-41 -43.5t-48 -26t-49.5 -4.5q-29 4 -59.5 1.5t-62 -7t-63 -7.5t-61.5 1q-26 3 -38.5 16.5t-15 32.5t3 40t16.5 39t25 30.5t28 13.5l224 -16q6 0 19.5 3t29.5 7.5t30.5 9t21.5 6.5q37 8 59.5 1t11.5 -39z" />
    <glyph glyph-name="radical" unicode="&#x221a;" horiz-adv-x="1208" 
d="M1167 545q-33 0 -79 5.5t-98.5 13t-108 14t-109.5 8t-102.5 -5t-85.5 -24.5q-16 -25 -39.5 -62.5t-50.5 -84t-55 -99t-53.5 -107t-47 -108.5t-33.5 -103q-3 -13 -19 -18.5t-35.5 -7t-39 0t-29.5 4.5q-15 4 -36 50t-42.5 115t-42 149.5t-35.5 153.5q-3 13 13.5 29
t37.5 25.5t40 8.5t23 -21q11 -57 22.5 -102t24 -81.5t25.5 -66.5t28 -58q30 38 57 91t51 110t44.5 112.5t36.5 97.5q21 56 39 80.5t37.5 32t42 6t53.5 1.5q42 4 107.5 6.5t140.5 1t152 -8t142 -19.5q19 -4 31.5 -26t16.5 -47t-1.5 -45.5t-22.5 -20.5z" />
    <glyph glyph-name="infinity" unicode="&#x221e;" horiz-adv-x="721" 
d="M703 476q3 -36 -5.5 -70.5t-25.5 -65t-42.5 -55t-55.5 -39.5q-20 -11 -48 -15t-56.5 -0.5t-54 14.5t-41.5 31q-6 8 -11 15.5t-9 15.5q-35 -52 -88 -79q-20 -11 -48 -15t-56.5 -0.5t-54 15t-41.5 31.5q-25 31 -33 61t-4.5 60.5t15 60.5t25.5 61q10 22 28 41t39 33.5
t43.5 23t40.5 10.5q21 1 43 -4.5t43 -17.5t39.5 -29.5t30.5 -39.5v1q10 22 28.5 41t39.5 33.5t43 23t40 10.5q28 2 58 -9t55.5 -31.5t42.5 -49.5t20 -62zM622 408q4 7 5 18.5t-1.5 23t-9 21t-16.5 13.5q-17 7 -36 12t-40 4.5t-43 -9t-44 -28.5t-29 -44t7 -49
q11 -21 37.5 -26.5t55.5 -3.5q17 0 34.5 6.5t33.5 16.5t28 22t18 23zM315 390q4 8 5 19t-1.5 22.5t-9 21t-17.5 13.5q-17 7 -36 12t-40 4.5t-43 -9t-44 -28.5t-29 -44t7 -49q12 -21 38 -26.5t55 -3.5q17 0 35 6.5t33.5 16.5t28 22t18.5 23z" />
    <glyph glyph-name="integral" unicode="&#x222b;" horiz-adv-x="510" 
d="M520 676q-12 -29 -27.5 -33t-32.5 6t-35 27.5t-34 31t-29.5 17t-21.5 -14.5q-11 -25 -13.5 -71t-0.5 -96.5t5.5 -97t4.5 -73.5q2 -36 5 -84.5t1.5 -98.5t-10 -96t-28.5 -76q-32 -49 -73.5 -56.5t-84.5 15.5q-14 7 -31 17t-33 22t-29.5 26t-21.5 30q-7 14 -2.5 36t16 39.5
t28 24t34.5 -10.5q12 -12 22.5 -24.5t21.5 -23.5t24.5 -17.5t33.5 -6.5q11 0 17 10t9 23.5t4 27t1 21.5q1 24 -0.5 64t-4 83.5t-5.5 83.5t-5 63q-6 78 -6 149t10 120q7 39 25 61t40.5 32t47.5 10t48 -6q26 -7 54.5 -19.5t49.5 -31.5t30 -44.5t-4 -58.5z" />
    <glyph glyph-name="approxequal" unicode="&#x2248;" horiz-adv-x="701" 
d="M649 537q-14 -25 -37.5 -44t-51.5 -30.5t-58 -15.5t-58 1q-24 5 -49 15.5t-49.5 22.5t-47.5 22.5t-44 14.5q-26 5 -41.5 2t-25.5 -11t-17 -19.5t-17 -23.5q-6 -7 -10.5 -18.5t-13 -18t-22.5 -5t-38 19.5q-8 5 -15.5 15.5t-12.5 24.5t-5.5 31.5t7.5 36.5q7 19 24 37
t39.5 31t50 19t56.5 0q26 -5 51.5 -17t51.5 -25.5t52 -25.5t52 -17q16 -3 35 2.5t37 17.5t31.5 27.5t19.5 31.5q2 6 11.5 9t23 2t29.5 -5.5t31 -11.5q27 -14 27.5 -40t-16.5 -55zM649 290q-14 -25 -37.5 -44t-51.5 -30.5t-58 -15.5t-58 2q-24 5 -49 15.5t-49.5 22t-47.5 22
t-44 14.5q-26 5 -41.5 2.5t-25.5 -10.5t-17 -20t-17 -24q-6 -7 -10.5 -18.5t-13 -18t-23 -5t-38.5 19.5q-7 5 -14.5 15.5t-12.5 24.5t-5.5 31.5t7.5 36.5q7 19 24 37t39.5 31t49.5 19t56 0q26 -5 52 -17t52 -25.5t52 -25.5t52 -17q16 -3 35 3t37 17.5t31.5 27t19.5 31.5
q2 6 11.5 9t23 2t29 -5t30.5 -12q28 -14 28.5 -40t-16.5 -55z" />
    <glyph glyph-name="notequal" unicode="&#x2260;" horiz-adv-x="522" 
d="M471 638q-14 -28 -27 -53t-27 -51q29 3 45.5 -2.5t5.5 -29.5q-18 -38 -50 -62t-69 -26l-21 -33q-6 -9 -12 -20t-14 -23q38 5 75.5 9t69.5 0q34 -4 46.5 -13.5t9 -21.5t-18.5 -26.5t-34 -28.5q-18 -14 -37.5 -19t-44 -6.5t-56 -1.5t-73.5 -3q-20 -35 -37.5 -67t-31.5 -54
q-10 -16 -28 -24t-35 -8q-9 0 -17 3t-13 9t-6 15t4 21q7 16 11.5 27t10 21.5t11.5 21.5t16 28q-15 1 -29 4t-23 9.5t-12 16.5t2 25q10 29 24 43.5t30.5 19.5t35 3.5t38.5 -4.5q12 20 23 39.5t20 37.5q-41 -5 -81.5 -10.5t-75.5 -0.5q-35 4 -44.5 24.5t-3.5 43.5t23 41.5
t36 20.5l201 -14q30 54 56.5 99t42.5 80q9 21 27.5 22t34.5 -10.5t24.5 -31t-2.5 -40.5z" />
    <glyph glyph-name="lessequal" unicode="&#x2264;" 
d="M428 321q16 -13 14 -32.5t-13 -36.5t-26.5 -26.5t-27.5 -0.5q-69 51 -139 97t-142 101q-12 9 -25.5 13.5t-25.5 9t-21 11.5t-12 21q-3 17 4 28t20.5 19t31 15.5t33.5 18.5q32 27 62 57.5t55.5 59t46 54t33.5 43.5q9 12 26.5 12.5t33 -6.5t24.5 -20t1 -26
q-22 -38 -43.5 -60.5t-47.5 -44t-57.5 -48.5t-73.5 -75q36 -33 71.5 -57t69.5 -44.5t66.5 -39.5t61.5 -43zM493 136q-12 -32 -30.5 -58t-41 -43.5t-48 -26t-49.5 -4.5q-29 4 -59.5 1.5t-62 -7t-63 -7.5t-61.5 1q-26 3 -38.5 16.5t-15 32.5t3 40t16.5 39t25 30.5t28 13.5
l224 -16q6 0 19.5 3t29.5 7.5t30.5 9t21.5 6.5q37 8 59.5 1t11.5 -39z" />
    <glyph glyph-name="greaterequal" unicode="&#x2265;" 
d="M426 488q-9 -14 -17 -22.5t-16 -15t-17 -14.5t-20 -21q-16 -20 -39.5 -44t-49.5 -49t-51.5 -49.5t-45.5 -45.5q-11 -11 -32 -17.5t-40.5 -6.5t-30 7t-0.5 22q21 33 49.5 63.5t58 60.5t55.5 61t43 66q-53 51 -114 111t-133 129q-10 10 0.5 29.5t29.5 36t41.5 22.5
t37.5 -10q22 -26 48.5 -56t56.5 -61t63 -62t68 -58q12 -9 24.5 -18.5t21.5 -18.5t12 -19t-3 -20zM493 136q-12 -32 -30.5 -58t-41 -43.5t-48 -26t-49.5 -4.5q-29 4 -59.5 1.5t-62 -7t-63 -7.5t-61.5 1q-26 3 -38.5 16.5t-15 32.5t3 40t16.5 39t25 30.5t28 13.5l224 -16
q6 0 19.5 3t29.5 7.5t30.5 9t21.5 6.5q37 8 59.5 1t11.5 -39z" />
    <glyph glyph-name="lozenge" unicode="&#x25ca;" horiz-adv-x="711" 
d="M684 382q-9 -14 -16.5 -22t-16 -15t-17.5 -14.5t-19 -20.5q-17 -21 -42.5 -47.5t-53.5 -55t-55.5 -55.5t-48.5 -48q-11 -11 -32 -17.5t-40.5 -6.5t-30 7.5t-0.5 22.5q3 5 6 9.5t7 9.5q-60 42 -120.5 83t-123.5 88q-12 9 -23.5 16t-21.5 14.5t-16.5 17.5t-9.5 24
q-3 18 5 28t21.5 18t30.5 15.5t32 19.5q33 27 63 57t55.5 59t45.5 54.5t33 43.5q6 9 19 18t27.5 14.5t28.5 5.5t23 -10q22 -26 48.5 -56t56 -61t62.5 -61.5t68 -57.5q12 -10 25 -19t22 -18.5t12 -19.5t-4 -20zM531 377q-43 42 -91 88.5t-103 100.5q-17 -18 -35 -33
t-39.5 -32.5t-47 -41t-56.5 -59.5q33 -31 66 -54t65 -42.5t62.5 -37t58.5 -38.5q35 35 67.5 71t52.5 78z" />
    <glyph glyph-name="apple" unicode="&#xf8ff;" horiz-adv-x="1570" 
d="M1504 690h-4v27l-10 -27h-3l-10 27h-1v-27h-3v31h6l10 -25l9 25h6v-31zM1469 718h-10v-28h-4v28h-9v3h23v-3zM1432 713q11 -14 6.5 -32.5t-16.5 -28.5q-15 -14 -30 -17.5t-38 -4.5q4 2 9 8.5t6 11.5q-5 -8 -21 -14.5t-33 -11.5v-15h-36v-200h-21v-4q0 -91 -42.5 -163.5
t-125.5 -123.5q1 -18 -4 -39t-18.5 -41t-35.5 -36t-54 -23q-7 -2 -11 6q-3 7 3 12q10 6 17.5 17.5t10.5 24.5q2 7 2 16.5t-5 18.5q-123 -44 -283 -44q-111 0 -204 21t-164 63v-62q-45 17 -87 43.5t-75 64t-53 86.5t-20 111q0 31 7 60.5t18.5 55t26.5 46t30 33.5q-7 2 -18 7
t-19 10q5 -10 15 -15q-6 -1 -15 -1t-19.5 2.5t-21.5 7.5t-20 14q-18 19 -14.5 37.5t14.5 26.5q8 7 23.5 8.5t28.5 -8.5q11 8 24.5 8.5t24.5 -6.5q10 -5 12 -13.5t0.5 -17t-5.5 -15t-7 -8.5q2 -7 5 -13t8 -8q2 2 4.5 4t5.5 4q62 95 190 149t305 54q125 0 227.5 -26.5
t174.5 -77.5q20 1 41.5 2t39.5 1q38 0 72.5 1t45.5 1q-5 9 -2.5 21t12.5 19q14 9 27.5 7t23.5 -11q8 8 26 11t32 -14zM1421 690q-1 12 -8.5 16t-12.5 4t-11.5 -4.5t-6.5 -12.5q-1 -8 4 -14t12 -6q2 -11 -10 -21q10 4 17 10q6 5 11 12t5 16zM1370 690q0 13 -8.5 17t-13.5 4
t-11 -4.5t-7 -12.5q0 -9 5 -14.5t12 -6.5q2 -12 -11 -20q9 4 17 10q7 5 12 12t5 15zM1329 664q-9 4 -14 13v-30q6 5 9 8.5t5 8.5zM1199 592v14l-9 -1q2 -3 4.5 -6.5t4.5 -6.5zM1294 629v30h-111v-30h36v-201l39 -1v202h36zM1165 627v31l-79 -3v-233l36 2v57l40 2v34l-40 -3
l4 111zM1076 421l-54 229l-52 -4l-43 -243l37 6l6 33l60 5l9 -29zM926 496q-8 -26 -28 -44l15 -15zM917 402l-47 49q14 12 25 27q9 13 16 31t6 41q-2 38 -19.5 55t-38.5 24q-25 7 -55 5v-253l35 7l-1 43l39 -36zM781 430v144q-29 -9 -47 -29.5t-19 -50.5q-1 -27 18.5 -45
t47.5 -19zM787 378v34q-25 -1 -44 8q-17 8 -31 25t-15 50q-1 29 12 49t30 31q18 13 43 21v37q-36 -9 -63 -27q-23 -16 -43 -44t-18 -72q1 -40 18.5 -63t39.5 -34t42.5 -13.5t28.5 -1.5zM1240 405q0 1 -0.5 1.5t-0.5 2.5h-40v149q-7 12 -15.5 23.5t-17.5 22.5l-21 -1v-69
l37 2v-73l-40 -3v-56l-114 -10l-11 31l-25 -3l-8 -31q-20 -2 -53.5 -7.5t-56.5 -10.5l-12 10v-13q-10 -2 -21 -4q-9 -2 -20.5 -4t-21.5 -4q-20 -4 -41 -1.5t-40 10t-35 19.5t-25 28v-87l-144 -47v79l-17 -39l-18 36v-89l-76 -31l1 38q-13 -27 -31 -46.5t-41 -19.5
q-24 0 -41 15t-28 37.5t-16.5 49t-6.5 49.5q-1 17 3 44t14.5 52t28.5 43t45 18t44.5 -16.5t26.5 -41.5v74l62 21l30 -48l20 61l143 52v-52q17 36 54 59.5t81 28.5q121 14 146 -82l15 93l85 5l26 -108v110h5h5t8 1q-69 43 -163 65t-207 22q-143 0 -256 -37t-182 -107l-4 -4
l-4 -4q15 8 31 14.5t32 9.5v-98q-31 -6 -55.5 -24t-41 -43t-25.5 -55t-9 -60q0 -39 14 -71.5t35.5 -57.5t47.5 -43t49 -27v-17q69 -43 162.5 -65t205.5 -22q162 0 284 45q7 3 12 -4q15 -23 9 -55q-5 -15 -10 -25q19 10 32 24t20.5 29.5t10 31t0.5 27.5q0 7 5 10
q81 48 123 117t42 156zM636 338v248l-36 -12v-248zM570 318v247l-39 -14l-36 -95l-41 73l-32 -12v-252l36 13v161l39 -61l38 91l-1 -163zM188 614q-1 8 -7 12.5t-11 4.5t-12.5 -4t-8.5 -17q-1 -8 4.5 -15t11.5 -12q7 -6 17 -10q-13 8 -11 20q8 1 13 6.5t4 14.5zM137 613
q-1 8 -7 12.5t-12 4.5q-5 0 -12.5 -4t-7.5 -16q-1 -9 4.5 -16t11.5 -12q7 -6 16 -10q-12 10 -10 20q8 1 13 7t4 14zM403 354q0 19 -3 43.5t-11.5 46.5t-22.5 37t-35 15t-35.5 -16t-23 -37.5t-12 -44.5t-3.5 -38q1 -17 6 -40t14 -43t23 -34t32 -14q15 0 27.5 12t22.5 31
t15.5 40.5t5.5 41.5zM325 85v53q-26 9 -52.5 28t-48 46.5t-35 63t-12.5 76.5q2 60 22.5 98t45.5 61q29 26 65 39v54q-51 -19 -91 -53q-17 -15 -33.5 -34.5t-29 -44t-20 -55t-7.5 -67.5q0 -36 8.5 -66.5t22 -56t31.5 -46t36 -36.5q43 -37 98 -60zM1024 475l-48 -4l22 127z
M884 544q1 -15 -6 -27.5t-16 -22.5q-11 -11 -24 -20v116q12 -2 22 -8q8 -5 15 -14.5t9 -23.5zM366 365q0 -41 -9 -68t-26 -28q-9 0 -16 10.5t-12 25.5t-7.5 31t-2.5 27q0 14 2.5 31t7 32t11.5 25.5t16 10.5q18 0 27 -28.5t9 -68.5zM1006 489l-6 27l-5 -28zM855 517
q9 7 9.5 21.5t-9.5 19.5v-41zM344 364q0 29 -3.5 48.5t-10.5 19.5q-4 0 -6.5 -7t-4.5 -17.5t-3 -22.5t-1 -22q0 -8 1 -19t3.5 -21.5t5 -17.5t5.5 -7q7 0 10.5 19t3.5 47z" />
    <glyph glyph-name="fi" unicode="&#xfb01;" horiz-adv-x="960" 
d="M876 606q-3 -58 -3.5 -120t0 -127.5t0.5 -135t-2 -141.5q0 -14 -1 -28t-5.5 -27t-14.5 -24.5t-30 -20.5q-21 -10 -32.5 1.5t-16 36.5t-4 58.5t3.5 67.5t6 65.5t4 50.5q3 65 2 124t-2.5 114t-3.5 106t-1 99q0 13 -0.5 32t2 36.5t9.5 28.5t21 8q39 -9 55.5 -30t20 -49.5
t-1 -61t-6.5 -63.5zM647 524q21 0 24 -21t-5 -46t-23.5 -46t-30.5 -22q-28 -2 -49.5 0t-45.5 3t-56 0.5t-81 -6.5q-48 -6 -97.5 -15.5t-97.5 -38.5q-7 -28 -7.5 -63t1 -72t3 -72t-2.5 -63q-3 -24 -5.5 -37t-7 -19t-11.5 -8t-20 -5q-24 -6 -37 -1t-18 17t-4 29t4 35t6.5 35.5
t4.5 29.5q2 48 2.5 93t-2.5 101q-12 16 -18 35.5t-6.5 39t4.5 38t14 31.5q1 24 5 64.5t19.5 85t45.5 87t84 71.5q48 25 94.5 30t92 3.5t89.5 -1.5t86 15q19 7 25 -12.5t-0.5 -47.5t-24 -54.5t-45.5 -33.5q-39 -9 -76.5 -7.5t-73.5 3.5t-69.5 0.5t-64.5 -16.5
q-49 -25 -71 -70t-19 -99q114 20 226.5 26.5t238.5 3.5z" />
    <glyph glyph-name="fl" unicode="&#xfb02;" horiz-adv-x="1335" 
d="M1269 189q-10 -22 -26.5 -42.5t-36.5 -37.5t-41.5 -30.5t-39.5 -22.5q-21 -10 -51 -14t-62.5 -9t-63 -13t-53.5 -26q-21 -16 -50 -30t-53.5 -14.5t-38 19.5t-4.5 71q18 100 22.5 187t4.5 172.5t-0.5 174.5t7.5 192q1 15 19.5 31t39.5 25.5t38 8t15 -20.5
q-17 -174 -20 -344.5t-3 -323.5l16 -8q66 13 120 30.5t99 36.5q23 9 41.5 23t34 29.5t28.5 31.5t25 30q13 15 22.5 3t14 -35.5t4 -51t-7.5 -42.5zM647 524q21 0 24 -21t-5 -46t-23.5 -46t-30.5 -22q-28 -2 -49.5 0t-45.5 3t-56 0.5t-81 -6.5q-48 -6 -97.5 -15.5t-97.5 -38.5
q-7 -28 -7.5 -63t1 -72t3 -72t-2.5 -63q-3 -24 -5.5 -37t-7 -19t-11.5 -8t-20 -5q-24 -6 -37 -1t-18 17t-4 29t4 35t6.5 35.5t4.5 29.5q2 48 2.5 93t-2.5 101q-12 16 -18 35.5t-6.5 39t4.5 38t14 31.5q1 24 5 64.5t19.5 85t45.5 87t84 71.5q48 25 94.5 30t92 3.5t89.5 -1.5
t86 15q19 7 25 -12.5t-0.5 -47.5t-24 -54.5t-45.5 -33.5q-39 -9 -76.5 -7.5t-73.5 3.5t-69.5 0.5t-64.5 -16.5q-49 -25 -71 -70t-19 -99q114 20 226.5 26.5t238.5 3.5z" />
  </font>
</defs>
</svg>
